<svg width="311" height="308" viewBox="0 0 311 308" fill="none" xmlns="http://www.w3.org/2000/svg">
<path d="M64.5692 192.35C55.5127 201.139 55.3269 215.513 64.2441 224.439C73.1613 233.365 87.6518 233.548 96.8012 224.759C97.4514 224.118 98.1016 223.386 98.659 222.745C106.554 259.732 109.991 264.676 114.961 264.676C115.518 264.676 116.122 264.584 116.772 264.493C123.646 263.531 123.785 263.531 129.173 174.085C129.265 172.254 129.405 170.378 129.498 168.547C129.591 169.737 129.73 170.973 129.823 172.071C136.371 238.858 136.371 238.858 141.248 240.689C147.518 243.115 150.722 237.531 157.55 225.309C159.361 222.15 162.055 217.252 163.773 214.872C171.762 215.742 193.637 217.435 200.185 209.058C201.486 207.456 203.204 204.801 205.062 201.734C207.523 197.935 212.632 189.924 215.837 186.857C217.323 188.642 219.181 191.618 220.667 193.952C226.89 203.748 233.903 214.78 243.61 215.009H243.935L294.559 215.101H310.954V222.242C310.954 251.035 287.267 274.289 258.147 274.289H175.431V355.953C175.431 384.654 151.744 408 122.531 408H85.4689C56.3487 408 32.6623 384.654 32.6623 355.953V274.335H-50.1934C-79.3137 274.335 -103 251.08 -103 222.287V185.758C-103 156.965 -79.3137 133.711 -50.1934 133.711H32.6623V52.0471C32.6623 23.3457 56.3487 0 85.4689 0H122.531C151.744 0 175.431 23.3457 175.431 52.0471V133.711H258.193C287.314 133.711 311 156.965 311 185.758V203.062H294.605L244.26 202.97C244.26 202.97 244.167 202.97 244.074 202.97C240.87 202.97 233.81 191.801 231.117 187.544C227.587 182.05 224.847 177.748 221.642 175.459C219.691 173.994 217.137 173.536 214.722 173.994C208.034 175.276 202.322 183.653 194.798 195.325C193.172 197.98 191.686 200.315 190.711 201.505C187.692 203.977 170.368 203.748 162.891 202.558C156.992 201.688 154.066 206.724 147.053 219.22C145.567 206.586 143.709 187.452 142.177 170.973C135.489 102.675 135.489 102.675 129.591 101.531C127.826 101.21 125.968 101.622 124.575 102.721C121.324 105.147 121.138 105.284 117.004 173.353C115.843 192.03 114.543 214.689 113.242 231.671C111.942 226.133 110.409 219.266 108.691 210.752L108.459 209.882C107.808 206.678 105.951 204.801 103.21 203.748C102.374 199.72 100.377 195.875 97.1728 192.716C88.2555 183.744 73.7187 183.607 64.5692 192.35Z" fill="#F2F7FC"/>
</svg>
