<svg width="41" height="40" viewBox="0 0 41 40" fill="none" xmlns="http://www.w3.org/2000/svg">
<path d="M24.6666 19.5833C25.8172 19.5833 26.75 18.6506 26.75 17.5C26.75 16.3494 25.8172 15.4167 24.6666 15.4167C23.516 15.4167 22.5833 16.3494 22.5833 17.5C22.5833 18.6506 23.516 19.5833 24.6666 19.5833Z" fill="#5F95DC"/>
<path d="M16.3333 19.5833C17.4839 19.5833 18.4166 18.6506 18.4166 17.5C18.4166 16.3494 17.4839 15.4167 16.3333 15.4167C15.1827 15.4167 14.25 16.3494 14.25 17.5C14.25 18.6506 15.1827 19.5833 16.3333 19.5833Z" fill="#5F95DC"/>
<path d="M38.7333 18.9C38.3166 16.3833 36.4666 14.3333 34.05 13.6167C33.1666 11.75 31.9166 10.1167 30.4 8.76667C27.7666 6.41667 24.3 5 20.5 5C16.7 5 13.2333 6.41667 10.6 8.76667C9.06663 10.1167 7.81663 11.7667 6.94996 13.6167C4.53329 14.3333 2.68329 16.3667 2.26663 18.9C2.19996 19.25 2.16663 19.6167 2.16663 20C2.16663 20.3833 2.19996 20.75 2.26663 21.1C2.68329 23.6167 4.53329 25.6667 6.94996 26.3833C7.81663 28.2333 9.06663 29.8667 10.5666 31.2C13.2 33.5667 16.6833 35 20.5 35C24.3166 35 27.8 33.5667 30.45 31.2C31.95 29.8667 33.2 28.2167 34.0666 26.3833C36.4666 25.6667 38.3166 23.6333 38.7333 21.1C38.8 20.75 38.8333 20.3833 38.8333 20C38.8333 19.6167 38.8 19.25 38.7333 18.9ZM32.1666 23.3333C32 23.3333 31.85 23.3 31.6833 23.2833C31.35 24.4 30.8666 25.4333 30.25 26.3833C28.1666 29.5667 24.5833 31.6667 20.5 31.6667C16.4166 31.6667 12.8333 29.5667 10.75 26.3833C10.1333 25.4333 9.64996 24.4 9.31663 23.2833C9.14996 23.3 8.99996 23.3333 8.83329 23.3333C6.99996 23.3333 5.49996 21.8333 5.49996 20C5.49996 18.1667 6.99996 16.6667 8.83329 16.6667C8.99996 16.6667 9.14996 16.7 9.31663 16.7167C9.64996 15.6 10.1333 14.5667 10.75 13.6167C12.8333 10.4333 16.4166 8.33333 20.5 8.33333C24.5833 8.33333 28.1666 10.4333 30.25 13.6167C30.8666 14.5667 31.35 15.6 31.6833 16.7167C31.85 16.7 32 16.6667 32.1666 16.6667C34 16.6667 35.5 18.1667 35.5 20C35.5 21.8333 34 23.3333 32.1666 23.3333ZM20.5 28.3333C23.85 28.3333 26.7333 26.2833 28 23.3333H13C14.2666 26.2833 17.15 28.3333 20.5 28.3333Z" fill="#5F95DC"/>
</svg>
