<svg width="56" height="55" viewBox="0 0 56 55" fill="none" xmlns="http://www.w3.org/2000/svg">
<circle cx="28" cy="27.5" r="27.5" fill="#EFF5FC"/>
<path d="M41.4826 24.8071H40.375V24.75H28V30.25H35.7708C34.6371 33.4517 31.5908 35.75 28 35.75C23.4439 35.75 19.75 32.0561 19.75 27.5C19.75 22.9439 23.4439 19.25 28 19.25C30.1031 19.25 32.0164 20.0434 33.4732 21.3393L37.3624 17.4501C34.9066 15.1614 31.6217 13.75 28 13.75C20.4066 13.75 14.25 19.9066 14.25 27.5C14.25 35.0934 20.4066 41.25 28 41.25C35.5934 41.25 41.75 35.0934 41.75 27.5C41.75 26.5781 41.6551 25.6781 41.4826 24.8071Z" fill="#FFC107"/>
<path d="M15.8354 21.1001L20.353 24.4131C21.5754 21.3867 24.5358 19.25 28.0001 19.25C30.1031 19.25 32.0164 20.0434 33.4733 21.3393L37.3624 17.4501C34.9067 15.1614 31.6218 13.75 28.0001 13.75C22.7187 13.75 18.1386 16.7317 15.8354 21.1001Z" fill="#FF3D00"/>
<path d="M28 41.25C31.5516 41.25 34.7787 39.8908 37.2187 37.6805L32.963 34.0794C31.5825 35.125 29.8665 35.75 28 35.75C24.4236 35.75 21.3869 33.4695 20.2429 30.2871L15.759 33.7418C18.0347 38.1947 22.656 41.25 28 41.25Z" fill="#4CAF50"/>
<path d="M41.4826 24.8071H40.375V24.75H28V30.25H35.7708C35.2263 31.7879 34.237 33.1141 32.961 34.0801C32.9617 34.0794 32.9624 34.0794 32.9631 34.0787L37.2187 37.6798C36.9176 37.9534 41.75 34.375 41.75 27.5C41.75 26.5781 41.6551 25.6781 41.4826 24.8071Z" fill="#1976D2"/>
</svg>
