<svg width="380" height="242" viewBox="0 0 380 242" fill="none" xmlns="http://www.w3.org/2000/svg">
<path d="M316.792 49.6752C317.101 49.89 348.904 62.7738 365.99 88.3454C383.075 113.917 365.558 92.6042 348.767 78.9748C335.021 67.8161 305.651 53.2516 308.976 49.6752C312.301 46.0988 316.792 49.6752 316.792 49.6752Z" fill="#D1E3F9"/>
<path d="M351.222 241.409C351.222 241.409 390.804 195.061 376.411 131.135C362.017 67.2095 285.73 51.4507 234.632 76.7064C183.535 101.962 111.566 109.759 84.9376 59.4185C58.3092 9.07777 -42.447 117.999 20.1658 241.409H351.222Z" fill="#E0EDFD"/>
<path d="M48.3343 241.409C48.3343 241.409 17.1503 176.617 74.3798 153.289C131.609 129.96 78.9354 218.276 137.115 214.896C159.749 213.581 202.693 187.119 189.782 126.984C182.095 91.1887 272.409 112.533 287.465 241.415H48.3343V241.409Z" fill="white"/>
<path d="M373.892 105.911C373.892 105.911 376.288 112.495 378.332 113.759C380.376 115.023 380.729 111.124 378.332 107.333C375.936 103.542 372.69 102.998 373.892 105.911Z" fill="#E0EDFD"/>
<path d="M10.0903 187.131C10.0903 187.131 4.33276 160.631 10.0903 139.931C15.8478 119.231 12.3933 146.269 12.4868 158.912C12.6092 174.21 15.8478 207.01 10.0903 187.131Z" fill="white"/>
<path d="M12.9617 126.08C12.9617 126.08 13.0265 119.762 14.8257 118.391C16.6249 117.019 15.5958 125.158 14.8257 126.769C13.9261 128.658 12.861 127.982 12.9617 126.08Z" fill="white"/>
<path d="M279.656 136.387V227.439C279.656 229.726 278.569 231.792 276.82 233.252C276.799 233.277 276.77 233.296 276.748 233.315C275.115 234.661 272.913 235.482 270.494 235.482H109.688C107.269 235.482 105.067 234.661 103.434 233.315C103.412 233.296 103.383 233.277 103.362 233.252C101.613 231.792 100.526 229.726 100.526 227.439V136.387C100.526 131.313 103.066 126.498 107.471 123.212L179.907 69.2194C185.78 64.8406 194.402 64.8406 200.275 69.2194L272.711 123.212C277.116 126.498 279.656 131.313 279.656 136.387Z" fill="#5F95DC"/>
<path d="M172.272 30.3889C169.073 31.9535 167.494 35.7786 168.668 39.1403C169.658 41.9744 172.207 43.7405 174.958 43.919C176.38 44.0118 177.61 44.9474 178.186 46.2508L195.07 84.4892C197.735 90.5259 195.956 97.5846 190.954 101.475C191.554 102.091 192.115 102.742 192.637 103.424C198.436 98.8829 200.667 90.8181 197.56 83.7796L180.531 45.2137C179.946 43.888 180.131 42.3465 181.025 41.2058C182.599 39.1979 183.047 36.4098 181.946 33.9161C180.318 30.2277 175.927 28.6005 172.272 30.3889ZM177.263 40.9856C174.955 42.0046 172.248 40.956 171.229 38.648C170.21 36.34 171.258 33.6332 173.566 32.6142C175.874 31.5951 178.58 32.6437 179.599 34.9517C180.619 37.2605 179.571 39.9672 177.263 40.9856Z" fill="#091A50"/>
<path d="M172.469 33.4576L169.917 29.8643C168.338 27.6674 166.416 20.6797 170.955 16.1523C175.469 11.6491 185.449 10.8718 196.277 17.5038C215.231 29.1118 229.92 45.0432 244.894 46.3742C257.318 47.4783 263.102 40.9168 262.285 36.2334C261.563 32.086 255.584 27.7758 244.628 28.9613C227.227 30.8446 220.828 46.7898 237.788 55.6343C253.966 64.0709 298.13 60.4022 298.13 0" stroke="#091A50" stroke-width="2" stroke-miterlimit="10"/>
<g opacity="0.5">
<path d="M240.286 63.5078L121.266 85.1249L145.201 216.909L264.222 195.292L240.286 63.5078Z" fill="#808080"/>
</g>
<path d="M237.979 58.1238L118.958 79.7408L142.893 211.525L261.914 189.908L237.979 58.1238Z" fill="white"/>
<path d="M229.919 140.995L156.778 154.278C155.317 154.543 153.917 153.574 153.652 152.112L152.28 144.56C152.015 143.099 152.984 141.699 154.446 141.433L227.587 128.151C229.048 127.885 230.447 128.855 230.713 130.316L232.085 137.869C232.35 139.33 231.38 140.73 229.919 140.995Z" fill="white"/>
<path d="M229.2 140.275L156.059 153.558C154.598 153.823 153.198 152.854 152.932 151.392L151.561 143.84C151.295 142.379 152.264 140.979 153.726 140.714L226.867 127.431C228.328 127.166 229.728 128.135 229.993 129.597L231.365 137.149C231.63 138.61 230.661 140.01 229.2 140.275Z" fill="#E7ECF3"/>
<path d="M233.425 160.299L160.284 173.582C158.823 173.847 157.423 172.878 157.157 171.416L155.786 163.864C155.52 162.403 156.49 161.003 157.951 160.737L231.092 147.455C232.553 147.189 233.953 148.159 234.219 149.62L235.59 157.173C235.855 158.635 234.886 160.034 233.425 160.299Z" fill="white"/>
<path d="M232.64 159.398L159.499 172.681C158.038 172.946 156.638 171.977 156.372 170.515L155 162.963C154.735 161.502 155.704 160.102 157.166 159.836L230.307 146.554C231.768 146.288 233.168 147.258 233.433 148.719L234.805 156.272C235.07 157.733 234.101 159.133 232.64 159.398Z" fill="#E7ECF3"/>
<g opacity="0.5">
<path d="M236.93 179.603L163.789 192.887C162.328 193.152 160.929 192.183 160.663 190.721L159.291 183.169C159.026 181.708 159.995 180.308 161.457 180.042L234.598 166.76C236.059 166.494 237.459 167.464 237.724 168.925L239.096 176.478C239.361 177.939 238.391 179.339 236.93 179.603Z" fill="#000007"/>
</g>
<path d="M236.211 178.884L163.07 192.167C161.609 192.432 160.209 191.463 159.943 190.001L158.572 182.449C158.306 180.988 159.275 179.588 160.737 179.323L233.878 166.04C235.339 165.775 236.739 166.744 237.005 168.206L238.376 175.758C238.641 177.219 237.672 178.619 236.211 178.884Z" fill="#0E3E86"/>
<path d="M205.774 115.88C209.883 104.763 204.202 92.4193 193.084 88.3101C181.967 84.2009 169.623 89.8822 165.514 101C161.405 112.117 167.086 124.461 178.204 128.57C189.321 132.679 201.664 126.998 205.774 115.88Z" fill="#0E3E86"/>
<path d="M204.181 114.437C207.484 104.2 201.862 93.2244 191.625 89.9222C181.388 86.62 170.413 92.2416 167.111 102.478C163.808 112.715 169.43 123.691 179.667 126.993C189.904 130.295 200.879 124.674 204.181 114.437Z" fill="#E7ECF3"/>
<path d="M186.703 114.278C191.482 113.41 194.507 108.035 193.46 102.272C192.414 96.5094 187.691 92.5412 182.913 93.4091C178.134 94.277 175.109 99.6523 176.156 105.415C177.202 111.178 181.925 115.146 186.703 114.278Z" fill="#5F95DC"/>
<path d="M186.978 115.801C181.907 116.722 177.464 118.649 174.205 121.092C178.012 124.22 183.231 125.715 188.601 124.74C193.972 123.765 198.331 120.53 200.796 116.263C196.886 115.121 192.05 114.88 186.978 115.801Z" fill="#4170AC"/>
<path d="M161.536 147.768C161.16 147.836 160.798 147.812 160.448 147.696C160.102 147.574 159.807 147.374 159.564 147.094C159.325 146.809 159.169 146.469 159.097 146.074C159.025 145.679 159.052 145.308 159.177 144.961C159.306 144.613 159.512 144.324 159.794 144.092C160.079 143.856 160.41 143.704 160.786 143.636C161.165 143.567 161.528 143.593 161.875 143.715C162.224 143.831 162.518 144.03 162.757 144.311C162.996 144.592 163.152 144.93 163.223 145.325C163.295 145.72 163.269 146.093 163.144 146.444C163.019 146.791 162.814 147.082 162.529 147.318C162.247 147.549 161.916 147.699 161.536 147.768ZM161.431 147.193C161.699 147.144 161.926 147.041 162.114 146.883C162.3 146.721 162.431 146.517 162.507 146.271C162.585 146.021 162.598 145.746 162.543 145.448C162.489 145.15 162.382 144.899 162.221 144.696C162.064 144.493 161.87 144.35 161.639 144.268C161.408 144.186 161.159 144.169 160.891 144.217C160.624 144.266 160.397 144.369 160.209 144.527C160.022 144.685 159.888 144.888 159.809 145.134C159.734 145.38 159.723 145.652 159.777 145.95C159.831 146.249 159.937 146.502 160.095 146.709C160.256 146.912 160.452 147.056 160.684 147.142C160.915 147.225 161.164 147.241 161.431 147.193ZM166.12 142.722L166.218 143.262L165.143 143.458L165.778 146.956L165.115 147.076L164.48 143.578L163.399 143.774L163.301 143.234L166.12 142.722ZM169.833 143.29C169.871 143.496 169.857 143.698 169.794 143.898C169.73 144.097 169.602 144.275 169.41 144.43C169.217 144.581 168.954 144.686 168.621 144.747L167.889 144.88L168.186 146.519L167.524 146.639L166.791 142.6L168.185 142.347C168.495 142.291 168.767 142.297 168.999 142.367C169.235 142.432 169.422 142.546 169.56 142.71C169.701 142.872 169.793 143.066 169.833 143.29ZM168.523 144.207C168.775 144.161 168.952 144.07 169.056 143.936C169.159 143.797 169.191 143.623 169.153 143.414C169.073 142.972 168.783 142.797 168.283 142.887L167.551 143.02L167.791 144.339L168.523 144.207ZM173.62 144.92L174.053 142.146L174.756 142.018L174.117 145.442L173.327 145.586L171.531 142.604L172.24 142.475L173.62 144.92ZM178.468 142.917C178.49 143.037 178.502 143.147 178.504 143.247L176.057 143.691C176.123 143.943 176.255 144.131 176.454 144.255C176.652 144.379 176.876 144.419 177.124 144.374C177.48 144.309 177.705 144.114 177.798 143.789L178.513 143.66C178.469 143.972 178.337 144.246 178.116 144.482C177.898 144.714 177.601 144.864 177.225 144.932C176.919 144.987 176.631 144.97 176.363 144.878C176.097 144.782 175.872 144.623 175.688 144.4C175.506 144.173 175.386 143.895 175.326 143.566C175.266 143.236 175.28 142.936 175.366 142.664C175.456 142.387 175.609 142.16 175.825 141.98C176.044 141.801 176.311 141.682 176.625 141.625C176.927 141.57 177.208 141.587 177.468 141.676C177.728 141.765 177.946 141.917 178.122 142.134C178.296 142.346 178.412 142.607 178.468 142.917ZM177.738 142.834C177.69 142.59 177.568 142.41 177.37 142.294C177.173 142.178 176.949 142.143 176.697 142.188C176.468 142.23 176.286 142.339 176.15 142.516C176.013 142.689 175.952 142.902 175.966 143.155L177.738 142.834ZM179.59 141.621C179.658 141.441 179.763 141.291 179.905 141.174C180.051 141.051 180.235 140.97 180.455 140.93L180.58 141.615L180.411 141.646C180.152 141.693 179.966 141.795 179.855 141.951C179.747 142.107 179.722 142.347 179.781 142.673L180.087 144.358L179.425 144.478L178.844 141.276L179.506 141.156L179.59 141.621ZM181.334 140.386C181.214 140.408 181.106 140.385 181.01 140.319C180.913 140.252 180.855 140.159 180.833 140.039C180.811 139.919 180.833 139.81 180.9 139.714C180.966 139.618 181.06 139.559 181.18 139.537C181.296 139.516 181.402 139.539 181.498 139.606C181.595 139.672 181.654 139.766 181.675 139.886C181.697 140.006 181.675 140.114 181.608 140.21C181.542 140.306 181.45 140.365 181.334 140.386ZM181.736 140.751L182.318 143.953L181.655 144.073L181.074 140.871L181.736 140.751ZM184.047 140.89L183.454 140.998L183.937 143.659L183.269 143.78L182.786 141.119L182.408 141.187L182.31 140.647L182.688 140.578L182.646 140.352C182.58 139.984 182.628 139.699 182.791 139.497C182.958 139.291 183.251 139.149 183.669 139.074L183.769 139.626C183.568 139.662 183.433 139.727 183.366 139.819C183.298 139.907 183.281 140.044 183.315 140.23L183.356 140.457L183.949 140.349L184.047 140.89ZM184.796 139.757C184.676 139.779 184.568 139.757 184.472 139.69C184.375 139.624 184.316 139.53 184.295 139.41C184.273 139.29 184.295 139.182 184.362 139.086C184.428 138.99 184.522 138.931 184.642 138.909C184.758 138.888 184.864 138.911 184.96 138.977C185.057 139.044 185.115 139.137 185.137 139.257C185.159 139.377 185.137 139.485 185.07 139.582C185.004 139.678 184.912 139.736 184.796 139.757ZM185.198 140.123L185.78 143.325L185.117 143.445L184.536 140.243L185.198 140.123ZM186.137 141.603C186.078 141.274 186.091 140.973 186.178 140.701C186.268 140.425 186.419 140.197 186.63 140.019C186.842 139.84 187.101 139.723 187.407 139.668C187.794 139.597 188.131 139.632 188.416 139.772C188.705 139.908 188.925 140.138 189.076 140.463L188.361 140.593C188.274 140.445 188.159 140.337 188.015 140.272C187.871 140.206 187.702 140.19 187.508 140.225C187.237 140.275 187.038 140.411 186.91 140.634C186.786 140.853 186.755 141.135 186.817 141.479C186.88 141.824 187.008 142.079 187.202 142.244C187.4 142.408 187.635 142.466 187.906 142.416C188.29 142.347 188.513 142.132 188.575 141.773L189.29 141.643C189.256 141.985 189.129 142.276 188.909 142.516C188.687 142.753 188.387 142.905 188.007 142.974C187.701 143.03 187.418 143.011 187.157 142.919C186.895 142.822 186.674 142.662 186.493 142.439C186.316 142.211 186.197 141.932 186.137 141.603ZM189.62 140.959C189.562 140.637 189.576 140.34 189.662 140.068C189.753 139.796 189.9 139.571 190.104 139.394C190.311 139.212 190.554 139.096 190.833 139.045C191.085 139 191.313 139.01 191.518 139.077C191.725 139.14 191.898 139.234 192.037 139.361L191.953 138.896L192.621 138.775L193.203 141.977L192.534 142.098L192.448 141.622C192.363 141.793 192.233 141.947 192.057 142.083C191.882 142.219 191.67 142.309 191.422 142.354C191.147 142.404 190.883 142.38 190.629 142.282C190.374 142.18 190.156 142.016 189.975 141.789C189.797 141.557 189.678 141.28 189.62 140.959ZM192.243 140.494C192.203 140.274 192.122 140.09 191.999 139.944C191.88 139.798 191.74 139.695 191.577 139.637C191.414 139.578 191.248 139.565 191.077 139.595C190.907 139.626 190.756 139.698 190.624 139.81C190.492 139.918 190.394 140.062 190.33 140.241C190.27 140.416 190.26 140.614 190.3 140.835C190.34 141.056 190.42 141.242 190.539 141.392C190.662 141.542 190.806 141.648 190.969 141.71C191.136 141.768 191.302 141.782 191.469 141.752C191.639 141.721 191.79 141.649 191.922 141.537C192.054 141.425 192.15 141.28 192.209 141.101C192.272 140.917 192.283 140.715 192.243 140.494ZM194.362 139.017L194.684 140.79C194.706 140.91 194.749 140.992 194.813 141.036C194.88 141.076 194.982 141.084 195.117 141.059L195.524 140.985L195.624 141.537L195.101 141.632C194.803 141.686 194.562 141.658 194.378 141.548C194.193 141.437 194.073 141.225 194.016 140.911L193.694 139.138L193.316 139.207L193.218 138.667L193.596 138.598L193.451 137.802L194.12 137.68L194.264 138.477L195.043 138.335L195.141 138.876L194.362 139.017ZM195.914 137.739C195.794 137.761 195.686 137.738 195.589 137.672C195.493 137.605 195.434 137.512 195.412 137.392C195.391 137.272 195.413 137.164 195.48 137.067C195.546 136.971 195.64 136.912 195.76 136.89C195.876 136.869 195.982 136.892 196.078 136.959C196.174 137.025 196.233 137.119 196.255 137.239C196.277 137.359 196.255 137.467 196.188 137.563C196.121 137.659 196.03 137.718 195.914 137.739ZM196.316 138.104L196.898 141.306L196.235 141.426L195.654 138.224L196.316 138.104ZM199.166 140.948C198.864 141.003 198.578 140.985 198.309 140.894C198.04 140.799 197.813 140.64 197.629 140.417C197.443 140.191 197.321 139.913 197.261 139.583C197.202 139.258 197.221 138.956 197.319 138.678C197.417 138.401 197.577 138.171 197.8 137.991C198.024 137.81 198.288 137.692 198.595 137.636C198.901 137.581 199.19 137.598 199.462 137.689C199.735 137.78 199.966 137.938 200.155 138.164C200.344 138.389 200.468 138.665 200.527 138.99C200.586 139.316 200.565 139.618 200.464 139.896C200.362 140.175 200.196 140.407 199.966 140.593C199.739 140.774 199.472 140.893 199.166 140.948ZM199.061 140.373C199.232 140.342 199.383 140.273 199.516 140.165C199.652 140.056 199.752 139.912 199.815 139.732C199.879 139.552 199.889 139.346 199.847 139.114C199.805 138.881 199.725 138.694 199.607 138.551C199.488 138.405 199.348 138.304 199.186 138.249C199.024 138.195 198.858 138.183 198.687 138.214C198.517 138.245 198.365 138.314 198.233 138.422C198.104 138.53 198.012 138.673 197.957 138.851C197.9 139.025 197.893 139.229 197.935 139.461C197.998 139.806 198.134 140.057 198.342 140.215C198.554 140.369 198.794 140.422 199.061 140.373ZM202.498 136.928C202.75 136.882 202.984 136.894 203.201 136.962C203.421 137.03 203.606 137.157 203.756 137.342C203.905 137.527 204.007 137.764 204.059 138.055L204.402 139.944L203.746 140.063L203.421 138.273C203.369 137.986 203.257 137.78 203.086 137.655C202.915 137.526 202.705 137.484 202.457 137.529C202.209 137.574 202.026 137.688 201.907 137.87C201.791 138.047 201.759 138.279 201.811 138.565L202.136 140.355L201.473 140.475L200.892 137.273L201.554 137.153L201.621 137.519C201.706 137.368 201.824 137.24 201.978 137.136C202.135 137.032 202.308 136.962 202.498 136.928ZM206.245 137.952C206.185 137.623 206.199 137.322 206.285 137.051C206.375 136.774 206.526 136.547 206.738 136.368C206.949 136.19 207.208 136.073 207.514 136.017C207.902 135.947 208.238 135.982 208.524 136.122C208.813 136.258 209.033 136.488 209.184 136.813L208.469 136.942C208.382 136.794 208.266 136.687 208.122 136.621C207.978 136.555 207.809 136.54 207.616 136.575C207.345 136.624 207.145 136.76 207.018 136.984C206.893 137.202 206.862 137.484 206.925 137.829C206.988 138.174 207.116 138.429 207.31 138.593C207.508 138.758 207.742 138.815 208.013 138.766C208.397 138.696 208.62 138.482 208.683 138.122L209.398 137.992C209.364 138.335 209.237 138.626 209.016 138.866C208.795 139.102 208.494 139.255 208.115 139.324C207.809 139.379 207.525 139.361 207.264 139.268C207.003 139.171 206.781 139.012 206.601 138.788C206.423 138.56 206.305 138.282 206.245 137.952ZM211.64 138.684C211.338 138.739 211.052 138.72 210.784 138.629C210.514 138.534 210.287 138.375 210.103 138.152C209.918 137.926 209.795 137.648 209.735 137.319C209.676 136.993 209.696 136.692 209.793 136.414C209.891 136.136 210.051 135.907 210.275 135.726C210.498 135.545 210.763 135.427 211.069 135.372C211.375 135.316 211.664 135.334 211.937 135.424C212.209 135.515 212.44 135.673 212.629 135.899C212.818 136.125 212.942 136.4 213.001 136.726C213.061 137.051 213.039 137.353 212.938 137.632C212.836 137.91 212.67 138.143 212.44 138.328C212.213 138.51 211.946 138.628 211.64 138.684ZM211.536 138.108C211.706 138.077 211.858 138.008 211.99 137.9C212.126 137.791 212.226 137.647 212.29 137.467C212.353 137.288 212.364 137.082 212.321 136.849C212.279 136.617 212.199 136.429 212.081 136.286C211.963 136.14 211.822 136.039 211.66 135.985C211.498 135.93 211.332 135.918 211.162 135.949C210.991 135.98 210.84 136.05 210.707 136.158C210.579 136.265 210.487 136.408 210.431 136.586C210.374 136.76 210.367 136.964 210.41 137.196C210.472 137.541 210.608 137.793 210.817 137.951C211.029 138.104 211.268 138.157 211.536 138.108ZM213.433 136.635C213.375 136.314 213.389 136.017 213.476 135.745C213.566 135.473 213.714 135.248 213.918 135.071C214.125 134.889 214.37 134.772 214.653 134.721C214.862 134.683 215.076 134.692 215.294 134.749C215.516 134.801 215.7 134.891 215.848 135.02L215.567 133.475L216.235 133.353L217.016 137.654L216.348 137.775L216.26 137.293C216.18 137.467 216.052 137.623 215.876 137.759C215.705 137.894 215.495 137.984 215.247 138.029C214.968 138.079 214.7 138.056 214.442 137.959C214.188 137.857 213.97 137.693 213.788 137.465C213.61 137.234 213.492 136.957 213.433 136.635ZM216.057 136.171C216.016 135.95 215.935 135.767 215.813 135.621C215.694 135.475 215.553 135.372 215.391 135.313C215.228 135.255 215.061 135.241 214.891 135.272C214.72 135.303 214.569 135.375 214.437 135.487C214.305 135.595 214.207 135.738 214.144 135.918C214.083 136.093 214.073 136.291 214.113 136.512C214.153 136.733 214.233 136.918 214.353 137.069C214.476 137.218 214.619 137.324 214.782 137.387C214.949 137.445 215.116 137.458 215.282 137.428C215.453 137.397 215.604 137.326 215.736 137.214C215.867 137.102 215.963 136.956 216.023 136.778C216.085 136.594 216.097 136.392 216.057 136.171ZM220.516 135.283C220.538 135.403 220.55 135.513 220.552 135.613L218.105 136.057C218.171 136.309 218.303 136.498 218.502 136.622C218.7 136.746 218.924 136.785 219.172 136.74C219.528 136.675 219.753 136.48 219.846 136.155L220.561 136.026C220.517 136.338 220.385 136.612 220.164 136.848C219.946 137.08 219.649 137.23 219.273 137.298C218.967 137.354 218.68 137.336 218.411 137.244C218.145 137.149 217.92 136.989 217.736 136.767C217.555 136.539 217.434 136.261 217.374 135.932C217.314 135.603 217.328 135.302 217.415 135.03C217.504 134.754 217.657 134.526 217.873 134.347C218.092 134.167 218.359 134.048 218.673 133.991C218.975 133.936 219.256 133.953 219.516 134.042C219.777 134.131 219.994 134.284 220.17 134.5C220.344 134.712 220.46 134.973 220.516 135.283ZM219.787 135.2C219.738 134.956 219.616 134.777 219.418 134.66C219.221 134.544 218.997 134.509 218.745 134.554C218.516 134.596 218.334 134.705 218.198 134.882C218.061 135.055 218 135.268 218.014 135.522L219.787 135.2Z" fill="black"/>
<path d="M191.828 189.15L189.986 179.003L191.531 178.723L193.135 187.555L195.089 187.2L195.328 188.514L191.828 189.15ZM198.223 188.096C197.808 188.171 197.449 188.171 197.145 188.095C196.841 188.015 196.584 187.869 196.375 187.657C196.169 187.441 195.998 187.164 195.861 186.827C195.728 186.486 195.62 186.091 195.539 185.641L194.951 182.407C194.853 181.865 194.835 181.374 194.898 180.934C194.964 180.489 195.135 180.121 195.412 179.828C195.687 179.532 196.089 179.336 196.615 179.241C197.015 179.168 197.363 179.174 197.661 179.259C197.962 179.343 198.218 179.495 198.428 179.715C198.642 179.93 198.818 180.2 198.956 180.524C199.095 180.849 199.201 181.215 199.275 181.622L199.862 184.856C199.943 185.298 199.98 185.7 199.974 186.063C199.972 186.424 199.912 186.745 199.792 187.025C199.675 187.3 199.49 187.528 199.237 187.709C198.984 187.89 198.646 188.019 198.223 188.096ZM197.999 186.862C198.172 186.831 198.294 186.755 198.363 186.635C198.432 186.511 198.465 186.353 198.461 186.159C198.458 185.965 198.434 185.745 198.389 185.499L197.686 181.631C197.639 181.369 197.581 181.147 197.512 180.965C197.443 180.783 197.355 180.649 197.248 180.561C197.141 180.473 197.004 180.444 196.839 180.474C196.666 180.506 196.543 180.582 196.47 180.702C196.4 180.822 196.365 180.979 196.365 181.174C196.368 181.368 196.394 181.595 196.441 181.857L197.144 185.725C197.188 185.971 197.243 186.185 197.308 186.368C197.377 186.55 197.465 186.687 197.573 186.779C197.684 186.866 197.826 186.893 197.999 186.862ZM203.934 188.291C203.459 188.385 203.045 188.413 202.693 188.374C202.341 188.338 202.008 188.234 201.695 188.061L202.056 187.001C202.284 187.094 202.524 187.16 202.777 187.197C203.034 187.238 203.303 187.231 203.583 187.176C203.874 187.119 204.079 186.977 204.196 186.749C204.314 186.521 204.342 186.24 204.281 185.906L204.157 185.22C204.109 185.526 203.991 185.752 203.803 185.897C203.619 186.042 203.381 186.141 203.089 186.194C202.681 186.268 202.341 186.218 202.067 186.046C201.798 185.872 201.581 185.608 201.417 185.253C201.253 184.897 201.129 184.483 201.043 184.01L200.537 181.226C200.446 180.722 200.414 180.266 200.443 179.855C200.471 179.441 200.585 179.099 200.786 178.828C200.987 178.558 201.299 178.386 201.723 178.313C202.019 178.259 202.277 178.29 202.496 178.405C202.719 178.519 202.895 178.709 203.023 178.976L202.883 178.209L204.411 177.932L205.788 185.513C205.85 185.855 205.869 186.177 205.844 186.479C205.819 186.778 205.737 187.047 205.598 187.286C205.459 187.53 205.255 187.736 204.984 187.904C204.713 188.076 204.363 188.205 203.934 188.291ZM203.484 184.925C203.622 184.9 203.728 184.839 203.802 184.742C203.875 184.641 203.914 184.487 203.92 184.28C203.926 184.068 203.895 183.782 203.83 183.421L203.316 180.59C203.247 180.21 203.145 179.915 203.012 179.705C202.879 179.495 202.691 179.411 202.449 179.455C202.264 179.489 202.137 179.568 202.069 179.691C202 179.815 201.969 179.973 201.976 180.167C201.983 180.356 202.008 180.572 202.052 180.814L202.569 183.662C202.647 184.088 202.749 184.419 202.875 184.654C203 184.886 203.203 184.976 203.484 184.925ZM194.711 204.888L193.14 196.241L194.668 195.963L196.238 204.611L194.711 204.888ZM192.99 195.446L192.749 194.12L194.288 193.841L194.529 195.166L192.99 195.446ZM197.783 204.33L196.213 195.683L197.741 195.405L197.921 196.397C197.944 196.087 198.059 195.802 198.266 195.542C198.472 195.278 198.754 195.114 199.111 195.049C199.611 194.958 200.016 195.057 200.326 195.346C200.636 195.631 200.848 196.089 200.963 196.719L202.2 203.528L200.672 203.805L199.452 197.089C199.407 196.839 199.313 196.654 199.172 196.533C199.035 196.411 198.868 196.367 198.672 196.403C198.515 196.432 198.388 196.5 198.293 196.609C198.201 196.713 198.141 196.847 198.116 197.01C198.089 197.17 198.094 197.352 198.131 197.555L199.311 204.053L197.783 204.33Z" fill="#F2FFFF"/>
<path d="M184.333 160.789L181.991 161.214L182.244 162.605C182.318 162.457 182.443 162.321 182.618 162.198C182.797 162.074 182.997 161.992 183.216 161.952C183.607 161.881 183.94 161.908 184.212 162.031C184.49 162.154 184.703 162.335 184.852 162.572C185.006 162.809 185.109 163.07 185.16 163.354C185.223 163.699 185.211 164.019 185.125 164.314C185.043 164.603 184.883 164.849 184.645 165.051C184.412 165.252 184.104 165.387 183.722 165.457C183.214 165.549 182.783 165.497 182.43 165.301C182.077 165.106 181.832 164.806 181.696 164.402L182.472 164.261C182.563 164.471 182.709 164.625 182.91 164.723C183.11 164.817 183.343 164.84 183.609 164.791C183.939 164.731 184.168 164.586 184.295 164.356C184.426 164.125 184.462 163.844 184.402 163.514C184.341 163.178 184.211 162.937 184.011 162.79C183.81 162.639 183.546 162.593 183.22 162.652C182.992 162.694 182.809 162.787 182.672 162.932C182.538 163.072 182.454 163.246 182.42 163.455L181.665 163.592L181.13 160.648L184.206 160.09L184.333 160.789ZM188.798 159.978L186.456 160.404L186.709 161.795C186.783 161.647 186.908 161.511 187.083 161.388C187.262 161.263 187.462 161.182 187.681 161.142C188.072 161.071 188.404 161.097 188.677 161.221C188.955 161.344 189.168 161.524 189.317 161.762C189.471 161.999 189.574 162.259 189.625 162.544C189.688 162.888 189.676 163.208 189.59 163.503C189.508 163.793 189.348 164.038 189.11 164.24C188.877 164.441 188.569 164.577 188.187 164.646C187.679 164.738 187.248 164.687 186.895 164.491C186.542 164.295 186.297 163.995 186.161 163.591L186.937 163.45C187.028 163.66 187.174 163.814 187.375 163.913C187.575 164.006 187.808 164.029 188.073 163.981C188.404 163.921 188.633 163.776 188.76 163.546C188.891 163.315 188.927 163.034 188.867 162.703C188.806 162.367 188.676 162.126 188.476 161.98C188.275 161.828 188.011 161.782 187.685 161.841C187.457 161.883 187.274 161.976 187.137 162.122C187.003 162.261 186.919 162.435 186.885 162.644L186.13 162.781L185.595 159.838L188.671 159.279L188.798 159.978ZM193.263 159.168L190.921 159.593L191.174 160.984C191.248 160.836 191.373 160.7 191.548 160.577C191.727 160.453 191.927 160.371 192.146 160.331C192.537 160.26 192.869 160.286 193.142 160.41C193.42 160.533 193.633 160.713 193.782 160.951C193.936 161.188 194.038 161.449 194.09 161.733C194.153 162.078 194.141 162.398 194.055 162.693C193.973 162.982 193.813 163.228 193.575 163.43C193.342 163.631 193.034 163.766 192.652 163.836C192.144 163.928 191.713 163.876 191.36 163.68C191.007 163.484 190.762 163.184 190.626 162.781L191.402 162.64C191.493 162.85 191.639 163.004 191.84 163.102C192.04 163.196 192.273 163.218 192.538 163.17C192.869 163.11 193.098 162.965 193.225 162.735C193.356 162.504 193.392 162.223 193.332 161.892C193.271 161.557 193.141 161.316 192.941 161.169C192.74 161.018 192.476 160.972 192.15 161.031C191.922 161.072 191.739 161.166 191.602 161.311C191.468 161.451 191.384 161.625 191.35 161.833L190.595 161.97L190.06 159.027L193.136 158.469L193.263 159.168ZM197.728 158.357L195.386 158.782L195.639 160.174C195.713 160.025 195.838 159.89 196.013 159.766C196.192 159.642 196.392 159.56 196.611 159.521C197.002 159.449 197.334 159.476 197.607 159.6C197.885 159.723 198.098 159.903 198.247 160.141C198.401 160.377 198.503 160.638 198.555 160.922C198.618 161.267 198.606 161.587 198.52 161.882C198.438 162.171 198.278 162.417 198.04 162.619C197.807 162.82 197.499 162.956 197.117 163.025C196.609 163.117 196.178 163.065 195.825 162.869C195.472 162.674 195.227 162.374 195.091 161.97L195.867 161.829C195.958 162.039 196.104 162.193 196.305 162.291C196.505 162.385 196.738 162.408 197.003 162.359C197.334 162.299 197.563 162.154 197.69 161.924C197.821 161.693 197.857 161.413 197.797 161.082C197.736 160.746 197.605 160.505 197.406 160.358C197.205 160.207 196.941 160.161 196.615 160.22C196.387 160.262 196.204 160.355 196.066 160.5C195.933 160.64 195.849 160.814 195.815 161.023L195.06 161.16L194.525 158.217L197.601 157.658L197.728 158.357ZM202.193 157.547L199.851 157.972L200.104 159.363C200.178 159.215 200.303 159.079 200.478 158.956C200.657 158.832 200.857 158.75 201.076 158.71C201.467 158.639 201.799 158.665 202.072 158.789C202.35 158.912 202.563 159.092 202.712 159.33C202.866 159.567 202.968 159.827 203.02 160.112C203.083 160.457 203.071 160.776 202.985 161.071C202.903 161.361 202.743 161.606 202.505 161.808C202.272 162.01 201.964 162.145 201.582 162.214C201.074 162.307 200.643 162.255 200.29 162.059C199.937 161.863 199.692 161.563 199.556 161.159L200.332 161.019C200.423 161.228 200.569 161.382 200.77 161.481C200.97 161.574 201.203 161.597 201.468 161.549C201.799 161.489 202.028 161.344 202.155 161.114C202.286 160.883 202.322 160.602 202.262 160.271C202.201 159.935 202.07 159.694 201.871 159.548C201.67 159.396 201.406 159.35 201.08 159.41C200.852 159.451 200.669 159.544 200.531 159.69C200.398 159.83 200.314 160.004 200.28 160.212L199.525 160.349L198.99 157.406L202.066 156.847L202.193 157.547ZM206.658 156.736L204.316 157.161L204.569 158.552C204.643 158.404 204.768 158.268 204.943 158.145C205.122 158.021 205.322 157.939 205.541 157.899C205.932 157.828 206.264 157.855 206.537 157.978C206.815 158.101 207.028 158.282 207.177 158.519C207.331 158.756 207.433 159.017 207.485 159.301C207.548 159.646 207.536 159.966 207.45 160.261C207.368 160.55 207.208 160.796 206.97 160.998C206.737 161.199 206.429 161.334 206.047 161.404C205.539 161.496 205.108 161.444 204.755 161.248C204.402 161.052 204.157 160.753 204.021 160.349L204.797 160.208C204.888 160.418 205.034 160.572 205.235 160.67C205.435 160.764 205.668 160.786 205.933 160.738C206.264 160.678 206.493 160.533 206.62 160.303C206.751 160.072 206.787 159.791 206.727 159.46C206.666 159.125 206.535 158.884 206.335 158.737C206.135 158.586 205.871 158.54 205.545 158.599C205.317 158.64 205.134 158.734 204.996 158.879C204.863 159.019 204.779 159.193 204.745 159.401L203.99 159.539L203.455 156.595L206.531 156.037L206.658 156.736Z" fill="black"/>
<path d="M184.487 80.9552C185.401 82.2427 185.844 83.4971 185.479 83.7569C185.112 84.0167 184.075 83.1833 183.161 81.8958C182.248 80.6083 181.804 79.3539 182.169 79.0941C182.536 78.8343 183.574 79.6677 184.487 80.9552Z" fill="#091A50"/>
<path d="M180.403 82.0427C174.079 85.0157 166.685 82.8055 162.929 77.2351C162.099 76.0052 162.007 74.4456 162.486 73.0415C162.922 71.7612 162.601 70.3398 161.649 69.3711L153.898 61.4812C153.541 61.1178 152.947 61.5215 153.153 61.9864L155.335 66.9285L159.244 75.7814C162.869 83.9908 172.361 88.1024 180.675 84.7228C182.135 84.129 183.458 83.3482 184.637 82.4241C184.114 81.7425 183.554 81.0905 182.954 80.4752C182.178 81.079 181.329 81.608 180.403 82.0427Z" fill="#091A50"/>
<path d="M100.526 142.904L181.065 172.784C186.836 174.925 193.347 174.925 199.117 172.784L279.657 142.904V200.807H100.527L100.526 142.904Z" fill="#BDDDFF"/>
<path d="M179.907 182.2L103.434 239.201C103.412 239.182 103.383 239.163 103.362 239.138C101.613 237.678 100.526 235.612 100.526 233.325V142.273L177.331 180.905L179.907 182.2Z" fill="#6ABFD2"/>
<path d="M279.656 142.273V233.325C279.656 235.612 278.569 237.678 276.821 239.138C276.799 239.163 276.77 239.182 276.749 239.201L200.275 182.2L202.851 180.905L279.656 142.273Z" fill="#6ABFD2"/>
<path d="M279.656 142.904V233.956C279.656 236.244 278.569 238.31 276.82 239.769C276.799 239.795 276.77 239.814 276.748 239.833L200.275 182.832L202.851 181.537L279.656 142.904Z" fill="#5F95DC"/>
<path d="M179.907 182.832L103.434 239.833C103.412 239.814 103.383 239.795 103.362 239.769C101.613 238.31 100.526 236.244 100.526 233.956V142.904L177.331 181.537L179.907 182.832Z" fill="#5F95DC"/>
<path d="M179.907 182.832L103.434 239.833C103.412 239.814 103.383 239.795 103.362 239.77L177.331 181.537L179.907 182.832Z" fill="#BDDDFF"/>
<path d="M276.82 239.77C276.799 239.795 276.77 239.814 276.748 239.833L200.275 182.832L202.851 181.537L276.82 239.77Z" fill="#BDDDFF"/>
<path d="M276.749 239.201C275.115 240.547 272.913 241.368 270.494 241.368H109.688C107.27 241.368 105.067 240.547 103.434 239.201L179.908 182.2C185.78 177.821 194.402 177.821 200.275 182.2L276.749 239.201Z" fill="#6ABFD2"/>
<path d="M276.749 239.833C275.115 241.179 272.913 242 270.494 242H109.688C107.27 242 105.067 241.179 103.434 239.833L179.908 182.832C185.78 178.453 194.402 178.453 200.275 182.832L276.749 239.833Z" fill="#8DB9F3"/>
<path d="M147.97 146.131C111.423 130.83 55.3261 87.6521 55.9659 68.159C56.3495 56.4632 95.4493 64.3893 122.498 72.1278" stroke="#091A50" stroke-width="1.0676" stroke-miterlimit="10" stroke-dasharray="3.2 3.2"/>
<path d="M144.587 143.597C110.602 124.275 61.3341 75.0913 64.8397 55.8339C66.2294 48.2003 83.114 50.978 101.819 56.8405" stroke="#091A50" stroke-width="1.0676" stroke-miterlimit="10" stroke-dasharray="3.2 3.2"/>
<path d="M239.04 194.684C275.585 179.383 331.684 136.205 331.044 116.711C330.715 106.693 301.983 111.071 276.748 117.396" stroke="#091A50" stroke-width="1.0676" stroke-miterlimit="10" stroke-dasharray="3.2 3.2"/>
<path d="M242.422 192.15C276.408 172.828 325.676 123.644 322.17 104.387C320.78 96.7529 303.897 99.5306 285.192 105.393" stroke="#091A50" stroke-width="1.0676" stroke-miterlimit="10" stroke-dasharray="3.2 3.2"/>
</svg>
