<svg width="380" height="242" viewBox="0 0 380 242" fill="none" xmlns="http://www.w3.org/2000/svg">
<path d="M316.792 17.3297C317.101 17.5446 348.904 30.4283 365.99 55.9999C383.075 81.5716 365.558 60.2587 348.767 46.6294C335.021 35.4706 305.651 20.9061 308.976 17.3297C312.301 13.7534 316.792 17.3297 316.792 17.3297Z" fill="#D1E3F9"/>
<path d="M351.222 209.409C351.222 209.409 390.804 163.061 376.411 99.1352C362.017 35.2093 285.73 19.4506 234.632 44.7063C183.535 69.962 111.566 77.7592 84.9376 27.4184C58.3092 -22.9224 -42.447 85.9987 20.1658 209.409H351.222Z" fill="#E0EDFD"/>
<path d="M48.3343 209.063C48.3343 209.063 17.1503 144.272 74.3798 120.943C131.609 97.6147 78.9354 185.931 137.115 182.55C159.749 181.236 202.693 154.773 189.782 94.6386C182.095 58.8434 272.409 80.1879 287.465 209.07H48.3343V209.063Z" fill="white"/>
<path d="M373.892 73.5658C373.892 73.5658 376.288 80.1499 378.332 81.4136C380.376 82.6774 380.729 78.7787 378.332 74.9875C375.936 71.1963 372.69 70.6529 373.892 73.5658Z" fill="#B2E7FE"/>
<path d="M10.0901 154.786C10.0901 154.786 4.33264 128.285 10.0901 107.586C15.8476 86.8856 12.3931 113.923 12.4867 126.567C12.609 141.864 15.8476 174.664 10.0901 154.786Z" fill="white"/>
<path d="M12.9617 93.7351C12.9617 93.7351 13.0265 87.4164 14.8257 86.0453C16.6249 84.6741 15.5958 92.8126 14.8257 94.4238C13.9261 96.3131 12.861 95.637 12.9617 93.7351Z" fill="white"/>
<path d="M192.398 234.496C259.383 234.496 313.684 231.325 313.684 227.413C313.684 223.501 259.383 220.33 192.398 220.33C125.413 220.33 71.1116 223.501 71.1116 227.413C71.1116 231.325 125.413 234.496 192.398 234.496Z" fill="#F5F5F5"/>
<path d="M120.53 76.0579C119.696 77.3934 119.007 78.6751 118.291 80.0057C117.579 81.3231 116.934 82.6786 116.302 84.0442C115.058 86.786 113.944 89.6147 113.112 92.6336C113.001 93.0039 112.916 93.3967 112.823 93.7814L112.686 94.3601L112.618 94.6491L112.537 95.1257C112.358 96.3969 112.515 97.4334 112.732 98.3479C113.18 100.171 113.904 101.625 114.679 103.012C116.261 105.759 118.107 108.098 120.237 110.314L122.871 108.32C121.573 105.855 120.289 103.273 119.345 100.79C118.888 99.5552 118.503 98.2985 118.391 97.267C118.336 96.7597 118.373 96.3237 118.443 96.1617L118.69 95.3972C118.792 95.0832 118.884 94.7711 119.007 94.4545C119.909 91.9305 121.055 89.3951 122.303 86.8954C123.534 84.4051 124.898 81.8698 126.24 79.5034L120.53 76.0579Z" fill="#FF8B7B"/>
<path d="M122.203 107.425L125.074 108.95L121.773 112.815C121.773 112.815 119.712 111.421 119.618 109.292L122.203 107.425Z" fill="#FF8B7B"/>
<path d="M128.94 111.334L125.402 114.14L121.773 112.816L125.075 108.95L128.94 111.334Z" fill="#FF8B7B"/>
<path d="M141.022 55.5918C141.093 55.9396 141.335 56.1842 141.562 56.1379C141.789 56.0916 141.916 55.7726 141.846 55.4248C141.775 55.077 141.534 54.8324 141.306 54.8787C141.079 54.925 140.952 55.2446 141.022 55.5918Z" fill="#263238"/>
<path d="M141.303 56.1912C141.303 56.1912 142.501 58.0365 143.568 58.8278C143.07 59.5272 141.97 59.4771 141.97 59.4771L141.303 56.1912Z" fill="#FF5652"/>
<path d="M142.43 68.4619L142.403 64.3621L136.973 65.0183C136.973 65.0183 137.066 68.5438 140.098 69.5804L142.43 68.4619Z" fill="#FF8B7B"/>
<path d="M140.869 61.4094L137.046 62.5079L136.972 65.0182L142.403 64.362L140.869 61.4094Z" fill="#FF8B7B"/>
<path opacity="0.2" d="M137.044 62.5079L140.866 61.407L141.611 62.8332C141.517 65.2541 140.041 67.2433 138.083 68.1379C137.019 66.7429 136.976 65.0164 136.976 65.0164L137.044 62.5079Z" fill="black"/>
<path d="M139.356 53.9197C139.306 53.9197 139.255 53.9016 139.215 53.864C139.13 53.7858 139.125 53.6539 139.204 53.5694C139.986 52.7224 140.936 52.8732 140.977 52.8801C141.09 52.8994 141.167 53.007 141.147 53.1203C141.128 53.2335 141.019 53.3092 140.908 53.291C140.876 53.286 140.134 53.1772 139.509 53.8528C139.468 53.8972 139.412 53.9197 139.356 53.9197Z" fill="#263238"/>
<path d="M131.364 61.9216C131.995 65.1407 132.376 69.6002 130.124 71.7483C130.124 71.7483 131.004 75.0137 136.985 75.0137C143.562 75.0137 140.149 72.1481 140.149 72.1481C137.415 71.2998 137.439 68.1858 138.065 65.6843L131.364 61.9216Z" fill="#FF8B7B"/>
<path d="M128.892 73.9008C128.307 73.0713 128.33 70.4509 128.955 69.9886C129.965 69.2423 134.283 69.0709 140.1 70.4084C139.474 72.9468 140.815 74.2774 140.815 74.2774L128.892 73.9008Z" fill="#5F95DC"/>
<path d="M109.342 222.408C109.784 222.504 110.225 222.529 110.437 222.348C110.527 222.272 110.616 222.127 110.538 221.864C110.497 221.726 110.407 221.622 110.27 221.557C109.676 221.274 108.311 221.83 108.252 221.854C108.214 221.869 108.189 221.906 108.188 221.947C108.187 221.988 108.21 222.026 108.247 222.044C108.456 222.145 108.899 222.312 109.342 222.408ZM110.058 221.705C110.103 221.715 110.143 221.728 110.18 221.746C110.262 221.785 110.314 221.843 110.338 221.923C110.394 222.111 110.324 222.17 110.301 222.189C110.065 222.391 109.186 222.205 108.567 221.957C108.987 221.809 109.667 221.62 110.058 221.705Z" fill="#5F95DC"/>
<path d="M108.27 222.052C108.287 222.056 108.304 222.055 108.321 222.05C108.818 221.905 109.882 221.149 109.896 220.65C109.898 220.56 109.866 220.396 109.629 220.313C109.475 220.259 109.32 220.272 109.167 220.35C108.579 220.65 108.208 221.869 108.192 221.921C108.181 221.958 108.191 221.997 108.218 222.024C108.233 222.038 108.25 222.048 108.27 222.052ZM109.515 220.497C109.53 220.5 109.546 220.504 109.561 220.509C109.69 220.555 109.688 220.618 109.687 220.645C109.68 220.94 108.977 221.533 108.463 221.773C108.591 221.422 108.885 220.728 109.262 220.536C109.348 220.491 109.431 220.479 109.515 220.497Z" fill="#5F95DC"/>
<path d="M141.827 223.146C142.392 223.146 142.937 223.069 143.12 222.815C143.183 222.726 143.234 222.574 143.111 222.359C143.042 222.239 142.931 222.157 142.781 222.115C142.048 221.916 140.511 222.792 140.445 222.83C140.408 222.852 140.388 222.894 140.395 222.937C140.402 222.979 140.435 223.014 140.477 223.022C140.758 223.079 141.301 223.146 141.827 223.146ZM142.525 222.293C142.598 222.293 142.666 222.3 142.726 222.317C142.823 222.343 142.889 222.391 142.93 222.462C143.004 222.592 142.977 222.656 142.95 222.693C142.746 222.977 141.633 222.984 140.815 222.868C141.224 222.659 142.011 222.293 142.525 222.293Z" fill="#5F95DC"/>
<path d="M140.498 223.025C140.513 223.025 140.527 223.022 140.541 223.015C141.072 222.777 142.124 221.826 142.043 221.328C142.024 221.211 141.941 221.066 141.655 221.036C141.441 221.014 141.248 221.075 141.077 221.215C140.518 221.675 140.399 222.86 140.394 222.91C140.391 222.947 140.407 222.983 140.437 223.005C140.455 223.018 140.477 223.025 140.498 223.025ZM141.572 221.241C141.592 221.241 141.613 221.242 141.634 221.244C141.822 221.263 141.834 221.336 141.837 221.361C141.886 221.659 141.171 222.407 140.629 222.733C140.685 222.387 140.842 221.677 141.209 221.376C141.32 221.286 141.44 221.241 141.572 221.241Z" fill="#5F95DC"/>
<path d="M135.659 222.92H140.059L140.497 212.731H136.098L135.659 222.92Z" fill="#FF8B7B"/>
<path d="M103.366 220.884L107.666 221.814L111.983 212.324L107.683 211.393L103.366 220.884Z" fill="#FF8B7B"/>
<path d="M108.079 221.383L103.248 220.337C103.072 220.299 102.893 220.388 102.818 220.551L101.141 224.19C100.967 224.567 101.198 225.01 101.605 225.091C103.298 225.427 104.139 225.506 106.264 225.966C107.571 226.248 110.522 226.968 112.327 227.358C114.092 227.74 114.754 226.015 114.05 225.693C110.893 224.252 109.575 222.982 108.72 221.798C108.566 221.585 108.336 221.438 108.079 221.383Z" fill="#263238"/>
<path d="M140.031 222.411H135.226C135.046 222.411 134.891 222.536 134.851 222.711L133.982 226.622C133.892 227.028 134.2 227.412 134.615 227.405C136.349 227.375 138.853 227.274 141.032 227.274C143.579 227.274 145.779 227.412 148.766 227.412C150.573 227.412 151.074 225.586 150.318 225.421C146.875 224.667 144.066 224.587 141.091 222.753C140.767 222.554 140.41 222.411 140.031 222.411Z" fill="#263238"/>
<path d="M122.246 72.743C118.122 73.6882 114.722 84.2161 114.722 84.2161L123.003 90.5279C123.003 90.5279 126.042 87.6623 127.395 82.3964C128.813 76.8785 126.463 71.7765 122.246 72.743Z" fill="#5F95DC"/>
<path opacity="0.4" d="M122.246 72.743C118.122 73.6882 114.722 84.2161 114.722 84.2161L123.003 90.5279C123.003 90.5279 126.042 87.6623 127.395 82.3964C128.813 76.8785 126.463 71.7765 122.246 72.743Z" fill="#5F95DC"/>
<path d="M143.93 85.3071C144.959 86.4174 145.985 87.4051 147.048 88.4217C147.575 88.9271 148.115 89.4225 148.666 89.9086L149.496 90.6361L149.705 90.8169C149.807 90.9038 149.93 91.007 150.062 91.1077C150.337 91.311 150.639 91.5481 151.27 91.8215C151.605 91.9504 152.036 92.1211 152.792 92.1361C153.151 92.1418 153.639 92.0792 154.105 91.9028C154.581 91.7264 155.042 91.4211 155.357 91.1071C156.011 90.4497 156.209 89.8729 156.338 89.487C156.457 89.0891 156.492 88.8051 156.516 88.5568C156.556 88.0713 156.531 87.7429 156.504 87.4389C156.474 87.1387 156.433 86.8791 156.387 86.6338C156.204 85.6693 155.943 84.8911 155.661 84.1116C155.375 83.3403 155.059 82.5997 154.689 81.8509C154.292 81.054 153.908 80.476 153.526 79.8098C151.98 77.2263 150.166 74.8667 148.239 72.6429C146.27 70.4341 144.203 68.4148 141.827 66.5645L139.524 68.9334C141.142 71.0972 142.732 73.4161 144.201 75.7031C145.669 78.0069 147.031 80.3527 148.203 82.7379C148.474 83.3272 148.807 83.9728 148.995 84.4657C149.214 85.0043 149.416 85.5829 149.581 86.1528C149.745 86.7158 149.877 87.3026 149.937 87.7329C149.951 87.8368 149.957 87.9275 149.957 87.98C149.959 88.0282 149.947 88.0551 149.953 87.9218C149.959 87.8493 149.966 87.7411 150.034 87.5121C150.11 87.2944 150.229 86.8822 150.756 86.3492C151.01 86.0996 151.391 85.8382 151.787 85.6968C152.169 85.5473 152.568 85.5035 152.84 85.5047C153.419 85.5179 153.677 85.6361 153.848 85.6974C154.155 85.83 154.161 85.8657 154.158 85.8519L153.918 85.633L153.166 84.9449L151.671 83.5443C150.681 82.6116 149.685 81.617 148.745 80.6937L143.93 85.3071Z" fill="#FF8B7B"/>
<path opacity="0.2" d="M125.78 80.4849C123.54 82.7012 122.809 86.7378 122.636 90.2471L123.001 90.5286C123.001 90.5286 126.044 87.6599 127.397 82.3953C127.481 82.0662 127.553 81.7366 127.613 81.4132L125.78 80.4849Z" fill="black"/>
<path d="M148.306 77.1549C149.205 81.9085 149.768 91.6695 147.156 111H123.623C123.461 107.388 125.731 89.7647 122.246 72.743C122.246 72.743 126.28 71.9335 130.124 71.7483C133.131 71.6032 137.485 71.5075 140.128 71.749C141.232 71.8497 142.315 72.0092 143.28 72.18C145.825 72.6297 147.825 74.6159 148.306 77.1549Z" fill="#5F95DC"/>
<path opacity="0.4" d="M148.306 77.1549C149.205 81.9085 149.768 91.6695 147.156 111H123.623C123.461 107.388 125.731 89.7647 122.246 72.743C122.246 72.743 126.28 71.9335 130.124 71.7483C133.131 71.6032 137.485 71.5075 140.128 71.749C141.232 71.8497 142.315 72.0092 143.28 72.18C145.825 72.6297 147.825 74.6159 148.306 77.1549Z" fill="#5F95DC"/>
<path opacity="0.2" d="M144.704 84.1805L148.957 83.1621C149.089 85.7375 149.101 88.9296 148.908 92.8768C146.95 90.6486 144.453 87.175 144.704 84.1805Z" fill="black"/>
<path opacity="0.2" d="M140.497 212.734L140.272 217.986H135.87L136.095 212.734H140.497Z" fill="black"/>
<path opacity="0.2" d="M107.681 211.395L111.983 212.327L109.756 217.218L105.453 216.287L107.681 211.395Z" fill="black"/>
<path d="M129.273 57.2125C130.403 61.4305 130.85 63.9565 133.453 65.7105C137.368 68.3485 142.243 65.3208 142.395 60.85C142.532 56.8259 140.661 50.6042 136.135 49.7541C131.675 48.9171 128.142 52.9944 129.273 57.2125Z" fill="#FF8B7B"/>
<path d="M139.148 57.3745C139.357 56.809 140.332 52.4502 139.417 51.3186C138.502 50.187 128.088 51.0008 126.548 52.5165C123.993 55.0306 125.765 57.2744 128.562 60.1695C130.666 62.3464 130.746 64.8004 131.807 65.1601C133.666 65.7912 136.55 65.1982 137.128 63.2134C137.706 61.2291 139.148 57.3745 139.148 57.3745Z" fill="#263238"/>
<path d="M127.809 47.5585C131.49 45.9909 138.391 47.7249 142.118 46.8267C142.251 48.7565 141.087 51.851 137.36 52.683C137.36 52.683 132.07 53.7145 127.977 53.5481C123.884 53.3818 124.683 48.8897 127.809 47.5585Z" fill="#263238"/>
<path d="M127.233 52.65C127.233 52.65 124.957 52.9065 123.341 51.9031C122.65 53.5664 126.434 54.023 127.233 52.65Z" fill="#263238"/>
<path d="M137.142 57.5478C137.21 58.6894 137.74 59.7634 138.378 60.4666C139.337 61.5231 140.338 60.8657 140.508 59.5783C140.661 58.4198 140.346 56.4737 139.174 55.8913C138.018 55.3164 137.064 56.2422 137.142 57.5478Z" fill="#FF8B7B"/>
<path d="M138.808 111C138.808 111 133.815 144.625 131.073 157.222C128.071 171.018 111.975 216.658 111.975 216.658L104.099 214.953C104.099 214.953 115.354 177.759 117.874 158.473C119.809 143.659 123.623 111 123.623 111H138.808Z" fill="#37474F"/>
<path d="M113.861 214.029C113.895 214.036 112.393 216.877 112.393 216.877L103.531 214.958L104.278 212.294L113.861 214.029Z" fill="#263238"/>
<path opacity="0.3" d="M135.652 122.981C129.879 124.113 130.49 145.644 131.184 156.718C132.849 148.89 135.286 133.827 136.952 123.136C136.569 122.945 136.137 122.885 135.652 122.981Z" fill="black"/>
<path d="M147.156 111C147.156 111 147.762 143.898 147.284 157.315C146.786 171.272 141.911 216.969 141.911 216.969H134.458C134.458 216.969 134.184 172.087 133.853 158.38C133.491 143.438 131.687 111 131.687 111H147.156Z" fill="#37474F"/>
<path d="M143.345 214C143.38 214 142.925 217.095 142.925 217.095H133.858L133.613 214.333L143.345 214Z" fill="#263238"/>
<path d="M139.082 78.5981C136.972 84.2837 149.368 90.9808 149.368 90.9808L154.734 84.0823C154.734 84.0823 151.154 76.9573 146.76 73.7452C141.334 69.7773 140.689 74.27 139.082 78.5981Z" fill="#5F95DC"/>
<path opacity="0.4" d="M139.082 78.5981C136.972 84.2837 149.368 90.9808 149.368 90.9808L154.734 84.0823C154.734 84.0823 151.154 76.9573 146.76 73.7452C141.334 69.7773 140.689 74.27 139.082 78.5981Z" fill="#5F95DC"/>
<path d="M284.67 11H258.448L239.901 223H266.123C273.58 223 280.177 216.934 280.829 209.476L297.011 24.5238C297.663 17.0665 292.127 11 284.67 11Z" fill="#5F95DC"/>
<path d="M279.32 11H190.574C183.117 11 176.52 17.0665 175.867 24.5238L159.686 209.476C159.034 216.934 164.569 223 172.027 223H260.772C268.23 223 274.827 216.934 275.479 209.476L291.66 24.5238C292.313 17.0665 286.777 11 279.32 11Z" fill="#5F95DC"/>
<path opacity="0.3" d="M279.32 11H190.574C183.117 11 176.52 17.0665 175.867 24.5238L159.686 209.476C159.034 216.934 164.569 223 172.027 223H260.772C268.23 223 274.827 216.934 275.479 209.476L291.66 24.5238C292.313 17.0665 286.777 11 279.32 11Z" fill="white"/>
<path opacity="0.4" d="M278.94 15.3328H255.542C254.162 15.3328 252.866 16.2387 252.355 17.5611C250.463 22.4494 245.673 25.7971 240.57 25.7971H226.734C221.632 25.7971 217.426 22.4486 216.39 17.5611C216.11 16.2387 214.973 15.3336 213.592 15.3336H190.194C185.118 15.3336 180.644 19.448 180.2 24.5239L164.018 209.476C163.575 214.552 167.329 218.667 172.405 218.667H261.15C266.226 218.667 270.701 214.552 271.145 209.476L287.327 24.5239C287.77 19.448 284.016 15.3328 278.94 15.3328Z" fill="white"/>
<path d="M256.833 115.797H194.723C192.881 115.797 191.519 114.304 191.681 112.463L191.991 108.909C192.152 107.068 193.776 105.575 195.618 105.575H257.727C259.569 105.575 260.931 107.068 260.77 108.909L260.459 112.463C260.298 114.304 258.674 115.797 256.833 115.797Z" fill="white"/>
<path d="M255.491 131.131H193.381C191.539 131.131 190.178 129.638 190.339 127.797L190.65 124.243C190.811 122.401 192.434 120.909 194.276 120.909H256.386C258.227 120.909 259.589 122.402 259.428 124.243L259.117 127.797C258.956 129.638 257.333 131.131 255.491 131.131Z" fill="white"/>
<path opacity="0.1" d="M237.961 18.7971C237.782 20.8394 235.983 22.4943 233.94 22.4943C231.898 22.4943 230.388 20.8394 230.567 18.7971C230.746 16.7548 232.545 15.0999 234.588 15.0999C236.629 15.0999 238.14 16.7548 237.961 18.7971Z" fill="black"/>
<path opacity="0.1" d="M236.284 18.7971C236.187 19.9125 235.203 20.8168 234.087 20.8168C232.972 20.8168 232.146 19.9125 232.244 18.7971C232.341 17.6817 233.324 16.7773 234.441 16.7773C235.557 16.7773 236.381 17.6817 236.284 18.7971Z" fill="black"/>
<g opacity="0.8">
<path d="M268.015 24.9642C267.417 24.9642 266.974 24.4794 267.026 23.8811L267.199 21.9008C267.252 21.3024 267.779 20.8176 268.377 20.8176C268.976 20.8176 269.419 21.3024 269.366 21.9008L269.193 23.8811C269.141 24.4794 268.613 24.9642 268.015 24.9642Z" fill="white"/>
<path d="M276.682 24.9642C276.083 24.9642 275.641 24.4794 275.693 23.8811L276.1 19.2335C276.152 18.6352 276.679 18.1504 277.278 18.1504C277.876 18.1504 278.319 18.6352 278.267 19.2335L277.86 23.8811C277.808 24.4794 277.28 24.9642 276.682 24.9642Z" fill="white"/>
<path d="M272.348 24.9641C271.75 24.9641 271.307 24.4793 271.36 23.8809L271.649 20.567C271.702 19.9687 272.229 19.4839 272.828 19.4839C273.426 19.4839 273.869 19.9687 273.817 20.567L273.527 23.8809C273.474 24.4793 272.947 24.9641 272.348 24.9641Z" fill="white"/>
</g>
<g opacity="0.8">
<path d="M193.818 24.9641H188.378C188.039 24.9641 187.788 24.6895 187.818 24.3505L188.073 21.4296C188.103 21.0905 188.402 20.8159 188.74 20.8159H194.18C194.519 20.8159 194.77 21.0905 194.74 21.4296L194.485 24.3505C194.455 24.6895 194.157 24.9641 193.818 24.9641Z" fill="white"/>
<path d="M196.34 24.1717C196.001 24.1717 195.75 23.8971 195.78 23.5581L195.897 22.222C195.927 21.883 196.226 21.6084 196.564 21.6084C196.903 21.6084 197.153 21.883 197.124 22.222L197.007 23.5581C196.978 23.8971 196.679 24.1717 196.34 24.1717Z" fill="white"/>
</g>
<path d="M246.609 92.4374C257.445 82.0642 258.525 65.6056 249.021 55.6762C239.516 45.7467 223.026 46.1065 212.189 56.4798C201.352 66.853 200.272 83.3116 209.777 93.241C219.282 103.17 235.772 102.811 246.609 92.4374Z" fill="white"/>
<path d="M229.482 73.4541C222.649 73.4541 216.881 76.0537 216.388 81.703L215.839 87.9724H240.586L241.134 81.703C241.628 76.0537 236.316 73.4541 229.482 73.4541Z" fill="#5F95DC"/>
<path d="M229.709 70.8723C232.88 70.8723 234.343 68.3017 234.62 65.1304C234.897 61.959 233.884 59.3884 230.713 59.3884C227.542 59.3884 226.079 61.959 225.801 65.1304C225.524 68.3017 226.537 70.8723 229.709 70.8723Z" fill="#5F95DC"/>
<path d="M253.998 110.503C252.31 110.503 250.885 111.145 250.763 112.54L250.628 114.089H256.741L256.876 112.54C256.997 111.145 255.686 110.503 253.998 110.503Z" fill="#5F95DC"/>
<path d="M254.053 109.865C254.837 109.865 255.198 109.23 255.266 108.447C255.335 107.663 255.085 107.029 254.301 107.029C253.518 107.029 253.157 107.664 253.089 108.447C253.02 109.231 253.271 109.865 254.053 109.865Z" fill="#5F95DC"/>
<path d="M235.178 146.464H211.011C208.189 146.464 206.101 144.176 206.348 141.353C206.595 138.53 209.083 136.241 211.906 136.241H236.073C238.896 136.241 240.984 138.53 240.737 141.353C240.489 144.176 238.001 146.464 235.178 146.464Z" fill="#5F95DC"/>
<path d="M232.263 203.465H206.398C203.416 203.465 201.209 201.046 201.47 198.063L203.12 179.199C203.381 176.216 206.01 173.797 208.993 173.797H234.858C237.841 173.797 240.047 176.216 239.786 179.199L238.136 198.063C237.875 201.046 235.246 203.465 232.263 203.465Z" fill="#5F95DC"/>
<g opacity="0.6">
<path d="M224.286 183.964C224.443 182.169 223.115 180.713 221.32 180.713C219.525 180.713 217.943 182.169 217.786 183.964C217.692 185.032 218.133 185.973 218.878 186.565L218.309 193.061C218.216 194.127 219.004 194.991 220.07 194.991C221.137 194.991 222.076 194.127 222.17 193.061L222.738 186.565C223.588 185.973 224.193 185.033 224.286 183.964Z" fill="white"/>
</g>
<path d="M235.087 177.724H231.754L232.571 168.391C233.061 162.781 228.898 158.218 223.289 158.218C217.68 158.218 212.717 162.781 212.227 168.391L211.41 177.724H208.077L208.894 168.391C209.545 160.944 216.133 154.885 223.58 154.885C231.027 154.885 236.555 160.944 235.904 168.391L235.087 177.724Z" fill="#5F95DC"/>
<path d="M254.407 124.797L254.485 123.902C254.565 122.986 253.886 122.242 252.97 122.242C252.054 122.242 251.245 122.987 251.165 123.902L251.087 124.797C250.722 124.797 250.399 125.094 250.368 125.459L250.159 127.84C250.127 128.206 250.398 128.502 250.763 128.502H254.081C254.447 128.502 254.769 128.206 254.801 127.84L255.01 125.459C255.042 125.094 254.772 124.797 254.407 124.797ZM252.935 122.651C253.624 122.651 254.135 123.212 254.076 123.901L253.998 124.797H251.497L251.575 123.901C251.636 123.212 252.245 122.651 252.935 122.651Z" fill="#5F95DC"/>
<path d="M204.458 125.751L203.3 125.512C203.163 125.484 203.092 125.34 203.149 125.204L203.631 124.064C203.735 123.819 203.437 123.638 203.25 123.832L202.374 124.734C202.27 124.841 202.104 124.841 202.019 124.734L201.302 123.832C201.148 123.639 200.818 123.819 200.879 124.064L201.162 125.204C201.195 125.34 201.1 125.484 200.957 125.512L199.757 125.751C199.499 125.803 199.468 126.164 199.717 126.216L200.875 126.455C201.012 126.483 201.083 126.627 201.025 126.763L200.543 127.903C200.439 128.148 200.737 128.329 200.925 128.135L201.8 127.233C201.904 127.126 202.071 127.126 202.155 127.233L202.873 128.135C203.027 128.329 203.356 128.148 203.296 127.903L203.013 126.763C202.979 126.627 203.075 126.483 203.218 126.455L204.417 126.216C204.675 126.164 204.707 125.802 204.458 125.751Z" fill="#263238"/>
<path d="M212.078 125.751L210.92 125.512C210.784 125.484 210.713 125.34 210.77 125.204L211.252 124.064C211.356 123.819 211.058 123.638 210.87 123.832L209.995 124.734C209.891 124.841 209.725 124.841 209.64 124.734L208.922 123.832C208.769 123.639 208.439 123.819 208.5 124.064L208.782 125.204C208.816 125.34 208.719 125.484 208.578 125.512L207.378 125.751C207.12 125.803 207.089 126.164 207.337 126.216L208.495 126.455C208.632 126.483 208.703 126.627 208.645 126.763L208.163 127.903C208.059 128.148 208.357 128.329 208.545 128.135L209.42 127.233C209.524 127.126 209.69 127.126 209.775 127.233L210.493 128.135C210.647 128.329 210.976 128.148 210.916 127.903L210.633 126.763C210.599 126.627 210.696 126.483 210.837 126.455L212.037 126.216C212.296 126.164 212.327 125.802 212.078 125.751Z" fill="#263238"/>
<path d="M219.699 125.751L218.541 125.512C218.404 125.484 218.333 125.34 218.391 125.204L218.873 124.064C218.977 123.819 218.679 123.638 218.491 123.832L217.616 124.734C217.512 124.841 217.345 124.841 217.261 124.734L216.543 123.832C216.389 123.639 216.06 123.819 216.12 124.064L216.403 125.204C216.437 125.34 216.341 125.484 216.199 125.512L214.999 125.751C214.741 125.803 214.71 126.164 214.958 126.216L216.116 126.455C216.253 126.483 216.323 126.627 216.266 126.763L215.784 127.903C215.68 128.148 215.978 128.329 216.166 128.135L217.041 127.233C217.145 127.126 217.312 127.126 217.396 127.233L218.114 128.135C218.267 128.329 218.597 128.148 218.536 127.903L218.254 126.763C218.22 126.627 218.316 126.483 218.458 126.455L219.658 126.216C219.917 126.164 219.948 125.802 219.699 125.751Z" fill="#263238"/>
<path d="M227.321 125.751L226.163 125.512C226.026 125.484 225.955 125.34 226.012 125.204L226.495 124.064C226.599 123.819 226.301 123.638 226.113 123.832L225.238 124.734C225.134 124.841 224.967 124.841 224.882 124.734L224.165 123.832C224.011 123.639 223.682 123.819 223.742 124.064L224.025 125.204C224.059 125.34 223.963 125.484 223.82 125.512L222.62 125.751C222.363 125.803 222.331 126.164 222.58 126.216L223.738 126.455C223.875 126.483 223.946 126.627 223.889 126.763L223.406 127.903C223.302 128.148 223.6 128.329 223.788 128.135L224.663 127.233C224.767 127.126 224.934 127.126 225.019 127.233L225.736 128.135C225.89 128.329 226.219 128.148 226.159 127.903L225.876 126.763C225.842 126.627 225.938 126.483 226.081 126.455L227.281 126.216C227.538 126.164 227.57 125.802 227.321 125.751Z" fill="#263238"/>
<path d="M234.942 125.751L233.784 125.512C233.647 125.484 233.576 125.34 233.633 125.204L234.116 124.064C234.219 123.819 233.922 123.638 233.734 123.832L232.858 124.734C232.755 124.841 232.588 124.841 232.503 124.734L231.786 123.832C231.632 123.639 231.303 123.819 231.363 124.064L231.646 125.204C231.679 125.34 231.584 125.484 231.441 125.512L230.241 125.751C229.983 125.803 229.952 126.164 230.2 126.216L231.358 126.455C231.495 126.483 231.566 126.627 231.509 126.763L231.026 127.903C230.923 128.148 231.22 128.329 231.408 128.135L232.283 127.233C232.387 127.126 232.553 127.126 232.639 127.233L233.356 128.135C233.51 128.329 233.839 128.148 233.779 127.903L233.496 126.763C233.462 126.627 233.559 126.483 233.701 126.455L234.901 126.216C235.158 126.164 235.191 125.802 234.942 125.751Z" fill="#263238"/>
<path d="M242.563 125.751L241.405 125.512C241.268 125.484 241.197 125.34 241.254 125.204L241.736 124.064C241.839 123.819 241.542 123.638 241.355 123.832L240.479 124.734C240.375 124.841 240.209 124.841 240.124 124.734L239.407 123.832C239.253 123.639 238.923 123.819 238.984 124.064L239.266 125.204C239.3 125.34 239.204 125.484 239.062 125.512L237.862 125.751C237.604 125.803 237.573 126.164 237.821 126.216L238.979 126.455C239.116 126.483 239.187 126.627 239.129 126.763L238.647 127.903C238.543 128.148 238.841 128.329 239.029 128.135L239.904 127.233C240.008 127.126 240.175 127.126 240.259 127.233L240.977 128.135C241.131 128.329 241.46 128.148 241.4 127.903L241.117 126.763C241.083 126.627 241.179 126.483 241.322 126.455L242.522 126.216C242.779 126.164 242.811 125.802 242.563 125.751Z" fill="#263238"/>
<path d="M224.193 109.076H209.884C208.995 109.076 208.211 109.797 208.133 110.686C208.055 111.575 208.713 112.296 209.602 112.296H223.911C224.8 112.296 225.584 111.575 225.662 110.686C225.74 109.797 225.082 109.076 224.193 109.076Z" fill="#263238"/>
<path d="M238.718 109.076H230.415C229.526 109.076 228.742 109.797 228.664 110.686C228.586 111.575 229.244 112.296 230.133 112.296H238.436C239.325 112.296 240.109 111.575 240.187 110.686C240.265 109.797 239.607 109.076 238.718 109.076Z" fill="#263238"/>
<path d="M179.074 110.808L179.081 110.363C179.104 108.922 180.006 108.174 180.905 107.573C181.783 106.993 182.664 106.244 182.686 104.846C182.716 102.896 181.173 101.304 179.224 101.273C177.274 101.242 175.682 102.786 175.651 104.735" stroke="#40444C" stroke-width="1.5" stroke-linecap="round" stroke-linejoin="round"/>
<path d="M178.985 115.872L179.004 115.872" stroke="#40444C" stroke-width="1.5" stroke-linecap="round" stroke-linejoin="round"/>
<path d="M177.935 46.4299C190.402 46.4299 200.509 39.9884 200.509 32.0423C200.509 24.0963 190.402 17.6548 177.935 17.6548C165.467 17.6548 155.361 24.0963 155.361 32.0423C155.361 39.9884 165.467 46.4299 177.935 46.4299Z" fill="#5F95DC"/>
<path d="M169.785 39.2843C168.53 39.2843 167.306 38.909 166.243 38.184C164.816 37.2119 163.869 35.7381 163.574 34.0341C163.012 30.7769 165.176 27.5316 168.396 26.7997C171.049 26.1985 173.742 27.3289 175.167 29.6253L189.659 26.6345C190.833 26.3924 192.026 27.0924 192.315 28.1965C192.468 28.7833 192.377 29.3894 192.058 29.9036C191.739 30.4178 191.237 30.7675 190.645 30.8901L190.264 30.9689C190.15 30.9921 190.058 31.0609 190.003 31.1622C189.948 31.2623 189.94 31.3805 189.981 31.4869L190.236 32.1512C190.409 32.601 190.248 33.1071 189.851 33.3541C189.542 33.5468 189.332 33.8771 189.29 34.2387C189.238 34.6816 188.943 35.0225 188.537 35.1063L188.238 35.1676C187.833 35.2502 187.427 35.0563 187.203 34.6697C186.942 34.218 186.423 33.9853 185.91 34.0917C185.395 34.198 185.008 34.6177 184.945 35.1363C184.892 35.5798 184.596 35.9201 184.191 36.0033L183.899 36.0634C183.498 36.1466 183.088 35.9514 182.865 35.5654C182.681 35.2502 182.356 35.03 181.994 34.9762C181.532 34.9074 181.182 34.507 181.163 34.0241L181.134 33.3129C181.129 33.1971 181.077 33.0945 180.986 33.0239C180.895 32.9525 180.787 32.9269 180.669 32.9494L176.051 33.9028C175.66 36.5194 173.687 38.6144 171.078 39.153C170.647 39.2399 170.214 39.2843 169.785 39.2843ZM168.535 27.4096C165.633 28.0689 163.684 30.9933 164.192 33.9278C164.456 35.4635 165.31 36.7909 166.595 37.6673C167.881 38.5437 169.427 38.8533 170.952 38.5387C173.37 38.0395 175.182 36.0565 175.459 33.6044L175.485 33.3792L180.543 32.3351C180.835 32.2745 181.137 32.3458 181.372 32.5297C181.606 32.713 181.747 32.9888 181.759 33.2866L181.788 33.9978C181.795 34.178 181.923 34.3325 182.086 34.3563C182.643 34.4395 183.124 34.7654 183.406 35.2508C183.475 35.3697 183.605 35.4841 183.774 35.4497L184.066 35.3897C184.232 35.3553 184.308 35.1976 184.325 35.0613C184.418 34.2756 185.005 33.6394 185.784 33.4786C186.561 33.3185 187.349 33.6713 187.745 34.3556C187.814 34.4745 187.944 34.5902 188.112 34.5546L188.411 34.4933C188.577 34.4589 188.654 34.3018 188.669 34.1661C188.734 33.6081 189.045 33.1189 189.522 32.8231C189.662 32.7361 189.718 32.5441 189.653 32.3764L189.398 31.7115C189.291 31.4331 189.312 31.1241 189.455 30.8626C189.598 30.6017 189.847 30.4172 190.139 30.3572L190.52 30.2783C190.942 30.1914 191.3 29.9412 191.528 29.5752C191.756 29.2087 191.821 28.7758 191.711 28.3567C191.505 27.5697 190.64 27.0718 189.786 27.2494L174.855 30.3309L174.742 30.1345C173.489 27.9457 170.998 26.8497 168.535 27.4096ZM169.793 36.9717C169.018 36.9717 168.261 36.7465 167.598 36.3111C166.704 35.7225 166.093 34.8217 165.877 33.7739C165.66 32.7242 165.864 31.6539 166.453 30.7606C167.041 29.868 167.942 29.2574 168.991 29.041C170.04 28.8239 171.111 29.0279 172.003 29.6153C172.896 30.202 173.507 31.1041 173.723 32.1544C173.94 33.2021 173.735 34.2718 173.149 35.1651C172.561 36.0596 171.659 36.6714 170.609 36.8879C170.338 36.9442 170.064 36.9717 169.793 36.9717ZM169.811 29.5821C169.581 29.5821 169.349 29.6059 169.117 29.6534C168.233 29.8361 167.472 30.3515 166.976 31.1047C166.48 31.8585 166.307 32.7611 166.49 33.6475C166.672 34.5314 167.188 35.2915 167.943 35.7881C168.697 36.2842 169.6 36.4575 170.485 36.2748C171.37 36.0922 172.131 35.5755 172.627 34.8211C173.122 34.0673 173.294 33.1652 173.112 32.2801C172.929 31.3937 172.414 30.6324 171.661 30.137C171.103 29.7723 170.465 29.5821 169.811 29.5821Z" fill="white"/>
<path opacity="0.6" d="M159.556 54.8655C163.654 54.8655 166.976 52.7482 166.976 50.1364C166.976 47.5245 163.654 45.4072 159.556 45.4072C155.459 45.4072 152.137 47.5245 152.137 50.1364C152.137 52.7482 155.459 54.8655 159.556 54.8655Z" fill="#5F95DC"/>
<path opacity="0.3" d="M147.755 56.8057C149.437 56.8057 150.801 55.9367 150.801 54.8647C150.801 53.7926 149.437 52.9236 147.755 52.9236C146.073 52.9236 144.709 53.7926 144.709 54.8647C144.709 55.9367 146.073 56.8057 147.755 56.8057Z" fill="#5F95DC"/>
</svg>
