<svg width="41" height="40" viewBox="0 0 41 40" fill="none" xmlns="http://www.w3.org/2000/svg">
<path d="M17.1666 20C15.3333 20 13.8333 21.5 13.8333 23.3333C13.8333 25.1667 15.3333 26.6667 17.1666 26.6667C19 26.6667 20.5 25.1667 20.5 23.3333C20.5 21.5 19 20 17.1666 20ZM10.5 13.3333C8.66663 13.3333 7.16663 14.8333 7.16663 16.6667C7.16663 18.5 8.66663 20 10.5 20C12.3333 20 13.8333 18.5 13.8333 16.6667C13.8333 14.8333 12.3333 13.3333 10.5 13.3333ZM10.5 26.6667C8.66663 26.6667 7.16663 28.1667 7.16663 30C7.16663 31.8333 8.66663 33.3333 10.5 33.3333C12.3333 33.3333 13.8333 31.8333 13.8333 30C13.8333 28.1667 12.3333 26.6667 10.5 26.6667ZM30.5 13.3333C32.3333 13.3333 33.8333 11.8333 33.8333 10C33.8333 8.16667 32.3333 6.66667 30.5 6.66667C28.6666 6.66667 27.1666 8.16667 27.1666 10C27.1666 11.8333 28.6666 13.3333 30.5 13.3333ZM23.8333 26.6667C22 26.6667 20.5 28.1667 20.5 30C20.5 31.8333 22 33.3333 23.8333 33.3333C25.6666 33.3333 27.1666 31.8333 27.1666 30C27.1666 28.1667 25.6666 26.6667 23.8333 26.6667ZM30.5 20C28.6666 20 27.1666 21.5 27.1666 23.3333C27.1666 25.1667 28.6666 26.6667 30.5 26.6667C32.3333 26.6667 33.8333 25.1667 33.8333 23.3333C33.8333 21.5 32.3333 20 30.5 20ZM23.8333 13.3333C22 13.3333 20.5 14.8333 20.5 16.6667C20.5 18.5 22 20 23.8333 20C25.6666 20 27.1666 18.5 27.1666 16.6667C27.1666 14.8333 25.6666 13.3333 23.8333 13.3333ZM17.1666 6.66667C15.3333 6.66667 13.8333 8.16667 13.8333 10C13.8333 11.8333 15.3333 13.3333 17.1666 13.3333C19 13.3333 20.5 11.8333 20.5 10C20.5 8.16667 19 6.66667 17.1666 6.66667Z" fill="#5F95DC"/>
</svg>
