<svg width="16" height="15" viewBox="0 0 16 15" fill="none" xmlns="http://www.w3.org/2000/svg">
<path d="M13.4412 9.26471C13.4412 9.41013 13.3981 9.5523 13.3173 9.67321C13.2365 9.79413 13.1216 9.88838 12.9873 9.94403C12.8529 9.99968 12.7051 10.0142 12.5624 9.98587C12.4198 9.9575 12.2888 9.88747 12.186 9.78464C12.0831 9.68181 12.0131 9.55079 11.9847 9.40815C11.9563 9.26552 11.9709 9.11768 12.0266 8.98332C12.0822 8.84896 12.1765 8.73413 12.2974 8.65333C12.4183 8.57254 12.5605 8.52941 12.7059 8.52941C12.9009 8.52941 13.0879 8.60688 13.2258 8.74477C13.3637 8.88267 13.4412 9.06969 13.4412 9.26471ZM13.1213 12.0279C13.0204 12.8474 12.6235 13.6017 12.0054 14.1491C11.3872 14.6964 10.5904 14.999 9.76471 15H8C7.1033 14.9988 6.24367 14.6421 5.60961 14.008C4.97554 13.374 4.61881 12.5143 4.61765 11.6176V8.50809C3.49025 8.39847 2.44404 7.87308 1.68285 7.03426C0.921647 6.19545 0.499982 5.1033 0.5 3.97059V1.02941C0.5 0.756395 0.608456 0.49456 0.801508 0.301508C0.99456 0.108456 1.25639 0 1.52941 0H2.70588C2.82289 0 2.9351 0.0464809 3.01784 0.129218C3.10058 0.211954 3.14706 0.324169 3.14706 0.441176C3.14706 0.558184 3.10058 0.670399 3.01784 0.753135C2.9351 0.835872 2.82289 0.882353 2.70588 0.882353H1.52941C1.49041 0.882353 1.453 0.897847 1.42543 0.925425C1.39785 0.953004 1.38235 0.990409 1.38235 1.02941V3.97059C1.38235 4.94565 1.76969 5.88077 2.45917 6.57025C3.14864 7.25972 4.08376 7.64706 5.05882 7.64706H5.10809C7.10809 7.62059 8.7353 5.94412 8.7353 3.90956V1.02941C8.7353 0.990409 8.7198 0.953004 8.69222 0.925425C8.66464 0.897847 8.62724 0.882353 8.58824 0.882353H7.41177C7.29476 0.882353 7.18254 0.835872 7.09981 0.753135C7.01707 0.670399 6.97059 0.558184 6.97059 0.441176C6.97059 0.324169 7.01707 0.211954 7.09981 0.129218C7.18254 0.0464809 7.29476 0 7.41177 0H8.58824C8.86125 0 9.12309 0.108456 9.31614 0.301508C9.50919 0.49456 9.61765 0.756395 9.61765 1.02941V3.90956C9.61765 6.29412 7.80294 8.28015 5.5 8.50662V11.6176C5.5 12.2807 5.76339 12.9166 6.23223 13.3854C6.70107 13.8543 7.33696 14.1176 8 14.1176H9.76471C10.3582 14.1169 10.9321 13.9053 11.3841 13.5207C11.836 13.136 12.1367 12.6034 12.2324 12.0176C11.5402 11.8979 10.9185 11.5218 10.4912 10.9643C10.0639 10.4068 9.86218 9.70876 9.92634 9.00924C9.9905 8.30973 10.3158 7.66005 10.8374 7.18958C11.359 6.71911 12.0387 6.46238 12.7411 6.47052C13.4435 6.47865 14.1171 6.75105 14.6277 7.23347C15.1383 7.71589 15.4484 8.37293 15.4964 9.07374C15.5443 9.77455 15.3265 10.4677 14.8864 11.0152C14.4463 11.5626 13.8161 11.9242 13.1213 12.0279ZM14.6176 9.26471C14.6176 8.88659 14.5055 8.51697 14.2955 8.20259C14.0854 7.8882 13.7868 7.64316 13.4375 7.49847C13.0882 7.35377 12.7038 7.31591 12.3329 7.38968C11.9621 7.46344 11.6214 7.64552 11.3541 7.91288C11.0867 8.18025 10.9046 8.52089 10.8309 8.89174C10.7571 9.26259 10.7949 9.64698 10.9396 9.99631C11.0843 10.3456 11.3294 10.6442 11.6438 10.8543C11.9582 11.0643 12.3278 11.1765 12.7059 11.1765C12.9569 11.1765 13.2055 11.127 13.4375 11.0309C13.6694 10.9349 13.8802 10.7941 14.0577 10.6165C14.2352 10.439 14.376 10.2283 14.4721 9.99631C14.5682 9.76436 14.6176 9.51576 14.6176 9.26471Z" fill="#5F95DC"/>
</svg>
