<svg width="215" height="57" viewBox="0 0 215 57" fill="none" xmlns="http://www.w3.org/2000/svg">
<path d="M23.3223 26.7785C22.0618 28.002 22.0359 30.0031 23.277 31.2458C24.5181 32.4885 26.5349 32.514 27.8083 31.2904C27.8988 31.2012 27.9893 31.0992 28.0669 31.01C29.1657 36.1592 29.6441 36.8475 30.3357 36.8475C30.4133 36.8475 30.4973 36.8347 30.5878 36.822C31.5445 36.6881 31.5639 36.6881 32.3137 24.2357C32.3267 23.9808 32.3461 23.7195 32.359 23.4646C32.3719 23.6303 32.3913 23.8024 32.4042 23.9553C33.3157 33.2532 33.3157 33.2532 33.9944 33.5081C34.867 33.8459 35.313 33.0684 36.2633 31.3669C36.5154 30.9271 36.8903 30.2452 37.1294 29.9139C38.2412 30.0349 41.2858 30.2707 42.1972 29.1045C42.3782 28.8815 42.6174 28.5118 42.876 28.0849C43.2186 27.5559 43.9296 26.4407 44.3756 26.0137C44.5825 26.2623 44.841 26.6765 45.0479 27.0015C45.9141 28.3653 46.8901 29.9011 48.2411 29.933H48.2864L55.3322 29.9457H57.614V30.9399C57.614 34.9484 54.3173 38.1857 50.2644 38.1857H38.7519V49.5548C38.7519 53.5505 35.4553 56.8006 31.3894 56.8006H26.2311C22.1781 56.8006 18.8815 53.5505 18.8815 49.5548V38.1921H7.34961C3.29666 38.1921 0 34.9547 0 30.9463V25.8608C0 21.8523 3.29666 18.6149 7.34961 18.6149H18.8815V7.24586C18.8815 3.25012 22.1781 0 26.2311 0H31.3894C35.4553 0 38.7519 3.25012 38.7519 7.24586V18.6149H50.2708C54.3238 18.6149 57.6204 21.8523 57.6204 25.8608V28.2697H55.3386L48.3316 28.2569C48.3316 28.2569 48.3187 28.2569 48.3058 28.2569C47.8597 28.2569 46.8772 26.702 46.5023 26.1093C46.011 25.3446 45.6297 24.7455 45.1836 24.4269C44.9121 24.223 44.5566 24.1592 44.2205 24.223C43.2897 24.4014 42.4946 25.5676 41.4474 27.1927C41.2212 27.5623 41.0143 27.8873 40.8786 28.053C40.4584 28.3971 38.0473 28.3653 37.0066 28.1996C36.1857 28.0785 35.7785 28.7795 34.8024 30.5193C34.5955 28.7604 34.337 26.0966 34.1237 23.8024C33.1928 14.2942 33.1928 14.2942 32.3719 14.1348C32.1263 14.0902 31.8677 14.1476 31.6738 14.3005C31.2213 14.6383 31.1954 14.6574 30.6201 24.1337C30.4585 26.7338 30.2776 29.8884 30.0966 32.2527C29.9156 31.4816 29.7023 30.5257 29.4631 29.3403L29.4308 29.2192C29.3403 28.7731 29.0817 28.5118 28.7003 28.3653C28.584 27.8045 28.306 27.2692 27.86 26.8294C26.6189 25.5804 24.5957 25.5612 23.3223 26.7785Z" fill="#5F95DC"/>
<path d="M91.178 23.5513V40.5347H87.041V33.543H80.6057V40.5347H76.4688V23.5513H80.6057V30.2044H87.041V23.5513H91.178Z" fill="#25272C"/>
<path d="M94.5516 33.7607C94.5516 32.3737 94.8097 31.156 95.3258 30.1076C95.858 29.0593 96.5757 28.2528 97.4789 27.6883C98.3821 27.1238 99.3902 26.8416 100.503 26.8416C101.455 26.8416 102.285 27.0351 102.995 27.4222C103.721 27.8093 104.277 28.3173 104.664 28.9464V27.0351H108.801V40.5347H104.664V38.6235C104.261 39.2525 103.696 39.7606 102.971 40.1477C102.261 40.5347 101.43 40.7283 100.479 40.7283C99.3821 40.7283 98.3821 40.446 97.4789 39.8815C96.5757 39.3009 95.858 38.4864 95.3258 37.438C94.8097 36.3736 94.5516 35.1478 94.5516 33.7607ZM104.664 33.7849C104.664 32.7527 104.374 31.9382 103.793 31.3414C103.229 30.7447 102.535 30.4463 101.713 30.4463C100.89 30.4463 100.189 30.7447 99.6079 31.3414C99.0434 31.9221 98.7612 32.7285 98.7612 33.7607C98.7612 34.793 99.0434 35.6155 99.6079 36.2284C100.189 36.8252 100.89 37.1235 101.713 37.1235C102.535 37.1235 103.229 36.8252 103.793 36.2284C104.374 35.6316 104.664 34.8172 104.664 33.7849Z" fill="#25272C"/>
<path d="M121.254 40.5347L117.141 34.8736V40.5347H113.004V22.632H117.141V32.5269L121.229 27.0351H126.334L120.721 33.8091L126.382 40.5347H121.254Z" fill="#25272C"/>
<path d="M131.249 25.6319C130.523 25.6319 129.927 25.4223 129.459 25.0029C129.007 24.5674 128.781 24.0352 128.781 23.4062C128.781 22.761 129.007 22.2288 129.459 21.8095C129.927 21.374 130.523 21.1562 131.249 21.1562C131.959 21.1562 132.539 21.374 132.991 21.8095C133.459 22.2288 133.693 22.761 133.693 23.4062C133.693 24.0352 133.459 24.5674 132.991 25.0029C132.539 25.4223 131.959 25.6319 131.249 25.6319ZM133.306 27.0351V40.5347H129.169V27.0351H133.306Z" fill="#25272C"/>
<path d="M154.739 26.89C156.416 26.89 157.747 27.398 158.73 28.4141C159.73 29.4302 160.23 30.8415 160.23 32.6479V40.5347H156.118V33.2043C156.118 32.3334 155.884 31.664 155.416 31.1963C154.964 30.7124 154.335 30.4705 153.529 30.4705C152.722 30.4705 152.085 30.7124 151.618 31.1963C151.166 31.664 150.94 32.3334 150.94 33.2043V40.5347H146.827V33.2043C146.827 32.3334 146.594 31.664 146.126 31.1963C145.674 30.7124 145.045 30.4705 144.239 30.4705C143.432 30.4705 142.795 30.7124 142.328 31.1963C141.876 31.664 141.65 32.3334 141.65 33.2043V40.5347H137.513V27.0351H141.65V28.7286C142.07 28.1641 142.618 27.7206 143.295 27.398C143.973 27.0593 144.739 26.89 145.594 26.89C146.61 26.89 147.513 27.1077 148.303 27.5432C149.11 27.9786 149.739 28.5996 150.19 29.406C150.658 28.6641 151.295 28.0593 152.102 27.5916C152.908 27.1238 153.787 26.89 154.739 26.89Z" fill="#25272C"/>
<path d="M179.043 23.5512V40.5346H174.906V33.5428H168.47V40.5346H164.333V23.5512H168.47V30.2042H174.906V23.5512H179.043Z" fill="#5F95DC"/>
<path d="M196.569 27.0349V40.5346H192.432V38.6959C192.013 39.2927 191.44 39.7765 190.714 40.1475C190.005 40.5023 189.215 40.6797 188.344 40.6797C187.311 40.6797 186.4 40.4539 185.61 40.0023C184.819 39.5346 184.207 38.8652 183.771 37.9943C183.336 37.1234 183.118 36.0992 183.118 34.9218V27.0349H187.231V34.3654C187.231 35.2686 187.465 35.9702 187.932 36.4702C188.4 36.9701 189.029 37.2201 189.819 37.2201C190.626 37.2201 191.263 36.9701 191.731 36.4702C192.198 35.9702 192.432 35.2686 192.432 34.3654V27.0349H196.569Z" fill="#5F95DC"/>
<path d="M204.887 28.9462C205.274 28.3172 205.831 27.8091 206.557 27.422C207.282 27.0349 208.113 26.8414 209.049 26.8414C210.161 26.8414 211.169 27.1236 212.073 27.6881C212.976 28.2526 213.685 29.0591 214.202 30.1074C214.734 31.1558 215 32.3735 215 33.7606C215 35.1476 214.734 36.3734 214.202 37.4379C213.685 38.4862 212.976 39.3007 212.073 39.8813C211.169 40.4459 210.161 40.7281 209.049 40.7281C208.097 40.7281 207.266 40.5426 206.557 40.1717C205.847 39.7846 205.291 39.2765 204.887 38.6475V40.5346H200.75V22.6318H204.887V28.9462ZM210.79 33.7606C210.79 32.7283 210.5 31.9219 209.919 31.3413C209.355 30.7445 208.653 30.4461 207.815 30.4461C206.992 30.4461 206.291 30.7445 205.71 31.3413C205.145 31.938 204.863 32.7525 204.863 33.7847C204.863 34.817 205.145 35.6315 205.71 36.2282C206.291 36.825 206.992 37.1234 207.815 37.1234C208.637 37.1234 209.339 36.825 209.919 36.2282C210.5 35.6153 210.79 34.7928 210.79 33.7606Z" fill="#5F95DC"/>
</svg>
