<svg width="380" height="242" viewBox="0 0 380 242" fill="none" xmlns="http://www.w3.org/2000/svg">
<path d="M370.653 212.668H10.8098V212.83H370.653V212.668Z" fill="#EBEBEB"/>
<path d="M334.597 223.122H310.76V223.284H334.597V223.122Z" fill="#EBEBEB"/>
<path d="M249.184 224.885H242.928V225.047H249.184V224.885Z" fill="#EBEBEB"/>
<path d="M310.04 217.091H296.228V217.253H310.04V217.091Z" fill="#EBEBEB"/>
<path d="M79.6494 218.182H48.564V218.344H79.6494V218.182Z" fill="#EBEBEB"/>
<path d="M90.6151 218.182H86.0574V218.344H90.6151V218.182Z" fill="#EBEBEB"/>
<path d="M172.845 220.925H105.428V221.087H172.845V220.925Z" fill="#EBEBEB"/>
<path d="M181.386 183.703H42.4149C40.15 183.703 38.3069 182.039 38.3069 179.995V3.7072C38.3069 1.6633 40.15 0 42.4149 0H181.386C183.65 0 185.493 1.6633 185.493 3.7072V179.995C185.493 182.039 183.65 183.703 181.386 183.703ZM42.4149 0.163018C40.2486 0.163018 38.4868 1.75293 38.4868 3.70785V179.996C38.4868 181.951 40.2486 183.541 42.4149 183.541H181.386C183.551 183.541 185.313 181.951 185.313 179.996V3.7072C185.313 1.75293 183.551 0.162369 181.386 0.162369L42.4149 0.163018Z" fill="#EBEBEB"/>
<path d="M337.051 183.703H198.081C195.816 183.703 193.974 182.039 193.974 179.995V3.7072C193.974 1.6633 195.817 0 198.081 0H337.051C339.317 0 341.159 1.6633 341.159 3.7072V179.995C341.16 182.039 339.317 183.703 337.051 183.703ZM198.081 0.163018C195.915 0.163018 194.154 1.75293 194.154 3.70785V179.996C194.154 181.951 195.915 183.541 198.081 183.541H337.051C339.217 183.541 340.979 181.951 340.979 179.996V3.7072C340.979 1.75293 339.217 0.162369 337.051 0.162369L198.081 0.163018Z" fill="#EBEBEB"/>
<path d="M316.662 19.6749C316.971 19.8898 348.774 32.7735 365.859 58.3452C382.945 83.9168 365.428 62.6039 348.637 48.9746C334.891 37.8158 305.521 23.2513 308.846 19.6749C312.171 16.0986 316.662 19.6749 316.662 19.6749Z" fill="#D1E3F9"/>
<path d="M351.222 211.409C351.222 211.409 390.804 165.061 376.411 101.135C362.017 37.2093 285.73 21.4506 234.632 46.7063C183.535 71.962 111.566 79.7592 84.9376 29.4184C58.3092 -20.9224 -42.447 87.9987 20.1658 211.409H351.222Z" fill="#E0EDFD"/>
<path d="M48.2039 211.408C48.2039 211.408 17.0199 146.617 74.2494 123.288C131.479 99.9599 78.805 188.276 136.984 184.895C159.619 183.581 202.562 157.119 189.651 96.9838C181.965 61.1886 272.278 82.5331 287.334 211.415H48.2039V211.408Z" fill="white"/>
<path d="M373.761 75.9111C373.761 75.9111 376.158 82.4951 378.202 83.7588C380.246 85.0226 380.598 81.124 378.202 77.3328C375.805 73.5416 372.56 72.9982 373.761 75.9111Z" fill="#B2E7FE"/>
<path d="M9.96001 157.131C9.96001 157.131 4.20252 130.631 9.96001 109.931C15.7175 89.2308 12.263 116.268 12.3566 128.912C12.4789 144.209 15.7175 177.01 9.96001 157.131Z" fill="white"/>
<path d="M12.8313 96.0803C12.8313 96.0803 12.8961 89.7617 14.6953 88.3905C16.4946 87.0194 15.4654 95.1578 14.6953 96.769C13.7957 98.6583 12.7306 97.9822 12.8313 96.0803Z" fill="white"/>
<path d="M190.731 242C267.797 242 330.271 238.707 330.271 234.646C330.271 230.584 267.797 227.292 190.731 227.292C113.666 227.292 51.1921 230.584 51.1921 234.646C51.1921 238.707 113.666 242 190.731 242Z" fill="#F5F5F5"/>
<path d="M64.2078 213.611C64.2078 213.611 60.8282 203.393 67.6652 201.357C74.5022 199.322 78.5584 194.544 78.3295 189.139C78.1007 183.735 85.2975 178.475 90.6952 183.541C96.0928 188.606 95.3731 179.646 102.57 177.469C109.767 175.292 115.868 180.574 113.896 185.402C111.926 190.229 119.028 193.245 127.532 189.139C136.035 185.034 145.391 192.503 143.592 198.348C141.793 204.193 143.266 204.843 148.647 202.895C154.028 200.946 163.652 206.467 160.279 213.611C156.906 220.755 64.2078 213.611 64.2078 213.611Z" fill="#5F95DC"/>
<path opacity="0.3" d="M64.2078 213.611C64.2078 213.611 60.8282 203.393 67.6652 201.357C74.5022 199.322 78.5584 194.544 78.3295 189.139C78.1007 183.735 85.2975 178.475 90.6952 183.541C96.0928 188.606 95.3731 179.646 102.57 177.469C109.767 175.292 115.868 180.574 113.896 185.402C111.926 190.229 119.028 193.245 127.532 189.139C136.035 185.034 145.391 192.503 143.592 198.348C141.793 204.193 143.266 204.843 148.647 202.895C154.028 200.946 163.652 206.467 160.279 213.611C156.906 220.755 64.2078 213.611 64.2078 213.611Z" fill="white"/>
<path d="M245.068 214.585C241.47 211.338 244.708 205.817 248.307 205.168C251.905 204.518 255.522 198.804 255.693 195.166C255.863 191.529 262.34 180.339 272.416 187.249C282.492 194.159 279.429 188.267 286.718 186.326C294.006 184.384 298.604 189.97 295.406 194.159C295.406 194.159 302.728 192.503 305.744 198.673C308.76 204.843 305.744 208.675 305.744 208.675C305.744 208.675 319.514 208.307 318.276 215.992C317.037 223.678 245.068 214.585 245.068 214.585Z" fill="#5F95DC"/>
<path opacity="0.3" d="M245.068 214.585C241.47 211.338 244.708 205.817 248.307 205.168C251.905 204.518 255.522 198.804 255.693 195.166C255.863 191.529 262.34 180.339 272.416 187.249C282.492 194.159 279.429 188.267 286.718 186.326C294.006 184.384 298.604 189.97 295.406 194.159C295.406 194.159 302.728 192.503 305.744 198.673C308.76 204.843 305.744 208.675 305.744 208.675C305.744 208.675 319.514 208.307 318.276 215.992C317.037 223.678 245.068 214.585 245.068 214.585Z" fill="white"/>
<path d="M51.832 214.78V223.678H329.631V214.78C329.631 213.234 328.436 211.987 326.724 211.987H54.7396C53.0267 211.987 51.832 213.234 51.832 214.78Z" fill="#263238"/>
<path d="M313.798 211.987H296.525V223.678H313.798V211.987Z" fill="#5F95DC"/>
<path d="M280.692 211.987H264.139V223.678H280.692V211.987Z" fill="#5F95DC"/>
<path d="M248.306 211.987H231.034V223.678H248.306V211.987Z" fill="#5F95DC"/>
<path d="M215.201 211.987H198.648V223.678H215.201V211.987Z" fill="#5F95DC"/>
<path d="M182.815 211.987H166.262V223.678H182.815V211.987Z" fill="#5F95DC"/>
<path d="M150.429 211.987H133.156V223.678H150.429V211.987Z" fill="#5F95DC"/>
<path d="M117.323 211.987H100.771V223.678H117.323V211.987Z" fill="#5F95DC"/>
<path d="M84.9375 211.987H67.665V223.678H84.9375V211.987Z" fill="#5F95DC"/>
<g opacity="0.6">
<path d="M313.798 211.987H296.525V223.678H313.798V211.987Z" fill="white"/>
<path d="M280.692 211.987H264.139V223.678H280.692V211.987Z" fill="white"/>
<path d="M248.306 211.987H231.034V223.678H248.306V211.987Z" fill="white"/>
<path d="M215.201 211.987H198.648V223.678H215.201V211.987Z" fill="white"/>
<path d="M182.815 211.987H166.262V223.678H182.815V211.987Z" fill="white"/>
<path d="M150.429 211.987H133.156V223.678H150.429V211.987Z" fill="white"/>
<path d="M117.323 211.987H100.771V223.678H117.323V211.987Z" fill="white"/>
<path d="M84.9375 211.987H67.665V223.678H84.9375V211.987Z" fill="white"/>
</g>
<path opacity="0.1" d="M51.832 214.78V223.678H329.631V214.78C329.631 213.234 328.436 211.987 326.724 211.987H54.7396C53.0267 211.987 51.832 213.234 51.832 214.78Z" fill="white"/>
<path d="M192.101 39.0282V231.579C192.101 233.163 190.693 234.394 188.937 234.394H89.6379C88.8448 234.394 88.1561 234.127 87.6523 233.672C87.1262 233.211 86.8074 232.555 86.8074 231.813V38.7938C86.8074 37.5364 87.8372 36.4336 89.2306 36.4336H117.432C118.225 36.4336 118.951 36.9019 119.248 37.5773L120.419 40.172C120.715 40.8409 121.434 41.3085 122.234 41.3085H156.741C157.542 41.3085 158.261 40.8604 158.557 40.1921L159.728 37.5845C160.025 36.909 160.744 36.4342 161.543 36.4342H189.338C190.871 36.4336 192.101 37.6371 192.101 39.0282Z" fill="#5F95DC"/>
<path opacity="0.3" d="M192.101 48.9846H86.8074V225.867H192.101V48.9846Z" fill="white"/>
<path opacity="0.5" d="M189.141 69.8816H89.7673V151.654H189.141V69.8816Z" fill="white"/>
<path d="M183.623 63.8368H95.286C92.4699 63.8368 90.1877 61.7766 90.1877 59.2359C90.1877 56.6945 92.4706 54.635 95.286 54.635H183.623C186.439 54.635 188.721 56.6951 188.721 59.2359C188.721 61.7766 186.439 63.8368 183.623 63.8368Z" fill="white"/>
<path d="M97.1724 60.6875V56.6952H97.8398V58.4301H100.045V56.6952H100.715V60.6875H100.045V58.9467H97.8398V60.6875H97.1724Z" fill="#3D618F"/>
<path d="M103.033 60.7479C102.722 60.7479 102.45 60.6836 102.218 60.5549C101.986 60.4262 101.806 60.2463 101.678 60.0149C101.55 59.7836 101.486 59.5133 101.486 59.204C101.486 58.8934 101.55 58.6218 101.678 58.3892C101.806 58.1566 101.986 57.9759 102.218 57.8473C102.45 57.7186 102.722 57.6543 103.033 57.6543C103.344 57.6543 103.615 57.7186 103.847 57.8473C104.079 57.9759 104.259 58.1566 104.387 58.3892C104.515 58.6218 104.579 58.8934 104.579 59.204C104.579 59.5133 104.515 59.7836 104.387 60.0149C104.259 60.2463 104.079 60.4262 103.847 60.5549C103.615 60.6836 103.344 60.7479 103.033 60.7479ZM103.035 60.2586C103.236 60.2586 103.403 60.2105 103.536 60.1144C103.668 60.0182 103.766 59.8902 103.83 59.7303C103.894 59.5705 103.927 59.3944 103.927 59.2021C103.927 59.011 103.894 58.8356 103.83 58.6758C103.766 58.5146 103.668 58.3853 103.536 58.2878C103.403 58.1904 103.236 58.1416 103.035 58.1416C102.832 58.1416 102.663 58.1904 102.529 58.2878C102.397 58.3853 102.298 58.5146 102.233 58.6758C102.17 58.8356 102.138 59.011 102.138 59.2021C102.138 59.3944 102.17 59.5705 102.233 59.7303C102.298 59.8902 102.397 60.0182 102.529 60.1144C102.663 60.2105 102.832 60.2586 103.035 60.2586Z" fill="#3D618F"/>
<path d="M107.786 58.4243L107.201 58.5179C107.176 58.4503 107.138 58.386 107.084 58.3249C107.032 58.2638 106.962 58.2138 106.873 58.1748C106.783 58.1358 106.672 58.1163 106.538 58.1163C106.355 58.1163 106.202 58.1533 106.08 58.2274C105.957 58.3002 105.896 58.3944 105.896 58.5101C105.896 58.6101 105.937 58.6907 106.019 58.7518C106.101 58.8129 106.234 58.8629 106.417 58.9019L106.944 59.011C107.249 59.0747 107.477 59.1728 107.626 59.3054C107.776 59.4379 107.851 59.6101 107.851 59.822C107.851 60.0013 107.794 60.1611 107.678 60.3015C107.565 60.4405 107.405 60.5497 107.201 60.629C106.998 60.7083 106.762 60.7479 106.495 60.7479C106.123 60.7479 105.82 60.6764 105.585 60.5335C105.351 60.3892 105.207 60.1845 105.153 59.9194L105.777 59.8337C105.816 59.9805 105.896 60.0916 106.017 60.167C106.138 60.2411 106.296 60.2781 106.49 60.2781C106.702 60.2781 106.871 60.2385 106.998 60.1592C107.125 60.0786 107.188 59.9805 107.188 59.8648C107.188 59.7713 107.149 59.6927 107.071 59.629C106.995 59.5653 106.878 59.5172 106.719 59.4847L106.158 59.3736C105.848 59.3099 105.619 59.2086 105.471 59.0695C105.324 58.9305 105.25 58.7544 105.25 58.5413C105.25 58.3645 105.305 58.2099 105.415 58.0773C105.524 57.9448 105.675 57.8414 105.868 57.7674C106.061 57.692 106.282 57.6543 106.531 57.6543C106.89 57.6543 107.172 57.7245 107.378 57.8648C107.584 58.0039 107.72 58.1904 107.786 58.4243Z" fill="#3D618F"/>
<path d="M108.561 61.8103V57.6933H109.192V58.1787H109.246C109.283 58.1163 109.337 58.0442 109.408 57.9623C109.479 57.8804 109.576 57.809 109.702 57.7479C109.827 57.6855 109.993 57.6543 110.199 57.6543C110.466 57.6543 110.705 57.7154 110.916 57.8375C111.126 57.9597 111.291 58.1358 111.41 58.3658C111.531 58.5958 111.592 58.8726 111.592 59.1962C111.592 59.5198 111.532 59.7973 111.413 60.0286C111.293 60.2586 111.129 60.436 110.92 60.5608C110.711 60.6842 110.473 60.7459 110.205 60.7459C110.003 60.7459 109.839 60.7154 109.71 60.6543C109.584 60.5932 109.484 60.5218 109.412 60.4399C109.34 60.358 109.285 60.2852 109.246 60.2216H109.207V61.8103H108.561ZM109.194 59.1904C109.194 59.4009 109.228 59.5854 109.296 59.744C109.363 59.9025 109.461 60.0266 109.589 60.1163C109.718 60.2047 109.875 60.2489 110.06 60.2489C110.253 60.2489 110.415 60.2027 110.544 60.1105C110.674 60.0169 110.772 59.8902 110.838 59.7303C110.906 59.5705 110.939 59.3905 110.939 59.1904C110.939 58.9928 110.906 58.8155 110.84 58.6582C110.775 58.501 110.677 58.3769 110.546 58.2859C110.417 58.1949 110.255 58.1494 110.06 58.1494C109.873 58.1494 109.715 58.193 109.585 58.28C109.457 58.3671 109.36 58.4886 109.294 58.6446C109.227 58.8005 109.194 58.9824 109.194 59.1904Z" fill="#3D618F"/>
<path d="M112.315 60.6875V57.6933H112.961V60.6875H112.315ZM112.642 57.2313C112.529 57.2313 112.433 57.1975 112.352 57.1299C112.273 57.0611 112.233 56.9792 112.233 56.8843C112.233 56.7882 112.273 56.7063 112.352 56.6387C112.433 56.5698 112.529 56.5354 112.642 56.5354C112.754 56.5354 112.85 56.5698 112.929 56.6387C113.01 56.7063 113.05 56.7882 113.05 56.8843C113.05 56.9792 113.01 57.0611 112.929 57.1299C112.85 57.1975 112.754 57.2313 112.642 57.2313Z" fill="#3D618F"/>
<path d="M115.379 57.6933V58.1611H113.567V57.6933H115.379ZM114.053 56.9759H114.699V59.8083C114.699 59.9214 114.717 60.0065 114.755 60.0637C114.792 60.1196 114.84 60.1579 114.899 60.1787C114.96 60.1982 115.025 60.2079 115.096 60.2079C115.148 60.2079 115.193 60.2047 115.232 60.1982C115.271 60.1917 115.301 60.1865 115.323 60.1826L115.439 60.6641C115.402 60.6771 115.349 60.6901 115.28 60.7031C115.21 60.7173 115.124 60.7251 115.02 60.7264C114.85 60.729 114.692 60.7018 114.545 60.6446C114.398 60.5874 114.279 60.499 114.189 60.3795C114.098 60.2599 114.053 60.1098 114.053 59.9292V56.9759Z" fill="#3D618F"/>
<path d="M117.059 60.7537C116.849 60.7537 116.659 60.7186 116.489 60.6485C116.319 60.577 116.184 60.4737 116.085 60.3385C115.987 60.2034 115.938 60.0377 115.938 59.8415C115.938 59.6725 115.974 59.5335 116.046 59.4243C116.118 59.3151 116.215 59.2287 116.337 59.165C116.46 59.1014 116.597 59.0533 116.748 59.0208C116.899 58.9883 117.053 58.9636 117.21 58.9467C117.409 58.9259 117.57 58.909 117.694 58.896C117.818 58.8817 117.908 58.859 117.964 58.8278C118.02 58.7966 118.048 58.7459 118.048 58.6758V58.6621C118.048 58.4919 117.995 58.36 117.888 58.2664C117.783 58.1728 117.626 58.126 117.417 58.126C117.2 58.126 117.029 58.1696 116.903 58.2567C116.78 58.3424 116.694 58.4379 116.646 58.5432L116.039 58.4184C116.111 58.2365 116.216 58.0897 116.355 57.9779C116.494 57.8648 116.655 57.783 116.836 57.7323C117.018 57.6803 117.209 57.6543 117.409 57.6543C117.541 57.6543 117.682 57.6686 117.83 57.6972C117.98 57.7245 118.12 57.7752 118.249 57.8492C118.38 57.9233 118.487 58.0292 118.571 58.167C118.654 58.3034 118.696 58.4808 118.696 58.6991V60.6875H118.066V60.2781H118.04C117.998 60.3535 117.935 60.4275 117.852 60.5003C117.768 60.5731 117.661 60.6335 117.53 60.6816C117.399 60.7297 117.242 60.7537 117.059 60.7537ZM117.199 60.2859C117.378 60.2859 117.531 60.2541 117.657 60.1904C117.785 60.1267 117.883 60.0435 117.949 59.9409C118.017 59.8369 118.05 59.7258 118.05 59.6075V59.2216C118.027 59.2424 117.983 59.2619 117.916 59.28C117.852 59.2969 117.777 59.3119 117.694 59.3249C117.61 59.3366 117.529 59.3476 117.45 59.358C117.371 59.3671 117.304 59.3749 117.251 59.3814C117.126 59.3957 117.011 59.4197 116.908 59.4535C116.805 59.4873 116.723 59.5361 116.661 59.5997C116.601 59.6621 116.571 59.7453 116.571 59.8492C116.571 59.9935 116.63 60.1027 116.748 60.1767C116.866 60.2495 117.016 60.2859 117.199 60.2859Z" fill="#3D618F"/>
<path d="M120.202 56.6952V60.6875H119.556V56.6952H120.202Z" fill="#3D618F"/>
<path opacity="0.5" d="M189.35 159.789V217.371C189.35 219.424 187.507 221.086 185.233 221.086H94.092C91.8177 221.086 89.9753 219.424 89.9753 217.371V159.789C89.9753 157.737 91.8177 156.074 94.092 156.074H185.233C187.507 156.074 189.35 157.737 189.35 159.789Z" fill="white"/>
<path d="M189.35 159.62V165.991H89.9753V159.62C89.9753 157.568 91.8177 155.905 94.092 155.905H185.233C187.507 155.905 189.35 157.568 189.35 159.62Z" fill="white"/>
<path d="M125.781 160.747C125.596 160.909 125.592 161.174 125.774 161.338C125.956 161.503 126.252 161.506 126.438 161.344C126.452 161.332 126.465 161.319 126.476 161.307C126.637 161.988 126.708 162.079 126.809 162.079C126.82 162.079 126.833 162.078 126.846 162.076C126.986 162.058 126.989 162.058 127.099 160.411C127.101 160.377 127.104 160.342 127.106 160.309C127.108 160.331 127.11 160.353 127.112 160.374C127.246 161.604 127.246 161.604 127.345 161.638C127.473 161.682 127.539 161.579 127.678 161.354C127.715 161.296 127.77 161.206 127.805 161.162C127.968 161.178 128.414 161.209 128.548 161.055C128.575 161.025 128.61 160.977 128.648 160.92C128.698 160.85 128.802 160.702 128.867 160.646C128.898 160.679 128.936 160.734 128.966 160.777C129.093 160.957 129.236 161.16 129.434 161.165H129.441L130.474 161.166H130.808V161.298C130.808 161.828 130.325 162.256 129.731 162.256H128.043V163.761C128.043 164.289 127.56 164.719 126.963 164.719H126.207C125.613 164.719 125.13 164.289 125.13 163.761V162.257H123.439C122.845 162.257 122.361 161.829 122.361 161.299V160.626C122.361 160.095 122.845 159.667 123.439 159.667H125.13V158.163C125.13 157.634 125.613 157.204 126.207 157.204H126.963C127.56 157.204 128.043 157.634 128.043 158.163V159.667H129.732C130.326 159.667 130.809 160.095 130.809 160.626V160.944H130.475L129.447 160.943C129.447 160.943 129.446 160.943 129.444 160.943C129.378 160.943 129.234 160.737 129.179 160.659C129.107 160.557 129.051 160.478 128.986 160.436C128.946 160.409 128.894 160.401 128.845 160.409C128.708 160.433 128.592 160.587 128.438 160.802C128.405 160.851 128.375 160.894 128.355 160.916C128.293 160.961 127.94 160.957 127.787 160.935C127.667 160.919 127.607 161.012 127.464 161.242C127.434 161.009 127.396 160.657 127.364 160.353C127.228 159.095 127.228 159.095 127.108 159.074C127.072 159.068 127.034 159.076 127.005 159.096C126.939 159.141 126.935 159.143 126.851 160.397C126.827 160.741 126.8 161.159 126.774 161.471C126.747 161.369 126.716 161.243 126.681 161.086L126.676 161.07C126.663 161.011 126.625 160.977 126.569 160.957C126.552 160.883 126.511 160.812 126.446 160.754C126.264 160.589 125.967 160.586 125.781 160.747Z" fill="#5F95DC"/>
<path d="M135.729 160.32V162.567H135.123V161.642H134.179V162.567H133.573V160.32H134.179V161.201H135.123V160.32H135.729Z" fill="#3D618F"/>
<path d="M136.224 161.671C136.224 161.488 136.262 161.326 136.337 161.188C136.416 161.049 136.521 160.942 136.653 160.868C136.786 160.793 136.933 160.756 137.097 160.756C137.236 160.756 137.358 160.781 137.462 160.832C137.568 160.884 137.65 160.951 137.707 161.034V160.781H138.313V162.567H137.707V162.315C137.648 162.398 137.565 162.465 137.458 162.516C137.354 162.567 137.233 162.593 137.093 162.593C136.932 162.593 136.786 162.556 136.653 162.481C136.521 162.404 136.416 162.296 136.337 162.158C136.262 162.017 136.224 161.855 136.224 161.671ZM137.707 161.674C137.707 161.538 137.664 161.43 137.579 161.351C137.496 161.272 137.394 161.233 137.274 161.233C137.153 161.233 137.05 161.272 136.965 161.351C136.883 161.428 136.841 161.535 136.841 161.671C136.841 161.808 136.883 161.917 136.965 161.998C137.05 162.077 137.153 162.116 137.274 162.116C137.394 162.116 137.496 162.077 137.579 161.998C137.664 161.919 137.707 161.811 137.707 161.674Z" fill="#3D618F"/>
<path d="M140.139 162.567L139.536 161.818V162.567H138.929V160.199H139.536V161.508L140.135 160.781H140.884L140.061 161.678L140.891 162.567H140.139Z" fill="#3D618F"/>
<path d="M141.604 160.596C141.498 160.596 141.41 160.568 141.342 160.512C141.276 160.455 141.243 160.384 141.243 160.301C141.243 160.216 141.276 160.145 141.342 160.09C141.41 160.032 141.498 160.003 141.604 160.003C141.708 160.003 141.794 160.032 141.86 160.09C141.928 160.145 141.963 160.216 141.963 160.301C141.963 160.384 141.928 160.455 141.86 160.512C141.794 160.568 141.708 160.596 141.604 160.596ZM141.906 160.781V162.567H141.299V160.781H141.906Z" fill="#3D618F"/>
<path d="M145.048 160.762C145.294 160.762 145.489 160.829 145.634 160.964C145.78 161.098 145.853 161.285 145.853 161.524V162.567H145.25V161.598C145.25 161.482 145.216 161.394 145.148 161.332C145.081 161.268 144.989 161.236 144.871 161.236C144.753 161.236 144.659 161.268 144.591 161.332C144.524 161.394 144.491 161.482 144.491 161.598V162.567H143.888V161.598C143.888 161.482 143.854 161.394 143.786 161.332C143.719 161.268 143.627 161.236 143.509 161.236C143.391 161.236 143.297 161.268 143.229 161.332C143.162 161.394 143.129 161.482 143.129 161.598V162.567H142.523V160.781H143.129V161.005C143.191 160.931 143.271 160.872 143.371 160.829C143.47 160.784 143.582 160.762 143.707 160.762C143.856 160.762 143.989 160.791 144.105 160.848C144.223 160.906 144.315 160.988 144.381 161.095C144.45 160.997 144.543 160.917 144.662 160.855C144.78 160.793 144.909 160.762 145.048 160.762Z" fill="#3D618F"/>
<path d="M148.612 160.32V162.567H148.005V161.642H147.062V162.567H146.455V160.32H147.062V161.201H148.005V160.32H148.612Z" fill="#5F95DC"/>
<path d="M151.181 160.781V162.567H150.575V162.324C150.513 162.403 150.429 162.467 150.323 162.516C150.219 162.563 150.103 162.587 149.975 162.587C149.824 162.587 149.69 162.557 149.574 162.497C149.459 162.435 149.369 162.347 149.305 162.231C149.241 162.116 149.209 161.981 149.209 161.825V160.781H149.812V161.751C149.812 161.871 149.846 161.964 149.915 162.03C149.984 162.096 150.076 162.129 150.192 162.129C150.31 162.129 150.403 162.096 150.472 162.03C150.54 161.964 150.575 161.871 150.575 161.751V160.781H151.181Z" fill="#5F95DC"/>
<path d="M152.401 161.034C152.458 160.951 152.539 160.884 152.646 160.833C152.752 160.781 152.874 160.756 153.011 160.756C153.174 160.756 153.322 160.793 153.454 160.868C153.587 160.942 153.691 161.049 153.766 161.188C153.845 161.327 153.884 161.488 153.884 161.671C153.884 161.855 153.845 162.017 153.766 162.158C153.691 162.296 153.587 162.404 153.454 162.481C153.322 162.556 153.174 162.593 153.011 162.593C152.871 162.593 152.75 162.569 152.646 162.519C152.542 162.468 152.46 162.401 152.401 162.318V162.567H151.794V160.199H152.401V161.034ZM153.266 161.671C153.266 161.535 153.224 161.428 153.139 161.351C153.056 161.272 152.953 161.233 152.83 161.233C152.709 161.233 152.607 161.272 152.521 161.351C152.439 161.43 152.397 161.538 152.397 161.674C152.397 161.811 152.439 161.919 152.521 161.998C152.607 162.077 152.709 162.116 152.83 162.116C152.951 162.116 153.054 162.077 153.139 161.998C153.224 161.917 153.266 161.808 153.266 161.671Z" fill="#5F95DC"/>
<path d="M119.525 216.285H97.3176C96.1121 216.285 95.1348 215.403 95.1348 214.315V188.621C95.1348 187.533 96.1121 186.651 97.3176 186.651H119.525C120.73 186.651 121.708 187.533 121.708 188.621V214.315C121.707 215.403 120.73 216.285 119.525 216.285Z" fill="#5F95DC"/>
<path d="M150.558 216.285H128.351C127.145 216.285 126.168 215.403 126.168 214.315V188.621C126.168 187.533 127.145 186.651 128.351 186.651H150.558C151.763 186.651 152.741 187.533 152.741 188.621V214.315C152.741 215.403 151.763 216.285 150.558 216.285Z" fill="#5F95DC"/>
<path d="M181.591 216.285H159.384C158.178 216.285 157.201 215.403 157.201 214.315V188.621C157.201 187.533 158.178 186.651 159.384 186.651H181.591C182.797 186.651 183.774 187.533 183.774 188.621V214.315C183.774 215.403 182.797 216.285 181.591 216.285Z" fill="#5F95DC"/>
<path d="M103.649 210.082V199.219H105.466V203.94H111.467V199.219H113.29V210.082H111.467V205.345H105.466V210.082H103.649Z" fill="#CFDFF5"/>
<g opacity="0.7">
<path d="M99.5572 188.379L100.071 189.32L101.222 189.47L100.389 190.203L100.586 191.237L99.5572 190.749L98.528 191.237L98.7245 190.203L97.8918 189.47L99.0426 189.32L99.5572 188.379Z" fill="white"/>
<path d="M104.086 188.379L104.601 189.32L105.751 189.47L104.919 190.203L105.115 191.237L104.086 190.749L103.057 191.237L103.254 190.203L102.421 189.47L103.572 189.32L104.086 188.379Z" fill="white"/>
<path d="M108.615 188.379L109.13 189.32L110.28 189.47L109.448 190.203L109.644 191.237L108.615 190.749L107.586 191.237L107.782 190.203L106.95 189.47L108.1 189.32L108.615 188.379Z" fill="white"/>
<path opacity="0.5" d="M113.144 188.379L113.659 189.32L114.809 189.47L113.977 190.203L114.173 191.237L113.144 190.749L112.115 191.237L112.311 190.203L111.479 189.47L112.63 189.32L113.144 188.379Z" fill="black"/>
<path opacity="0.5" d="M117.673 188.379L118.188 189.32L119.339 189.47L118.506 190.203L118.702 191.237L117.673 190.749L116.644 191.237L116.841 190.203L116.009 189.47L117.159 189.32L117.673 188.379Z" fill="black"/>
</g>
<g opacity="0.7">
<path d="M130.504 189.024L131.018 189.965L132.168 190.116L131.336 190.848L131.533 191.882L130.504 191.394L129.475 191.882L129.671 190.848L128.838 190.116L129.989 189.965L130.504 189.024Z" fill="white"/>
<path d="M135.033 189.024L135.547 189.965L136.698 190.116L135.865 190.848L136.062 191.882L135.033 191.394L134.004 191.882L134.2 190.848L133.367 190.116L134.518 189.965L135.033 189.024Z" fill="white"/>
<path d="M139.562 189.024L140.076 189.965L141.227 190.116L140.394 190.848L140.591 191.882L139.562 191.394L138.532 191.882L138.729 190.848L137.897 190.116L139.047 189.965L139.562 189.024Z" fill="white"/>
<path d="M144.091 189.024L144.605 189.965L145.756 190.116L144.923 190.848L145.12 191.882L144.091 191.394L143.062 191.882L143.258 190.848L142.426 190.116L143.576 189.965L144.091 189.024Z" fill="white"/>
<path d="M148.62 189.024L149.135 189.965L150.285 190.116L149.452 190.848L149.649 191.882L148.62 191.394L147.591 191.882L147.788 190.848L146.955 190.116L148.106 189.965L148.62 189.024Z" fill="white"/>
</g>
<path d="M135.316 210.284V199.42H137.132V204.141H143.134V199.42H144.956V210.284H143.134V205.547H137.132V210.284H135.316Z" fill="#CFDFF5"/>
<g opacity="0.7">
<path d="M161.45 189.024L161.964 189.965L163.115 190.116L162.282 190.848L162.479 191.882L161.45 191.394L160.42 191.882L160.617 190.848L159.785 190.116L160.935 189.965L161.45 189.024Z" fill="white"/>
<path d="M165.979 189.024L166.494 189.965L167.644 190.116L166.811 190.848L167.008 191.882L165.979 191.394L164.95 191.882L165.147 190.848L164.314 190.116L165.465 189.965L165.979 189.024Z" fill="white"/>
<path d="M170.508 189.024L171.023 189.965L172.173 190.116L171.341 190.848L171.537 191.882L170.508 191.394L169.479 191.882L169.675 190.848L168.843 190.116L169.994 189.965L170.508 189.024Z" fill="white"/>
<path d="M175.037 189.024L175.552 189.965L176.703 190.116L175.87 190.848L176.066 191.882L175.037 191.394L174.008 191.882L174.205 190.848L173.372 190.116L174.523 189.965L175.037 189.024Z" fill="white"/>
<path opacity="0.5" d="M179.566 189.024L180.081 189.965L181.232 190.116L180.399 190.848L180.595 191.882L179.566 191.394L178.537 191.882L178.734 190.848L177.901 190.116L179.052 189.965L179.566 189.024Z" fill="black"/>
</g>
<path d="M165.542 210.284V199.42H167.359V204.141H173.36V199.42H175.183V210.284H173.36V205.547H167.359V210.284H165.542Z" fill="#CFDFF5"/>
<path d="M181.401 181.941H97.5068C96.1963 181.941 95.134 180.983 95.134 179.8V173.976C95.134 172.793 96.1963 171.835 97.5068 171.835H181.401C182.712 171.835 183.774 172.793 183.774 173.976V179.8C183.774 180.983 182.712 181.941 181.401 181.941Z" fill="white"/>
<path d="M102.265 174.673C101.216 173.727 99.5162 173.727 98.4676 174.673C97.419 175.619 97.419 177.153 98.4676 178.099L100.366 179.813L102.265 178.099C103.313 177.153 103.313 175.619 102.265 174.673ZM100.366 177.343C99.781 177.343 99.306 176.915 99.306 176.386C99.306 175.858 99.781 175.429 100.366 175.429C100.951 175.429 101.426 175.857 101.426 176.386C101.426 176.914 100.952 177.343 100.366 177.343Z" fill="#5F95DC"/>
<path d="M108.598 178.74L107.879 177.434H107.677V178.74H106.834V175.28H108.248C108.521 175.28 108.753 175.328 108.943 175.423C109.137 175.518 109.282 175.65 109.377 175.817C109.472 175.981 109.52 176.165 109.52 176.369C109.52 176.599 109.454 176.804 109.323 176.985C109.195 177.166 109.004 177.294 108.751 177.37L109.549 178.74H108.598ZM107.677 176.837H108.199C108.353 176.837 108.468 176.8 108.544 176.724C108.623 176.648 108.662 176.542 108.662 176.404C108.662 176.272 108.623 176.169 108.544 176.093C108.468 176.018 108.353 175.98 108.199 175.98H107.677V176.837Z" fill="#3D618F"/>
<path d="M112.888 177.32C112.888 177.399 112.883 177.481 112.873 177.567H110.966C110.979 177.738 111.033 177.869 111.128 177.961C111.227 178.05 111.347 178.094 111.488 178.094C111.698 178.094 111.845 178.005 111.927 177.828H112.824C112.778 178.009 112.694 178.171 112.572 178.316C112.454 178.46 112.305 178.574 112.124 178.656C111.943 178.738 111.741 178.779 111.518 178.779C111.248 178.779 111.008 178.722 110.798 178.607C110.588 178.492 110.423 178.327 110.305 178.114C110.187 177.9 110.128 177.651 110.128 177.365C110.128 177.079 110.185 176.829 110.3 176.616C110.419 176.402 110.583 176.238 110.793 176.123C111.003 176.008 111.245 175.95 111.518 175.95C111.784 175.95 112.02 176.006 112.227 176.118C112.434 176.229 112.595 176.389 112.71 176.596C112.829 176.803 112.888 177.044 112.888 177.32ZM112.025 177.099C112.025 176.954 111.976 176.839 111.877 176.754C111.779 176.668 111.656 176.625 111.508 176.625C111.366 176.625 111.247 176.666 111.148 176.749C111.053 176.831 110.994 176.947 110.971 177.099H112.025Z" fill="#3D618F"/>
<path d="M113.411 177.365C113.411 177.079 113.469 176.829 113.584 176.616C113.702 176.402 113.865 176.238 114.072 176.123C114.282 176.008 114.522 175.95 114.791 175.95C115.136 175.95 115.424 176.041 115.654 176.221C115.887 176.402 116.04 176.657 116.112 176.985H115.215C115.139 176.775 114.993 176.67 114.776 176.67C114.622 176.67 114.499 176.731 114.407 176.852C114.315 176.97 114.269 177.141 114.269 177.365C114.269 177.588 114.315 177.761 114.407 177.882C114.499 178 114.622 178.06 114.776 178.06C114.993 178.06 115.139 177.954 115.215 177.744H116.112C116.04 178.066 115.887 178.319 115.654 178.503C115.42 178.687 115.133 178.779 114.791 178.779C114.522 178.779 114.282 178.722 114.072 178.607C113.865 178.492 113.702 178.327 113.584 178.114C113.469 177.9 113.411 177.651 113.411 177.365Z" fill="#3D618F"/>
<path d="M118.061 178.779C117.792 178.779 117.549 178.722 117.332 178.607C117.118 178.492 116.949 178.327 116.824 178.114C116.702 177.9 116.642 177.651 116.642 177.365C116.642 177.082 116.704 176.834 116.829 176.62C116.954 176.404 117.125 176.238 117.342 176.123C117.558 176.008 117.802 175.95 118.071 175.95C118.34 175.95 118.584 176.008 118.8 176.123C119.017 176.238 119.188 176.404 119.313 176.62C119.438 176.834 119.5 177.082 119.5 177.365C119.5 177.647 119.436 177.897 119.308 178.114C119.183 178.327 119.011 178.492 118.791 178.607C118.574 178.722 118.331 178.779 118.061 178.779ZM118.061 178.05C118.222 178.05 118.358 177.991 118.47 177.872C118.585 177.754 118.643 177.585 118.643 177.365C118.643 177.145 118.587 176.975 118.475 176.857C118.367 176.739 118.232 176.68 118.071 176.68C117.907 176.68 117.77 176.739 117.662 176.857C117.553 176.972 117.499 177.141 117.499 177.365C117.499 177.585 117.552 177.754 117.657 177.872C117.765 177.991 117.9 178.05 118.061 178.05Z" fill="#3D618F"/>
<path d="M123.703 175.96C124.045 175.96 124.316 176.064 124.516 176.271C124.72 176.478 124.822 176.765 124.822 177.133V178.74H123.984V177.246C123.984 177.069 123.936 176.933 123.841 176.837C123.749 176.739 123.621 176.689 123.457 176.689C123.292 176.689 123.162 176.739 123.067 176.837C122.975 176.933 122.929 177.069 122.929 177.246V178.74H122.091V177.246C122.091 177.069 122.044 176.933 121.948 176.837C121.856 176.739 121.728 176.689 121.564 176.689C121.4 176.689 121.27 176.739 121.175 176.837C121.083 176.933 121.037 177.069 121.037 177.246V178.74H120.194V175.99H121.037V176.335C121.122 176.22 121.234 176.129 121.372 176.064C121.51 175.995 121.666 175.96 121.84 175.96C122.047 175.96 122.231 176.004 122.392 176.093C122.556 176.182 122.684 176.308 122.776 176.473C122.872 176.321 123.001 176.198 123.166 176.103C123.33 176.008 123.509 175.96 123.703 175.96Z" fill="#3D618F"/>
<path d="M129.167 175.96C129.508 175.96 129.78 176.064 129.98 176.271C130.184 176.478 130.286 176.765 130.286 177.133V178.74H129.448V177.246C129.448 177.069 129.4 176.933 129.305 176.837C129.213 176.739 129.085 176.689 128.92 176.689C128.756 176.689 128.626 176.739 128.531 176.837C128.439 176.933 128.393 177.069 128.393 177.246V178.74H127.555V177.246C127.555 177.069 127.507 176.933 127.412 176.837C127.32 176.739 127.192 176.689 127.028 176.689C126.863 176.689 126.734 176.739 126.638 176.837C126.546 176.933 126.5 177.069 126.5 177.246V178.74H125.658V175.99H126.5V176.335C126.586 176.22 126.698 176.129 126.836 176.064C126.974 175.995 127.13 175.96 127.304 175.96C127.511 175.96 127.695 176.004 127.856 176.093C128.02 176.182 128.148 176.308 128.24 176.473C128.335 176.321 128.465 176.198 128.63 176.103C128.794 176.008 128.973 175.96 129.167 175.96Z" fill="#3D618F"/>
<path d="M133.714 177.32C133.714 177.399 133.709 177.481 133.699 177.567H131.792C131.805 177.738 131.859 177.869 131.954 177.961C132.053 178.05 132.173 178.094 132.314 178.094C132.524 178.094 132.671 178.005 132.753 177.828H133.65C133.604 178.009 133.52 178.171 133.398 178.316C133.28 178.46 133.131 178.574 132.95 178.656C132.769 178.738 132.567 178.779 132.344 178.779C132.074 178.779 131.834 178.722 131.624 178.607C131.414 178.492 131.25 178.327 131.131 178.114C131.013 177.9 130.954 177.651 130.954 177.365C130.954 177.079 131.011 176.829 131.126 176.616C131.245 176.402 131.409 176.238 131.619 176.123C131.829 176.008 132.071 175.95 132.344 175.95C132.61 175.95 132.846 176.006 133.053 176.118C133.26 176.229 133.421 176.389 133.536 176.596C133.655 176.803 133.714 177.044 133.714 177.32ZM132.851 177.099C132.851 176.954 132.802 176.839 132.703 176.754C132.605 176.668 132.482 176.625 132.334 176.625C132.193 176.625 132.073 176.666 131.974 176.749C131.879 176.831 131.82 176.947 131.797 177.099H132.851Z" fill="#3D618F"/>
<path d="M136.081 175.96C136.403 175.96 136.659 176.065 136.849 176.275C137.043 176.482 137.14 176.768 137.14 177.133V178.74H136.302V177.246C136.302 177.062 136.255 176.919 136.159 176.818C136.064 176.716 135.936 176.665 135.775 176.665C135.614 176.665 135.486 176.716 135.391 176.818C135.295 176.919 135.248 177.062 135.248 177.246V178.74H134.405V175.99H135.248V176.354C135.333 176.233 135.448 176.137 135.593 176.068C135.737 175.996 135.9 175.96 136.081 175.96Z" fill="#3D618F"/>
<path d="M137.805 177.36C137.805 177.077 137.857 176.829 137.962 176.616C138.071 176.402 138.217 176.238 138.401 176.123C138.585 176.008 138.79 175.95 139.017 175.95C139.198 175.95 139.362 175.988 139.51 176.064C139.661 176.139 139.779 176.241 139.865 176.369V175.093H140.708V178.74H139.865V178.345C139.786 178.477 139.673 178.582 139.525 178.661C139.38 178.74 139.211 178.779 139.017 178.779C138.79 178.779 138.585 178.722 138.401 178.607C138.217 178.488 138.071 178.322 137.962 178.109C137.857 177.892 137.805 177.642 137.805 177.36ZM139.865 177.365C139.865 177.154 139.806 176.988 139.687 176.867C139.572 176.745 139.431 176.685 139.264 176.685C139.096 176.685 138.953 176.745 138.835 176.867C138.72 176.985 138.662 177.149 138.662 177.36C138.662 177.57 138.72 177.738 138.835 177.862C138.953 177.984 139.096 178.045 139.264 178.045C139.431 178.045 139.572 177.984 139.687 177.862C139.806 177.741 139.865 177.575 139.865 177.365Z" fill="#3D618F"/>
<path d="M141.396 177.36C141.396 177.077 141.449 176.829 141.554 176.616C141.662 176.402 141.809 176.238 141.993 176.123C142.177 176.008 142.382 175.95 142.609 175.95C142.803 175.95 142.972 175.99 143.116 176.068C143.264 176.147 143.378 176.251 143.456 176.379V175.99H144.299V178.74H143.456V178.35C143.374 178.479 143.259 178.582 143.111 178.661C142.967 178.74 142.798 178.779 142.604 178.779C142.38 178.779 142.177 178.722 141.993 178.607C141.809 178.488 141.662 178.322 141.554 178.109C141.449 177.892 141.396 177.642 141.396 177.36ZM143.456 177.365C143.456 177.154 143.397 176.988 143.279 176.867C143.164 176.745 143.023 176.685 142.855 176.685C142.688 176.685 142.545 176.745 142.426 176.867C142.311 176.985 142.254 177.149 142.254 177.36C142.254 177.57 142.311 177.738 142.426 177.862C142.545 177.984 142.688 178.045 142.855 178.045C143.023 178.045 143.164 177.984 143.279 177.862C143.397 177.741 143.456 177.575 143.456 177.365Z" fill="#3D618F"/>
<path d="M146.688 178.025V178.74H146.259C145.954 178.74 145.716 178.666 145.545 178.518C145.374 178.367 145.288 178.122 145.288 177.784V176.689H144.953V175.99H145.288V175.319H146.131V175.99H146.683V176.689H146.131V177.793C146.131 177.876 146.151 177.935 146.19 177.971C146.23 178.007 146.295 178.025 146.387 178.025H146.688Z" fill="#3D618F"/>
<path d="M147.828 175.704C147.68 175.704 147.558 175.661 147.463 175.576C147.371 175.487 147.325 175.378 147.325 175.25C147.325 175.119 147.371 175.01 147.463 174.925C147.558 174.836 147.68 174.792 147.828 174.792C147.972 174.792 148.091 174.836 148.183 174.925C148.278 175.01 148.326 175.119 148.326 175.25C148.326 175.378 148.278 175.487 148.183 175.576C148.091 175.661 147.972 175.704 147.828 175.704ZM148.247 175.99V178.74H147.404V175.99H148.247Z" fill="#3D618F"/>
<path d="M150.356 178.779C150.086 178.779 149.843 178.722 149.626 178.607C149.413 178.492 149.244 178.327 149.119 178.114C148.997 177.9 148.936 177.651 148.936 177.365C148.936 177.082 148.999 176.834 149.124 176.62C149.249 176.404 149.419 176.238 149.636 176.123C149.853 176.008 150.096 175.95 150.366 175.95C150.635 175.95 150.878 176.008 151.095 176.123C151.312 176.238 151.483 176.404 151.608 176.62C151.733 176.834 151.795 177.082 151.795 177.365C151.795 177.647 151.731 177.897 151.603 178.114C151.478 178.327 151.305 178.492 151.085 178.607C150.868 178.722 150.625 178.779 150.356 178.779ZM150.356 178.05C150.517 178.05 150.653 177.991 150.765 177.872C150.88 177.754 150.937 177.585 150.937 177.365C150.937 177.145 150.882 176.975 150.77 176.857C150.661 176.739 150.527 176.68 150.366 176.68C150.201 176.68 150.065 176.739 149.957 176.857C149.848 176.972 149.794 177.141 149.794 177.365C149.794 177.585 149.847 177.754 149.952 177.872C150.06 177.991 150.195 178.05 150.356 178.05Z" fill="#3D618F"/>
<path d="M154.164 175.96C154.486 175.96 154.742 176.065 154.933 176.275C155.127 176.482 155.224 176.768 155.224 177.133V178.74H154.386V177.246C154.386 177.062 154.338 176.919 154.243 176.818C154.148 176.716 154.02 176.665 153.859 176.665C153.698 176.665 153.569 176.716 153.474 176.818C153.379 176.919 153.331 177.062 153.331 177.246V178.74H152.488V175.99H153.331V176.354C153.417 176.233 153.532 176.137 153.676 176.068C153.821 175.996 153.983 175.96 154.164 175.96Z" fill="#3D618F"/>
<path d="M179.06 178.715L181.084 176.888L179.06 175.061" stroke="#5F95DC" stroke-miterlimit="10" stroke-linecap="round" stroke-linejoin="round"/>
<path opacity="0.6" d="M99.8988 44.1897H101.366V42.4244H99.8988V44.1897Z" fill="white"/>
<path opacity="0.6" d="M97.5077 44.1892H98.9751V41.8349H97.5077V44.1892Z" fill="white"/>
<path opacity="0.6" d="M95.1165 44.1895H96.584V41.2467H95.1165V44.1895Z" fill="white"/>
<path opacity="0.6" d="M92.7249 44.1895H94.1924V40.6576H92.7249V44.1895Z" fill="white"/>
<path opacity="0.6" d="M178.657 41.78H177.787V43.5453H178.657V41.78Z" fill="white"/>
<path opacity="0.6" d="M179.255 44.189H186.184V41.1351H179.255V44.189Z" fill="white"/>
<g opacity="0.5">
<path d="M189.141 119.119V92.9969L188.759 93.0813L182.275 69.8821H169.155L151.314 73.9478L150.177 69.8821H145.967L154.625 100.856L136.179 105.058L133.862 96.7768L142.073 94.9063C142.894 94.718 143.39 93.9711 143.182 93.2307L137.079 71.3954L143.722 69.8821H133.495L139.835 92.5617L133.113 94.0945L126.341 69.8821H119.439L124.002 86.1969L117.539 87.6712L93.0844 69.8821H89.7666V71.0122L102.966 80.6179L89.7666 92.9839V96.9717L105.362 82.3585L116.208 90.2561C116.582 90.5289 117.079 90.6263 117.547 90.5159L124.751 88.8792L129.688 106.538L92.2567 115.066L89.7666 106.162V121.866L90.9253 121.6L92.8541 128.497L89.7666 129.199V132.05L93.6025 131.179L95.9055 139.415L89.7666 148.696V151.657H91.3715L92.8469 149.43L93.473 151.657H96.6324L95.0707 146.072L98.8634 140.337C99.0722 140.025 99.1297 139.649 99.029 139.291L93.8904 120.924L113.696 116.41L122.073 146.371L119.303 151.657H122.692L124.772 147.696L140.217 144.175L142.311 151.657H149.213L143.542 131.381L161.987 127.179L168.839 151.657H173.049L165.953 126.276L175.769 124.042L183.621 128.27L189.141 148.007V136.694L186.816 128.38L189.141 127.848V124.996L185.197 125.899L177.345 121.665L172.149 103.096L183.909 100.42L189.141 119.119ZM124.808 144.838L116.668 115.735L131.329 112.397L139.468 141.493L124.808 144.838ZM142.793 128.698L137.82 110.916L156.266 106.714L161.239 124.496L142.793 128.698ZM174.15 121.561L165.204 123.594L160.231 105.811L169.177 103.772L174.15 121.561ZM158.59 99.9528L152.063 76.6301L175.748 71.233L182.275 94.5621L158.59 99.9528Z" fill="white"/>
</g>
<path d="M183.1 98.8079C182.052 97.8616 180.352 97.8616 179.303 98.8079C178.254 99.7541 178.254 101.288 179.303 102.234L181.202 103.948L183.1 102.234C184.148 101.288 184.148 99.7541 183.1 98.8079ZM181.202 101.477C180.616 101.477 180.141 101.049 180.141 100.521C180.141 99.9925 180.616 99.5638 181.202 99.5638C181.787 99.5638 182.262 99.9918 182.262 100.521C182.261 101.049 181.787 101.477 181.202 101.477Z" fill="#5F95DC"/>
<path d="M175.389 75.4255C174.341 74.4792 172.641 74.4792 171.592 75.4255C170.544 76.3718 170.544 77.9059 171.592 78.8522L173.491 80.5655L175.389 78.8522C176.438 77.9059 176.438 76.3718 175.389 75.4255ZM173.491 78.0955C172.906 78.0955 172.431 77.6675 172.431 77.1388C172.431 76.6102 172.906 76.1822 173.491 76.1822C174.076 76.1822 174.551 76.6102 174.551 77.1388C174.551 77.6675 174.076 78.0955 173.491 78.0955Z" fill="#5F95DC"/>
<path d="M156.646 107.277C155.598 106.331 153.898 106.331 152.849 107.277C151.801 108.223 151.801 109.757 152.849 110.704L154.748 112.417L156.646 110.704C157.695 109.757 157.695 108.223 156.646 107.277ZM154.748 109.947C154.163 109.947 153.688 109.519 153.688 108.99C153.688 108.462 154.163 108.034 154.748 108.034C155.333 108.034 155.808 108.462 155.808 108.99C155.807 109.518 155.333 109.947 154.748 109.947Z" fill="#5F95DC"/>
<path d="M138.682 142.623C137.633 141.677 135.933 141.677 134.885 142.623C133.836 143.569 133.836 145.103 134.885 146.049L136.783 147.763L138.682 146.049C139.73 145.103 139.73 143.569 138.682 142.623ZM136.783 145.293C136.198 145.293 135.723 144.865 135.723 144.336C135.723 143.808 136.198 143.379 136.783 143.379C137.368 143.379 137.843 143.807 137.843 144.336C137.843 144.865 137.369 145.293 136.783 145.293Z" fill="#5F95DC"/>
<path d="M107.972 72.501C106.923 71.5547 105.223 71.5547 104.175 72.501C103.126 73.4473 103.126 74.9813 104.175 75.9276L106.073 77.6409L107.972 75.9276C109.021 74.9813 109.021 73.4473 107.972 72.501ZM106.073 75.171C105.488 75.171 105.013 74.743 105.013 74.2143C105.013 73.6863 105.488 73.2576 106.073 73.2576C106.659 73.2576 107.134 73.6856 107.134 74.2143C107.133 74.7423 106.659 75.171 106.073 75.171Z" fill="#5F95DC"/>
<path d="M98.1943 117.953C97.1458 117.007 95.4459 117.007 94.3973 117.953C93.3487 118.899 93.3487 120.433 94.3973 121.38L96.2958 123.093L98.1943 121.38C99.2429 120.433 99.2429 118.899 98.1943 117.953ZM96.2958 120.623C95.7107 120.623 95.2357 120.195 95.2357 119.666C95.2357 119.138 95.7107 118.71 96.2958 118.71C96.8809 118.71 97.3559 119.138 97.3559 119.666C97.3559 120.195 96.8809 120.623 96.2958 120.623Z" fill="#5F95DC"/>
<path d="M137.816 87.8604H114.52C113.214 87.8604 112.156 88.8157 112.156 89.9945V113.347C112.156 114.526 113.214 115.481 114.52 115.481H124.548L126.169 119.874L127.789 115.481H137.817C139.123 115.481 140.182 114.526 140.182 113.347V89.9945C140.181 88.8157 139.121 87.8604 137.816 87.8604Z" fill="#5F95DC"/>
<g opacity="0.7">
<path d="M117.11 90.8843L117.625 91.8247L118.775 91.976L117.943 92.708L118.139 93.742L117.11 93.2542L116.081 93.742L116.277 92.708L115.445 91.976L116.595 91.8247L117.11 90.8843Z" fill="white"/>
<path d="M121.639 90.8843L122.154 91.8247L123.304 91.976L122.472 92.708L122.668 93.742L121.639 93.2542L120.61 93.742L120.806 92.708L119.974 91.976L121.124 91.8247L121.639 90.8843Z" fill="white"/>
<path d="M126.168 90.8843L126.682 91.8247L127.833 91.976L127 92.708L127.197 93.742L126.168 93.2542L125.139 93.742L125.335 92.708L124.503 91.976L125.653 91.8247L126.168 90.8843Z" fill="white"/>
<path d="M130.697 90.8843L131.211 91.8247L132.362 91.976L131.53 92.708L131.726 93.742L130.697 93.2542L129.668 93.742L129.865 92.708L129.032 91.976L130.182 91.8247L130.697 90.8843Z" fill="white"/>
<path opacity="0.5" d="M135.227 90.8843L135.74 91.8247L136.891 91.976L136.059 92.708L136.255 93.742L135.227 93.2542L134.197 93.742L134.394 92.708L133.561 91.976L134.712 91.8247L135.227 90.8843Z" fill="black"/>
</g>
<path d="M121.642 109.615V98.7515H123.458V103.473H129.46V98.7515H131.282V109.615H129.46V104.878H123.458V109.615H121.642Z" fill="#CFDFF5"/>
<path d="M177.13 146.462C180.293 146.462 182.858 144.148 182.858 141.293C182.858 138.439 180.293 136.125 177.13 136.125C173.967 136.125 171.403 138.439 171.403 141.293C171.403 144.148 173.967 146.462 177.13 146.462Z" stroke="#5F95DC" stroke-miterlimit="10" stroke-linecap="round" stroke-linejoin="round"/>
<path d="M177.13 143.877C178.712 143.877 179.994 142.72 179.994 141.293C179.994 139.866 178.712 138.709 177.13 138.709C175.549 138.709 174.267 139.866 174.267 141.293C174.267 142.72 175.549 143.877 177.13 143.877Z" fill="#5F95DC"/>
<path d="M177.13 136.129V134.116" stroke="#5F95DC" stroke-miterlimit="10" stroke-linecap="round" stroke-linejoin="round"/>
<path d="M177.13 148.469V146.457" stroke="#5F95DC" stroke-miterlimit="10" stroke-linecap="round" stroke-linejoin="round"/>
<path d="M182.853 141.293H185.083" stroke="#5F95DC" stroke-miterlimit="10" stroke-linecap="round" stroke-linejoin="round"/>
<path d="M169.178 141.293H171.409" stroke="#5F95DC" stroke-miterlimit="10" stroke-linecap="round" stroke-linejoin="round"/>
<path d="M263.385 61.9749C267.639 63.2906 270.296 82.7405 271.632 86.5522C272.633 89.4086 282.288 107.325 282.288 107.325C282.288 107.325 291.159 109.79 290.328 111.172C289.497 112.553 287.143 114.763 285.759 115.039C284.374 115.315 280.08 111.862 279.665 110.895C279.25 109.928 279.25 108.249 279.25 108.249C279.25 108.249 268.948 92.7511 267.659 89.4875C266.685 87.0244 260.3 70.581 260.3 70.581C260.3 70.581 259.054 68.6374 260.3 65.6183C261.546 62.5999 263.385 61.9749 263.385 61.9749Z" fill="#E4897B"/>
<path d="M235.677 63.3965C231.792 63.7087 225.214 79.5626 225.214 79.5626L220.228 78.2587C220.228 78.2587 216.735 88.5731 222.509 90.0467C228.284 91.5203 236.354 75.9415 236.354 75.9415L235.677 63.3965Z" fill="#5F95DC"/>
<path opacity="0.6" d="M236.352 75.9418C236.352 75.9418 234.118 80.2508 231.164 84.1269C228.503 87.6118 225.247 90.7475 222.51 90.0491C216.734 88.5755 220.227 78.2605 220.227 78.2605L225.212 79.5594C225.212 79.5594 231.794 63.7062 235.679 63.3989L236.338 75.6974L236.352 75.9418Z" fill="white"/>
<path opacity="0.2" d="M236.351 75.9418C236.351 75.9418 234.118 80.2508 231.163 84.1269C230.064 78.1627 235.021 73.4766 235.021 73.4766L236.337 75.6974L236.351 75.9418Z" fill="black"/>
<path d="M238.052 33.706H243.398C243.398 33.706 245.667 30.0248 249.788 31.6828C253.909 33.3407 258.064 35.1363 259.034 37.7608C260.003 40.3853 259.034 44.4987 259.034 44.4987C259.034 44.4987 262.929 47.807 263.881 51.6676C264.642 54.7517 261.526 56.2008 261.526 56.2008C261.526 56.2008 262.08 55.0974 261.388 54.061C261.388 54.061 260.556 55.9592 257.648 57.013C254.74 58.0669 245.371 59.6222 240.497 57.013C237.163 55.228 237.236 52.7787 237.236 52.7787C235.835 54.2677 236.942 56.2008 236.942 56.2008C236.942 56.2008 233.635 53.9897 235.31 47.3733C236.984 40.7568 232.629 36.3451 238.052 33.706Z" fill="#263238"/>
<path d="M251.909 130.127C252.831 132.567 253.678 135.037 254.446 137.462C258.336 149.738 260.328 164.327 260.328 164.327C270.734 185.302 278.035 216.823 278.035 216.823L274.184 218.106L248.885 162.006L241.377 142.705L251.909 130.127Z" fill="#E4897B"/>
<path d="M278.197 213.895C277.964 213.443 272.501 216.532 272.501 216.532C272.501 216.532 270.746 221.73 267.763 224.153C264.779 226.576 267.643 227.68 271.409 225.856C275.174 224.032 278.047 222.64 280.722 221.345C283.397 220.049 280.618 218.585 278.197 213.895Z" fill="#263238"/>
<path d="M270.236 219.408C270.03 219.507 269.837 219.553 269.673 219.514C269.52 219.477 269.322 219.354 269.244 218.98C269.207 218.799 269.246 218.622 269.36 218.454C269.576 218.138 270.059 217.889 270.557 217.704C269.98 217.681 269.434 217.579 269.272 217.292C269.168 217.105 269.215 216.886 269.413 216.64C269.599 216.41 269.841 216.284 270.133 216.267C271.047 216.214 272.154 217.287 272.211 217.343C272.227 217.358 272.24 217.377 272.249 217.399C272.249 217.399 272.249 217.399 272.249 217.399C272.256 217.416 272.26 217.434 272.261 217.452V217.452C272.262 217.47 272.26 217.489 272.255 217.505V217.506C272.249 217.527 272.24 217.547 272.225 217.563C271.997 217.848 271.024 219.026 270.236 219.408ZM270.239 218.195C269.968 218.326 269.746 218.475 269.634 218.639C269.571 218.732 269.549 218.822 269.568 218.914C269.619 219.162 269.718 219.185 269.75 219.193C270.122 219.283 271.003 218.472 271.663 217.719C271.232 217.821 270.673 217.984 270.239 218.195ZM269.901 216.659C269.815 216.701 269.739 216.763 269.672 216.847C269.613 216.92 269.52 217.056 269.562 217.132C269.7 217.378 270.719 217.424 271.708 217.336C271.343 217.036 270.684 216.565 270.153 216.596C270.06 216.602 269.977 216.622 269.901 216.659Z" fill="#5F95DC"/>
<path d="M235.069 129.987C236.49 138.808 238.695 145.54 241.097 151.127C244.234 158.397 247.699 163.747 250.22 169.264C254.673 179.027 266.19 202.235 266.19 202.235L273.898 196.431C273.898 196.431 261.597 166.869 260.764 161.065C260.225 157.308 259.706 137.104 259.405 123.332C259.244 115.824 259.146 110.23 259.146 110.23L237.127 92.6936C237.127 92.6936 231.806 109.685 235.069 129.987Z" fill="#263238"/>
<path opacity="0.2" d="M241.097 151.127C244.234 158.397 247.699 163.747 250.22 169.264C254.673 179.028 266.19 202.235 266.19 202.235L273.898 196.431C273.898 196.431 261.597 166.869 260.764 161.065C260.225 157.308 259.707 137.104 259.405 123.332L252.887 109.678L244.437 113.066L247.195 123.653L241.097 151.127Z" fill="black"/>
<path d="M249.155 173.499C243.349 195.546 232.441 221.704 232.441 221.704L228.66 220.238L239.739 173.499H249.155Z" fill="#E4897B"/>
<path d="M234.442 219.553C234.551 219.056 228.369 217.957 228.369 217.957C228.369 217.957 223.692 220.842 219.845 220.808C215.998 220.774 217.497 223.447 221.563 224.439C225.628 225.431 228.731 226.189 231.62 226.894C234.508 227.599 233.305 224.704 234.442 219.553Z" fill="#263238"/>
<path d="M224.785 218.73C224.563 218.675 224.386 218.587 224.284 218.453C224.19 218.328 224.115 218.107 224.296 217.77C224.383 217.607 224.526 217.495 224.722 217.438C225.09 217.333 225.621 217.448 226.123 217.623C225.693 217.239 225.338 216.813 225.397 216.489C225.436 216.278 225.614 216.14 225.923 216.076C226.213 216.018 226.48 216.074 226.716 216.247C227.454 216.789 227.62 218.319 227.627 218.398C227.63 218.42 227.628 218.443 227.621 218.465L227.62 218.466C227.615 218.484 227.607 218.499 227.596 218.513L227.596 218.514C227.584 218.528 227.571 218.541 227.557 218.551L227.556 218.552C227.539 218.563 227.519 218.572 227.496 218.577C227.14 218.65 225.636 218.938 224.785 218.73ZM225.564 217.797C225.272 217.726 225.006 217.7 224.814 217.755C224.706 217.786 224.632 217.841 224.588 217.924C224.469 218.148 224.53 218.228 224.549 218.255C224.779 218.561 225.976 218.498 226.966 218.339C226.568 218.143 226.032 217.912 225.564 217.797ZM226.286 216.401C226.193 216.378 226.095 216.378 225.99 216.4C225.897 216.418 225.739 216.464 225.724 216.549C225.672 216.827 226.426 217.51 227.244 218.072C227.157 217.609 226.949 216.827 226.521 216.513C226.445 216.458 226.368 216.42 226.286 216.401Z" fill="#5F95DC"/>
<path d="M260.416 90.3394C260.416 90.3394 268.95 108.296 265.934 125.242C262.918 142.187 253.804 163.937 251.347 169.214C248.89 174.49 239.714 205.732 239.714 205.732L231.774 203.154C231.774 203.154 238.868 172.145 241.097 161.343C242.149 156.24 251.162 119.9 251.162 119.9C251.162 119.9 235.72 108.455 236.813 90.5433L260.416 90.3394Z" fill="#263238"/>
<path d="M251.973 94.3839L239.634 94.5711L239.489 90.8701L251.841 91.0021L251.973 94.3839Z" fill="black"/>
<path d="M238.402 90.8591L238.548 94.5873L237.3 94.6069L236.96 90.8438L238.402 90.8591Z" fill="black"/>
<path d="M252.929 91.0139L259.476 91.0837L259.764 94.2659L253.06 94.3671L252.929 91.0139Z" fill="black"/>
<path d="M242.371 94.772L247.174 94.769L247.172 91.1358L242.369 91.1388L242.371 94.772Z" fill="white"/>
<path d="M263.385 61.9748C263.385 61.9748 247.872 58.5653 235.068 63.5385C235.068 63.5385 234.189 77.0291 236.959 90.8431L260.66 91.0135C260.66 91.0135 259.379 84.5772 264.642 72.1237L263.385 61.9748Z" fill="#5F95DC"/>
<path d="M246.045 65.619C251.494 64.2809 252.886 61.7318 252.886 61.7318C250.381 59.8664 250.433 56.6832 250.786 54.6607C250.975 53.5426 251.261 52.7786 251.261 52.7786L244.746 54.7801C245.046 55.8563 245.228 56.7705 245.324 57.5471C245.436 58.3991 245.436 59.0807 245.372 59.6227C245.147 61.6585 244.017 61.8156 244.017 61.8156C243.097 64.1279 246.045 65.619 246.045 65.619Z" fill="#E4897B"/>
<path opacity="0.2" d="M245.324 57.5473C245.436 58.3992 245.436 59.0807 245.371 59.6226C247.974 58.9746 249.736 56.6367 250.785 54.6612C250.974 53.5432 251.26 52.7793 251.26 52.7793L244.745 54.7806C245.045 55.8567 245.228 56.7708 245.324 57.5473Z" fill="black"/>
<path d="M243.995 36.2408C238.23 37.1152 236.844 40.4751 237.325 46.4644C237.927 53.9489 240.374 58.9605 247.341 56.2857C256.802 52.652 253.567 34.7882 243.995 36.2408Z" fill="#E4897B"/>
<path d="M241.003 45.5776C241.003 45.5776 240.433 47.2005 239.689 48.2165C239.689 48.2165 240.302 48.9239 241.309 48.6362L241.003 45.5776Z" fill="#DE5753"/>
<path d="M244.459 44.5724C244.52 45.0465 244.826 45.3978 245.143 45.3573C245.461 45.3168 245.668 44.8999 245.607 44.4258C245.546 43.9516 245.24 43.6004 244.923 43.6409C244.605 43.6814 244.398 44.0983 244.459 44.5724Z" fill="#263238"/>
<path d="M245.058 43.6464L243.972 43.374C243.972 43.374 244.598 44.1757 245.058 43.6464Z" fill="#263238"/>
<path d="M238.539 45.2289C238.6 45.703 238.906 46.0543 239.223 46.0138C239.541 45.9733 239.748 45.5564 239.687 45.0823C239.626 44.6081 239.32 44.2569 239.002 44.2974C238.686 44.3379 238.478 44.7554 238.539 45.2289Z" fill="#263238"/>
<path d="M239.138 44.3033L238.052 44.031C238.052 44.031 238.678 44.8326 239.138 44.3033Z" fill="#263238"/>
<path d="M243.912 40.5932C243.912 40.5932 245.5 40.1372 246.544 41.0834" stroke="#263238" stroke-width="0.686957" stroke-miterlimit="10" stroke-linecap="round" stroke-linejoin="round"/>
<path d="M239.685 40.9857C239.685 40.9857 238.609 40.7644 237.46 41.8069" stroke="#263238" stroke-width="0.686957" stroke-miterlimit="10" stroke-linecap="round" stroke-linejoin="round"/>
<path d="M251.772 44.9755C251.772 44.9755 248.357 40.6602 248.209 36.9511C248.209 36.9511 236.076 34.0291 237.276 45.6794C237.276 45.6794 234.595 35.5795 244.469 33.8475C254.327 32.1183 256.505 46.5818 252.045 51.6667C252.044 51.6674 253.889 47.6775 251.772 44.9755Z" fill="#263238"/>
<path d="M251.015 46.3323C250.912 45.4008 251.631 43.6893 253.386 43.6152C255.202 43.5384 256.61 47.0669 252.302 48.6199C251.684 48.8427 251.229 48.2757 251.015 46.3323Z" fill="#E4897B"/>
<path d="M249.789 32.6261C249.789 32.6261 246.266 30.6127 243.475 31.0667C240.683 31.5206 239.954 33.2707 239.954 33.2707C239.954 33.2707 238.468 32.3496 236.529 33.2707C234.591 34.1919 232.467 37.9206 232.744 42.687C233.021 47.4534 236.944 48.0059 236.944 48.0059C236.944 48.0059 234.035 40.1603 240.498 37.6363C240.498 37.6363 242.83 36.1257 244.434 37.9673C246.038 39.809 245.865 45.3744 251.26 43.3742C256.655 41.3747 253.248 34.766 249.789 32.6261Z" fill="#263238"/>
<path d="M244.746 49.1345C244.746 49.1345 243.801 50.9759 242.139 51.0681" stroke="#263238" stroke-width="0.686957" stroke-miterlimit="10" stroke-linecap="round" stroke-linejoin="round"/>
<path d="M256.331 59.6228C256.331 59.6228 251.987 68.0739 244.51 71.8542L260.015 97.4499L264.799 94.8756C264.799 94.8756 261.818 86.1396 261.741 84.115C261.666 82.0904 266.538 65.5046 265.544 62.9611C264.55 60.4183 256.331 59.6228 256.331 59.6228Z" fill="#5F95DC"/>
<path opacity="0.6" d="M261.738 84.1128C261.815 86.1381 264.798 94.8748 264.798 94.8748L260.016 97.4519L244.508 71.8562C251.985 68.071 256.333 59.6206 256.333 59.6206C256.333 59.6206 264.553 60.4168 265.547 62.9589C266.058 64.2648 265.029 69.2513 263.909 74.0771C263.104 77.569 262.249 80.9841 261.899 82.8487C261.787 83.4424 261.731 83.8754 261.738 84.1128Z" fill="white"/>
<path d="M240.75 61.4778C240.75 61.4778 241.07 69.6712 246.544 73.1708L237.237 97.6385H234.936L235.311 88.5156C235.311 88.5156 232.707 70.2997 235.068 63.5387L240.75 61.4778Z" fill="#5F95DC"/>
<path opacity="0.6" d="M240.75 61.4778C240.75 61.4778 241.07 69.6712 246.544 73.1708L237.237 97.6385H234.936L235.311 88.5156C235.311 88.5156 232.707 70.2997 235.068 63.5387L240.75 61.4778Z" fill="white"/>
<path d="M246.545 72.7701C246.545 73.1605 246.227 73.4775 245.835 73.4775C245.443 73.4775 245.125 73.1612 245.125 72.7701C245.125 72.3798 245.443 72.0627 245.835 72.0627C246.227 72.0627 246.545 72.3798 246.545 72.7701Z" fill="#263238"/>
<path d="M230.961 70.7804C231.002 71.1345 230.743 71.4215 230.383 71.4215H223.984C223.624 71.4215 223.3 71.1345 223.259 70.7804L221.83 58.183C221.79 57.8289 222.049 57.4546 222.408 57.4546H228.808C229.168 57.4546 229.492 57.8289 229.532 58.183L230.961 70.7804Z" fill="#263238"/>
<path opacity="0.5" d="M228.823 58.1001L230.271 70.8197C230.312 71.178 230.125 71.4217 229.768 71.4217H224.342C223.977 71.4217 223.31 71.222 223.27 70.863L221.822 58.1001C221.781 57.7411 222.402 57.4541 222.766 57.4541H228.192C228.549 57.4541 228.782 57.7411 228.823 58.1001Z" fill="white"/>
<path d="M221.826 78.8018L223.958 72.5059C223.958 72.5059 222.366 69.5566 222.508 68.1061C222.651 66.6555 226.529 65.6191 226.736 65.9648C226.944 66.3098 228.242 70.5231 227.766 71.6287C227.29 72.7335 226.321 73.5625 226.321 73.5625L224.887 79.4778L221.826 78.8018Z" fill="#E4897B"/>
<path opacity="0.2" d="M263.909 74.0771C263.104 77.569 262.25 80.9841 261.899 82.8487C259.89 77.2687 261.731 71.6516 261.731 71.6516L263.909 74.0771Z" fill="black"/>
<path d="M264.715 61.9749C267.344 64.5603 270.381 80.1062 272.052 85.5578C273.722 91.0093 278.976 99.0959 278.976 99.0959L273.898 101.03C273.898 101.03 266.644 89.2878 265.678 87.2157C264.712 85.1436 262.307 78.5369 262.307 78.5369C262.307 78.5369 261.01 72.4345 262.307 67.5996C263.604 62.764 264.715 61.9749 264.715 61.9749Z" fill="#5F95DC"/>
<path opacity="0.6" d="M264.715 61.9749C267.344 64.5603 270.381 80.1062 272.052 85.5578C273.722 91.0093 278.976 99.0959 278.976 99.0959L273.898 101.03C273.898 101.03 266.644 89.2878 265.678 87.2157C264.712 85.1436 262.307 78.5369 262.307 78.5369C262.307 78.5369 261.01 72.4345 262.307 67.5996C263.604 62.764 264.715 61.9749 264.715 61.9749Z" fill="white"/>
</svg>
