<svg width="380" height="242" viewBox="0 0 380 242" fill="none" xmlns="http://www.w3.org/2000/svg">
<path d="M316.661 22.6749C316.971 22.8898 348.774 35.7735 365.859 61.3452C382.945 86.9168 365.427 65.6039 348.637 51.9746C334.891 40.8158 305.521 26.2513 308.846 22.6749C312.171 19.0986 316.661 22.6749 316.661 22.6749Z" fill="#D1E3F9"/>
<path d="M351.222 214.409C351.222 214.409 390.804 168.061 376.411 104.135C362.017 40.2093 285.73 24.4506 234.632 49.7063C183.535 74.962 111.566 82.7592 84.9376 32.4184C58.3092 -17.9224 -42.447 90.9987 20.1658 214.409H351.222Z" fill="#E0EDFD"/>
<path d="M48.2039 214.408C48.2039 214.408 17.0199 149.617 74.2494 126.288C131.479 102.96 78.805 191.276 136.984 187.895C159.619 186.581 202.562 160.119 189.651 99.9838C181.965 64.1886 272.278 85.5331 287.334 214.415H48.2039V214.408Z" fill="white"/>
<path d="M373.761 78.9111C373.761 78.9111 376.158 85.4951 378.202 86.7588C380.246 88.0226 380.598 84.124 378.202 80.3328C375.805 76.5416 372.56 75.9982 373.761 78.9111Z" fill="#B2E7FE"/>
<path d="M9.96001 160.131C9.96001 160.131 4.20252 133.631 9.96001 112.931C15.7175 92.2308 12.263 119.268 12.3566 131.912C12.4789 147.209 15.7175 180.01 9.96001 160.131Z" fill="white"/>
<path d="M12.8313 99.0803C12.8313 99.0803 12.8961 92.7617 14.6953 91.3905C16.4946 90.0194 15.4654 98.1578 14.6953 99.769C13.7957 101.658 12.7306 100.982 12.8313 99.0803Z" fill="white"/>
<mask id="mask0_486_5309" style="mask-type:luminance" maskUnits="userSpaceOnUse" x="133" y="18" width="98" height="208">
<path d="M221.39 18.9316H142.045C137.231 18.9316 133.329 23.044 133.329 28.1168V216.189C133.329 221.262 137.231 225.374 142.045 225.374H221.39C226.204 225.374 230.106 221.262 230.106 216.189V28.1168C230.106 23.044 226.204 18.9316 221.39 18.9316Z" fill="white"/>
</mask>
<g mask="url(#mask0_486_5309)">
<mask id="mask1_486_5309" style="mask-type:luminance" maskUnits="userSpaceOnUse" x="129" y="15" width="105" height="214">
<path d="M233.099 15.3591H129.932V228.529H233.099V15.3591Z" fill="white"/>
</mask>
<g mask="url(#mask1_486_5309)">
<mask id="mask2_486_5309" style="mask-type:luminance" maskUnits="userSpaceOnUse" x="129" y="15" width="105" height="214">
<path d="M233.099 15.3591H129.932V228.529H233.099V15.3591Z" fill="white"/>
</mask>
<g mask="url(#mask2_486_5309)">
<rect x="129" y="16" width="104" height="213" fill="#EFF4FB"/>
</g>
</g>
</g>
<path d="M220.282 42.3157H144.693C144.141 42.3157 143.693 42.7877 143.693 43.37V51.4022C143.693 51.9845 144.141 52.4565 144.693 52.4565H220.282C220.834 52.4565 221.282 51.9845 221.282 51.4022V43.37C221.282 42.7877 220.834 42.3157 220.282 42.3157Z" fill="url(#paint0_linear_486_5309)"/>
<path d="M220.282 58.6455H144.693C144.141 58.6455 143.693 59.1175 143.693 59.6998V96.9487C143.693 97.5309 144.141 98.0029 144.693 98.0029H220.282C220.834 98.0029 221.282 97.5309 221.282 96.9487V59.6998C221.282 59.1175 220.834 58.6455 220.282 58.6455Z" fill="url(#paint1_linear_486_5309)"/>
<path d="M236.209 60.3901H235.741V26.4558C235.741 19.4854 230.379 13.8347 223.765 13.8347H139.929C133.315 13.8347 127.953 19.4854 127.953 26.4558V61.4899H127.723C126.571 61.4899 125.643 62.4683 125.643 63.6819V78.5936C125.643 79.8071 126.571 80.7856 127.723 80.7856H127.953V85.9129H127.723C126.571 85.9129 125.643 86.8913 125.643 88.1049V103.017C125.643 104.23 126.571 105.209 127.723 105.209H127.953V217.486C127.953 224.456 133.315 230.107 139.929 230.107H223.765C230.379 230.107 235.741 224.456 235.741 217.486V79.6858H236.209C237.36 79.6858 238.288 78.7073 238.288 77.4938V62.5821C238.288 61.3685 237.36 60.3901 236.209 60.3901ZM230.106 214.255C230.106 220.391 225.384 225.367 219.562 225.367H143.88C138.058 225.367 133.337 220.391 133.337 214.255V30.0434C133.337 23.9073 138.058 18.9317 143.88 18.9317H154.423V21.9504C154.423 24.2941 156.23 26.1979 158.454 26.1979H204.981C207.205 26.1979 209.012 24.2941 209.012 21.9504V18.9317H219.555C225.377 18.9317 230.098 23.9073 230.098 30.0434V214.255H230.106Z" fill="url(#paint2_linear_486_5309)"/>
<path d="M220.779 104.147H145.19C144.637 104.147 144.189 104.619 144.189 105.201V113.233C144.189 113.816 144.637 114.288 145.19 114.288H220.779C221.331 114.288 221.779 113.816 221.779 113.233V105.201C221.779 104.619 221.331 104.147 220.779 104.147Z" fill="url(#paint3_linear_486_5309)"/>
<path d="M220.779 120.477H145.19C144.637 120.477 144.189 120.949 144.189 121.531V158.78C144.189 159.362 144.637 159.834 145.19 159.834H220.779C221.331 159.834 221.779 159.362 221.779 158.78V121.531C221.779 120.949 221.331 120.477 220.779 120.477Z" fill="url(#paint4_linear_486_5309)"/>
<path d="M178.517 185.304C174.374 178.717 166.092 177.02 160.018 181.509L122.812 209.03C116.739 213.522 115.173 222.505 119.316 229.091C123.456 235.677 131.736 237.375 137.812 232.886L175.014 205.365C181.096 200.872 182.663 191.89 178.517 185.304Z" fill="#5F95DC"/>
<path d="M173.517 202.975L154.918 216.733L142.922 197.667L161.521 183.902C166.37 180.317 173.004 181.678 176.31 186.931C179.622 192.192 178.366 199.387 173.517 202.975Z" fill="white"/>
<path d="M106.76 129.768C103.582 132.106 100.354 133.073 97.1134 132.649C87.9131 131.445 82.2198 119.468 81.9827 118.956C81.9298 118.845 81.9169 118.725 81.8933 118.609C81.3916 118.572 81.0402 118.313 81.0024 117.874C80.9427 117.181 80.4112 115.86 79.8138 114.926L78.7627 113.281C78.1639 112.345 78.4829 111.293 79.4713 110.931L82.2612 109.91C83.2505 109.547 84.0507 110.178 84.0498 111.321L84.0472 113.147C84.0458 114.289 84.351 115.716 84.73 116.333C85.0142 116.798 84.8065 117.371 84.2673 117.79C84.7709 118.818 89.917 128.939 97.4207 129.915C99.9932 130.249 102.604 129.457 105.226 127.57L106.763 129.768C106.762 129.769 106.76 129.768 106.76 129.768Z" fill="#5F95DC"/>
<path d="M108.725 106.15C103.451 99.681 92.1336 101.296 92.0193 101.313C92.0011 101.316 91.9855 101.308 91.9664 101.31C91.9664 101.31 92.0229 101.531 92.0909 101.807C92.1599 102.081 91.6661 102.316 90.9878 102.33C90.3076 102.343 89.0652 102.887 88.2121 103.543L86.8473 104.592C85.9928 105.249 85.0614 104.892 84.7656 103.798L83.9302 100.71C83.6344 99.6143 84.2402 98.726 85.2833 98.7269H87.1133C88.1569 98.7269 89.45 98.4474 90.0029 98.1041C90.5554 97.7583 91.0745 97.7568 91.1603 98.1006L91.3165 98.7201C91.429 98.6622 91.5424 98.6037 91.6732 98.5838C92.191 98.5054 104.419 96.7443 110.595 104.307C112.652 106.826 113.763 110.054 113.941 113.941L111.427 113.988C111.263 110.786 110.365 108.161 108.725 106.15Z" fill="#5F95DC"/>
<path d="M90.1425 149.501C90.159 149.276 90.1906 149.068 90.2137 148.847C90.2008 148.854 90.1892 148.862 90.1755 148.87L90.4237 147.279C90.4312 147.277 90.4388 147.275 90.4464 147.271C91.0113 144.354 92.2466 142.18 94.1526 140.823C97.8104 138.216 102.841 139.31 106.415 140.688C106.966 140.898 107.522 141.12 108.085 141.345C114.223 143.793 120.031 146.107 123.582 138.641C123.639 138.521 123.697 138.396 123.751 138.271C124.711 136.125 124.833 134.256 124.129 132.559C122.831 129.437 119.089 127.716 117.481 127.103C117.457 127.124 117.43 127.14 117.405 127.159L118.2 124.31C118.218 124.364 118.237 124.418 118.251 124.475C120.168 125.195 124.694 127.279 126.416 131.405C127.442 133.869 127.307 136.585 126.012 139.479C125.944 139.636 125.876 139.788 125.806 139.936C121.246 149.522 113.48 146.429 107.225 143.935C106.671 143.713 106.125 143.494 105.581 143.287C101.282 141.633 97.713 141.576 95.5253 143.132C94.4262 143.917 93.6366 145.149 93.1553 146.797C93.1642 146.796 93.1736 146.796 93.1829 146.795L92.8555 148.28C92.8457 148.279 92.8368 148.277 92.8266 148.276C92.7519 148.736 92.69 149.211 92.6527 149.72C92.5953 150.479 91.9908 151.045 91.2986 150.984C90.6025 150.924 90.0887 150.261 90.1425 149.501Z" fill="#5F95DC"/>
<path d="M84.2185 156.704C84.2056 156.031 84.7412 156.213 85.6152 156.838C86.9199 157.771 89.1436 158.735 92.3601 158.082C96.4155 157.26 98.4871 155.684 99.5226 154.452C100.23 153.612 100.548 153.454 100.586 154.364C100.622 155.275 100.078 156.71 99.1783 157.29C98.0311 158.031 96.0743 158.95 92.8556 159.648C89.3482 160.406 87.0894 159.804 85.7696 159.111C84.8306 158.617 84.2305 157.375 84.2185 156.704Z" fill="white"/>
<path d="M84.0286 153.9C83.5669 151.266 86.3755 148.429 90.4238 147.279L90.1756 148.87C89.2286 149.397 88.6477 150.183 88.7793 150.931C88.9648 151.995 90.4955 152.566 92.1951 152.21C93.8952 151.854 95.1234 150.704 94.9383 149.644C94.8031 148.873 93.958 148.369 92.8557 148.28L93.1831 146.795C96.9427 146.542 100.041 148.007 100.468 150.453C100.966 153.286 97.6869 156.355 93.1462 157.308C88.6072 158.259 84.5246 156.734 84.0286 153.9Z" fill="white"/>
<path d="M82.6826 109.445C82.4882 109.115 82.2164 108.835 81.8766 108.642C80.8384 108.05 79.5555 108.491 79.0133 109.629C78.8198 110.037 78.7481 110.478 78.7828 110.905L82.6826 109.445Z" fill="white"/>
<path d="M84.66 104.443L83.5172 100.108C83.1774 100.321 82.8878 100.639 82.6939 101.046C82.1525 102.184 82.5569 103.588 83.5964 104.18C83.9363 104.374 84.301 104.458 84.66 104.443Z" fill="white"/>
<path d="M115.105 127.395L112.108 125.825L109.153 129.165C108.516 129.888 107.573 130.088 106.762 129.768L105.225 127.57C105.241 127.559 105.254 127.549 105.27 127.539C105.245 126.884 105.452 126.22 105.901 125.714L109.504 121.641L110.465 115.639C110.576 114.95 110.939 114.381 111.429 114.018C111.429 114.008 111.428 113.999 111.427 113.988L113.941 113.941C113.941 113.96 113.943 113.98 113.944 114C114.672 114.528 115.087 115.493 114.926 116.494L114.142 121.394L117.06 122.919C117.617 123.212 118.357 123.968 118.552 124.556L117.481 127.102C116.832 127.616 115.88 127.801 115.105 127.395Z" fill="white"/>
<path d="M106.029 47.0458C105.838 47.5026 106.359 48.1882 107.195 48.5755L113.304 51.4065C114.138 51.7932 114.97 51.7355 115.162 51.2777C115.187 51.2156 115.21 51.161 115.234 51.1036L106.101 46.8711L106.029 47.0458Z" fill="#BCD7FA"/>
<path d="M82.659 36.2151C82.4681 36.6722 82.9897 37.3574 83.8247 37.7451L89.9347 40.5767C90.7691 40.9634 91.6016 40.9051 91.7925 40.4479C91.8183 40.3859 91.8412 40.3309 91.8654 40.2739L82.7319 36.041L82.659 36.2151Z" fill="#BCD7FA"/>
<path d="M129.196 21.0924L122.771 18.1145C122.645 18.0558 122.548 17.9619 122.468 17.8559L115.221 14.4974C115.093 14.5065 114.962 14.4947 114.835 14.4364L113.251 13.7026L113.261 13.6784C113.272 13.6516 113.269 13.6244 113.278 13.5966L109.654 11.917C109.641 11.9418 109.619 11.9589 109.608 11.9851L109.598 12.0096L108.032 11.2835C107.905 11.2251 107.808 11.1309 107.728 11.0245L100.482 7.66669C100.353 7.67541 100.221 7.664 100.095 7.60531L93.6703 4.62745C91.5824 3.66054 89.1473 4.65831 88.2293 6.85875L78.8109 29.4306C77.8928 31.6304 78.8405 34.1975 80.9288 35.1647L82.7462 36.0068L82.7322 36.0407L91.8657 40.2736C91.8701 40.2628 91.8749 40.2511 91.8797 40.24L106.116 46.8383L106.102 46.8715L115.235 51.1041C115.239 51.0933 115.244 51.0816 115.249 51.0705L116.455 51.6296C118.543 52.5968 120.978 51.5981 121.896 49.3976L131.314 26.8261C132.232 24.626 131.284 22.0599 129.196 21.0924ZM110.054 32.6419C109.965 32.8552 109.728 32.9525 109.526 32.8593L106.456 31.4362C106.253 31.3423 106.018 31.4383 105.929 31.6519L104.578 34.8876C104.489 35.101 104.253 35.1982 104.05 35.104L101.482 33.9137C101.278 33.8198 101.187 33.5703 101.276 33.357L102.626 30.1219C102.715 29.9079 102.622 29.6597 102.421 29.5661L99.3501 28.1438C99.1474 28.0492 99.0564 27.799 99.1452 27.587L100.275 24.8785C100.364 24.6649 100.601 24.5683 100.803 24.6618L103.873 26.0849C104.076 26.1784 104.312 26.0815 104.4 25.8702L105.75 22.6338C105.839 22.4202 106.077 22.3229 106.279 22.4165L108.848 23.6067C109.05 23.701 109.141 23.9515 109.053 24.1645L107.702 27.4013C107.613 27.6132 107.707 27.8621 107.908 27.955L110.979 29.3783C111.181 29.4719 111.272 29.7221 111.183 29.9347L110.054 32.6419Z" fill="#5F95DC"/>
<path d="M107.608 10.1363L108.771 7.34896C108.955 6.9086 109.441 6.70905 109.859 6.90257L116.663 10.0552C117.081 10.2487 117.27 10.7618 117.086 11.2025L115.923 13.9895C115.795 14.2964 115.517 14.4755 115.221 14.4973L122.468 17.8558C122.282 17.6107 122.22 17.2739 122.348 16.9674L125.118 10.3292C125.301 9.88949 125.112 9.37601 124.694 9.1825L105.041 0.073849C104.623 -0.119667 104.136 0.0802215 103.953 0.520579L101.183 7.1588C101.055 7.46534 100.778 7.64477 100.481 7.66657L107.728 11.0244C107.542 10.7796 107.48 10.4429 107.608 10.1363Z" fill="#BCD7FA"/>
<path d="M112.837 12.5311L110.696 11.5387C110.303 11.3565 109.859 11.5313 109.654 11.9166L113.278 13.5962C113.408 13.1763 113.23 12.7135 112.837 12.5311Z" fill="#BCD7FA"/>
<path d="M274.218 59.4639L252.329 71.1804L254.248 75.2107L276.137 63.4942L274.218 59.4639Z" fill="#64696D"/>
<path d="M267.369 30.5313L258.2 35.457L257.929 34.8852C257.623 34.24 256.804 34.0246 256.099 34.4031L244.14 40.8278C243.435 41.2064 243.112 42.0361 243.418 42.6807L243.689 43.2525L234.519 48.1786C232.936 49.0289 232.207 50.8991 232.894 52.3489L253.383 95.5721C254.07 97.0219 255.917 97.5093 257.5 96.6589L290.35 79.0117C291.932 78.1617 292.661 76.2911 291.974 74.8412L271.484 31.6181C270.798 30.1677 268.951 29.6814 267.369 30.5313ZM288.646 76.2627L256.435 93.5668L236.222 50.9273L245.073 46.1727L245.239 46.5226C245.544 47.1671 246.364 47.3838 247.068 47.0057L259.028 40.581C259.732 40.2025 260.056 39.3716 259.75 38.7271L259.584 38.3773L268.434 33.6232L288.646 76.2627Z" fill="#5F95DC"/>
<path d="M278.263 67.9031L256.375 79.6196L258.294 83.6506L280.183 71.9341L278.263 67.9031Z" fill="#64696D"/>
<path d="M259.1 61.8489L263.024 59.7405L260.861 55.1752L265.844 52.4977L264.141 48.9039L259.158 51.5815L256.994 47.0162L253.07 49.1246L255.234 53.6899L250.25 56.368L251.953 59.9618L256.937 57.2837L259.1 61.8489Z" fill="#64696D"/>
<path d="M209.407 82.7056H248.495C262.017 82.7056 272.989 94.2681 272.989 108.519V119.215C272.989 133.466 262.017 145.028 248.495 145.028H209.407C195.885 145.028 184.914 133.466 184.914 119.215V108.519C184.914 94.2681 195.885 82.7056 209.407 82.7056Z" fill="url(#paint5_linear_486_5309)"/>
<path d="M228.947 241.99C207.688 241.99 189.184 215.368 189.184 192.964V180.973C189.184 165.114 201.385 152.246 216.441 152.246H241.471C256.518 152.246 268.728 165.104 268.728 180.973V190.275C268.728 214.16 251.628 241.99 228.965 241.99H228.947Z" fill="url(#paint6_linear_486_5309)"/>
<path d="M223.798 190.156L220.639 190.749L220.352 189.046L221.895 188.756L219.122 172.346C218.54 168.908 215.413 166.609 212.151 167.222C208.888 167.834 206.707 171.13 207.288 174.568L210.062 190.978L211.647 190.681L211.934 192.384L208.734 192.985L205.672 174.872C204.933 170.495 207.709 166.299 211.863 165.52C216.017 164.74 219.998 167.667 220.737 172.044L223.798 190.156Z" fill="#402664"/>
<path d="M212.387 165.763C211.468 162.006 210.514 158.058 211.57 154.215C211.873 153.113 210.244 152.642 209.941 153.742C208.797 157.898 209.76 162.167 210.758 166.237C211.029 167.345 212.659 166.876 212.387 165.763Z" fill="#402664"/>
<path d="M242.228 174.144C242.228 176.364 240.52 178.163 238.414 178.163C236.308 178.163 234.6 176.364 234.6 174.144C234.6 171.924 236.308 170.125 238.414 170.125C240.52 170.125 242.228 171.924 242.228 174.144Z" fill="#402664"/>
<path d="M240.377 174.143C240.377 175.286 239.498 176.212 238.414 176.212C237.33 176.212 236.451 175.286 236.451 174.143C236.451 173.001 237.33 172.074 238.414 172.074C239.498 172.074 240.377 173.001 240.377 174.143Z" fill="#8C8FFE"/>
<path d="M236.236 152.926C235.855 151.865 234.221 152.325 234.607 153.399C236.582 158.888 237.571 164.688 237.514 170.559C237.503 171.705 239.192 171.706 239.203 170.559C239.262 164.542 238.261 158.551 236.236 152.926Z" fill="#402664"/>
<path d="M216.432 152.246C216.016 152.246 215.609 152.256 215.193 152.276C212.18 152.782 210.322 153.454 210.322 154.185C210.322 155.753 218.659 157.029 228.947 157.029C239.234 157.029 247.571 155.753 247.571 154.185C247.571 153.444 245.713 152.782 242.7 152.276C242.293 152.256 241.877 152.246 241.461 152.246H216.432Z" fill="url(#paint7_linear_486_5309)"/>
<path d="M242.829 183.281C233.466 204.224 218.096 219.567 194.055 214.112C200.932 229.327 214.288 242 228.947 242C251.61 242 268.709 214.17 268.709 190.285V180.982C268.709 175.693 267.341 170.735 264.975 166.478C259.041 165.972 249.641 168.046 242.82 183.291L242.829 183.281Z" fill="url(#paint8_linear_486_5309)"/>
<path d="M272.989 113.877C272.989 109.844 273.534 106.006 272.212 102.47C260.77 107.097 222.116 118.942 185.579 102.587C184.285 106.094 184.914 109.893 184.914 113.877V119.507C184.914 133.602 195.756 145.038 209.139 145.038H243.43C259.041 145.769 265.909 139.33 270.133 131.362C274.19 123.715 273.127 115.24 273.127 115.24C273.127 115.104 272.989 114.003 272.989 113.877Z" fill="url(#paint9_linear_486_5309)"/>
<path d="M253.154 101.262H204.74C199.268 101.262 194.832 105.937 194.832 111.705V116.039C194.832 121.806 199.268 126.482 204.74 126.482H253.154C258.626 126.482 263.062 121.806 263.062 116.039V111.705C263.062 105.937 258.626 101.262 253.154 101.262Z" fill="#5F95DC"/>
<path d="M183.222 126.91C186.515 126.91 189.184 121.075 189.184 113.877C189.184 106.679 186.515 100.843 183.222 100.843C179.93 100.843 177.261 106.679 177.261 113.877C177.261 121.075 179.93 126.91 183.222 126.91Z" fill="url(#paint10_radial_486_5309)"/>
<path d="M178.111 122.624C180.934 122.624 183.223 118.708 183.223 113.877C183.223 109.046 180.934 105.129 178.111 105.129C175.288 105.129 173 109.046 173 113.877C173 118.708 175.288 122.624 178.111 122.624Z" fill="url(#paint11_radial_486_5309)"/>
<path d="M274.962 126.91C271.669 126.91 269 121.075 269 113.877C269 106.679 271.669 100.843 274.962 100.843C278.254 100.843 280.923 106.679 280.923 113.877C280.923 121.075 278.254 126.91 274.962 126.91Z" fill="url(#paint12_radial_486_5309)"/>
<path d="M280.073 122.624C277.25 122.624 274.962 118.708 274.962 113.877C274.962 109.046 277.25 105.129 280.073 105.129C282.896 105.129 285.184 109.046 285.184 113.877C285.184 118.708 282.896 122.624 280.073 122.624Z" fill="url(#paint13_radial_486_5309)"/>
<ellipse cx="214.685" cy="113.877" rx="4.6214" ry="4.8705" fill="url(#paint14_linear_486_5309)"/>
<ellipse cx="242.829" cy="113.877" rx="4.6214" ry="4.8705" fill="url(#paint15_linear_486_5309)"/>
<path d="M297.278 233.837C298.422 233.086 298.515 232.275 298.134 231.698L282.344 205.614C282.157 205.334 281.272 205.751 280.718 206.123C280.163 206.487 279.321 207.071 279.48 207.366L294.787 233.928C295.118 234.543 296.133 234.596 297.278 233.845V233.837Z" fill="#426DA5"/>
<path opacity="0.6" d="M287.019 194.759C287.247 187.067 281.516 180.636 274.217 180.396C266.918 180.156 260.816 186.197 260.588 193.889C260.36 201.581 266.092 208.012 273.391 208.252C280.69 208.492 286.791 202.451 287.019 194.759Z" fill="white"/>
<path d="M259.134 184.51C264.653 176.577 275.557 174.615 283.49 180.134C291.423 185.653 293.385 196.557 287.866 204.49C282.347 212.423 271.443 214.385 263.51 208.866C255.577 203.347 253.615 192.443 259.134 184.51ZM266.09 205.151C271.977 209.242 280.061 207.791 284.151 201.903C288.242 196.015 286.791 187.932 280.903 183.841C275.015 179.751 266.932 181.202 262.841 187.09C258.751 192.977 260.202 201.061 266.09 205.151Z" fill="#5F95DC"/>
<defs>
<linearGradient id="paint0_linear_486_5309" x1="143.693" y1="47.3899" x2="221.282" y2="47.3899" gradientUnits="userSpaceOnUse">
<stop stop-color="#BACBE0" stop-opacity="0.5"/>
<stop offset="0.84" stop-color="#CCDFF5" stop-opacity="0.2"/>
</linearGradient>
<linearGradient id="paint1_linear_486_5309" x1="71.2636" y1="78.328" x2="71.9833" y2="78.328" gradientUnits="userSpaceOnUse">
<stop stop-color="#B9CCF0" stop-opacity="0.5"/>
<stop offset="0.84" stop-color="#C5CFE3" stop-opacity="0.2"/>
</linearGradient>
<linearGradient id="paint2_linear_486_5309" x1="125.643" y1="121.971" x2="238.288" y2="121.971" gradientUnits="userSpaceOnUse">
<stop stop-color="#004D8A"/>
<stop offset="0.73" stop-color="#075F9B"/>
</linearGradient>
<linearGradient id="paint3_linear_486_5309" x1="144.189" y1="109.221" x2="221.779" y2="109.221" gradientUnits="userSpaceOnUse">
<stop stop-color="#BACBE0" stop-opacity="0.5"/>
<stop offset="0.84" stop-color="#CCDFF5" stop-opacity="0.2"/>
</linearGradient>
<linearGradient id="paint4_linear_486_5309" x1="144.189" y1="140.159" x2="221.779" y2="140.159" gradientUnits="userSpaceOnUse">
<stop stop-color="#C5CBEC" stop-opacity="0.5"/>
<stop offset="0.84" stop-color="#BEC6EE" stop-opacity="0.2"/>
</linearGradient>
<linearGradient id="paint5_linear_486_5309" x1="161.5" y1="56.5" x2="269.5" y2="145" gradientUnits="userSpaceOnUse">
<stop offset="0.26" stop-color="#D8E6F7"/>
<stop offset="1" stop-color="#5F95DC"/>
</linearGradient>
<linearGradient id="paint6_linear_486_5309" x1="189.184" y1="197.123" x2="268.718" y2="197.123" gradientUnits="userSpaceOnUse">
<stop offset="0.26" stop-color="#5F95DC"/>
<stop offset="1" stop-color="#BAD6FC"/>
</linearGradient>
<linearGradient id="paint7_linear_486_5309" x1="210.332" y1="154.643" x2="247.571" y2="154.643" gradientUnits="userSpaceOnUse">
<stop stop-color="white" stop-opacity="0.5"/>
<stop offset="0.96" stop-color="#ABBFCE"/>
</linearGradient>
<linearGradient id="paint8_linear_486_5309" x1="196.116" y1="214.949" x2="269.587" y2="200.889" gradientUnits="userSpaceOnUse">
<stop offset="0.02" stop-color="white" stop-opacity="0.3"/>
<stop offset="0.97" stop-color="#9DC3F5"/>
</linearGradient>
<linearGradient id="paint9_linear_486_5309" x1="231.636" y1="165.64" x2="226.372" y2="72.3804" gradientUnits="userSpaceOnUse">
<stop offset="0.02" stop-color="white" stop-opacity="0.3"/>
<stop offset="0.97" stop-color="#5F95DC"/>
</linearGradient>
<radialGradient id="paint10_radial_486_5309" cx="0" cy="0" r="1" gradientUnits="userSpaceOnUse" gradientTransform="translate(176.512 113.148) scale(11.9879 17.814)">
<stop offset="0.21" stop-color="#5F95DC"/>
<stop offset="0.43" stop-color="#A0BBE0"/>
<stop offset="0.7" stop-color="#9DBDE7"/>
<stop offset="1" stop-color="#BBCBE0"/>
</radialGradient>
<radialGradient id="paint11_radial_486_5309" cx="0" cy="0" r="1" gradientUnits="userSpaceOnUse" gradientTransform="translate(173.555 113.575) scale(9.27977 15.4523)">
<stop stop-color="#8FB1DF"/>
<stop offset="0.56" stop-color="#9DB5D6"/>
<stop offset="1" stop-color="#BCCCE2"/>
</radialGradient>
<radialGradient id="paint12_radial_486_5309" cx="0" cy="0" r="1" gradientUnits="userSpaceOnUse" gradientTransform="translate(281.672 113.148) rotate(180) scale(11.9879 17.814)">
<stop offset="0.21" stop-color="#5F95DC"/>
<stop offset="0.43" stop-color="#A0BBE0"/>
<stop offset="0.7" stop-color="#9DBDE7"/>
<stop offset="1" stop-color="#BBCBE0"/>
</radialGradient>
<radialGradient id="paint13_radial_486_5309" cx="0" cy="0" r="1" gradientUnits="userSpaceOnUse" gradientTransform="translate(284.63 113.575) rotate(180) scale(9.27977 15.4523)">
<stop stop-color="#8FB1DF"/>
<stop offset="0.56" stop-color="#9DB5D6"/>
<stop offset="1" stop-color="#BCCCE2"/>
</radialGradient>
<linearGradient id="paint14_linear_486_5309" x1="210.064" y1="113.877" x2="219.307" y2="113.877" gradientUnits="userSpaceOnUse">
<stop stop-color="white"/>
<stop offset="1" stop-color="#DFE9ED"/>
</linearGradient>
<linearGradient id="paint15_linear_486_5309" x1="238.208" y1="-78.537" x2="247.451" y2="-78.537" gradientUnits="userSpaceOnUse">
<stop stop-color="white"/>
<stop offset="1" stop-color="#DFE9ED"/>
</linearGradient>
</defs>
</svg>
