<svg width="388" height="242" viewBox="0 0 388 242" fill="none" xmlns="http://www.w3.org/2000/svg">
<path d="M193.78 242C259.029 242 311.924 238.716 311.924 234.665C311.924 230.614 259.029 227.33 193.78 227.33C128.532 227.33 75.637 230.614 75.637 234.665C75.637 238.716 128.532 242 193.78 242Z" fill="#F5F5F5"/>
<path d="M316.662 38.6749C316.971 38.8898 348.774 51.7735 365.859 77.3452C382.945 102.917 365.428 81.6039 348.637 67.9746C334.891 56.8158 305.521 42.2513 308.846 38.6749C312.171 35.0986 316.662 38.6749 316.662 38.6749Z" fill="#D1E3F9"/>
<path d="M351.222 230.409C351.222 230.409 390.804 184.061 376.411 120.135C362.017 56.2093 285.73 40.4506 234.632 65.7063C183.535 90.962 111.566 98.7592 84.9376 48.4184C58.3092 -1.92235 -42.447 106.999 20.1658 230.409H351.222Z" fill="#E0EDFD"/>
<path d="M48.2039 230.408C48.2039 230.408 17.0199 165.617 74.2494 142.288C131.479 118.96 78.805 207.276 136.984 203.895C159.619 202.581 202.562 176.119 189.651 115.984C181.965 80.1886 272.278 101.533 287.334 230.415H48.2039V230.408Z" fill="white"/>
<path d="M373.761 94.9111C373.761 94.9111 376.158 101.495 378.202 102.759C380.246 104.023 380.598 100.124 378.202 96.3328C375.805 92.5416 372.56 91.9982 373.761 94.9111Z" fill="#B2E7FE"/>
<path d="M9.96001 176.131C9.96001 176.131 4.20252 149.631 9.96001 128.931C15.7175 108.231 12.263 135.268 12.3566 147.912C12.4789 163.209 15.7175 196.01 9.96001 176.131Z" fill="white"/>
<path d="M12.8313 115.08C12.8313 115.08 12.8961 108.762 14.6953 107.391C16.4946 106.019 15.4654 114.158 14.6953 115.769C13.7957 117.658 12.7306 116.982 12.8313 115.08Z" fill="white"/>
<path d="M297.642 195.132C297.642 195.132 303.808 187.469 313.807 191.446C313.807 191.446 318.329 185.771 323.538 188.039C323.538 188.039 329.321 177.311 343.969 176.262C358.618 175.213 366.813 187.935 366.813 187.935C366.813 187.935 381.998 183.219 388 195.138H297.642V195.132Z" fill="white"/>
<path d="M87.0674 84.8402C87.0674 84.8402 81.6687 78.1357 72.9247 81.6143C72.9247 81.6143 68.964 76.6457 64.4123 78.6344C64.4123 78.6344 59.3548 69.2481 46.5344 68.3282C33.714 67.4084 26.5421 78.5373 26.5421 78.5373C26.5421 78.5373 13.2586 74.4109 8 84.8402H87.0674Z" fill="white"/>
<path d="M127.29 58.3267H98.7545C97.893 58.3267 97.1946 59.0691 97.1946 59.985V71.9366C97.1946 72.8525 97.893 73.5949 98.7545 73.5949H127.29C128.151 73.5949 128.85 72.8525 128.85 71.9366V59.985C128.85 59.0691 128.151 58.3267 127.29 58.3267Z" fill="#5F95DC"/>
<path d="M116.779 73.6013L124.615 79.5091L122.933 73.6013H116.779Z" fill="#5F95DC"/>
<path d="M105.866 67.3957C106.656 67.3957 107.297 66.7141 107.297 65.8734C107.297 65.0326 106.656 64.3511 105.866 64.3511C105.075 64.3511 104.434 65.0326 104.434 65.8734C104.434 66.7141 105.075 67.3957 105.866 67.3957Z" fill="white"/>
<path d="M113.019 67.3957C113.81 67.3957 114.451 66.7141 114.451 65.8734C114.451 65.0326 113.81 64.3511 113.019 64.3511C112.228 64.3511 111.587 65.0326 111.587 65.8734C111.587 66.7141 112.228 67.3957 113.019 67.3957Z" fill="white"/>
<path d="M120.167 67.3957C120.957 67.3957 121.599 66.7141 121.599 65.8734C121.599 65.0326 120.957 64.3511 120.167 64.3511C119.376 64.3511 118.735 65.0326 118.735 65.8734C118.735 66.7141 119.376 67.3957 120.167 67.3957Z" fill="white"/>
<path d="M124.474 39.0598C134.708 39.0598 143.004 30.7637 143.004 20.5299C143.004 10.2961 134.708 2 124.474 2C114.241 2 105.945 10.2961 105.945 20.5299C105.945 30.7637 114.241 39.0598 124.474 39.0598Z" fill="#FFB75B"/>
<path d="M137.575 7.4231C139.062 10.092 139.915 13.163 139.915 16.4352C139.915 26.672 131.616 34.9651 121.385 34.9651C116.267 34.9651 111.636 32.8933 108.284 29.542C111.453 35.221 117.516 39.0598 124.474 39.0598C134.711 39.0598 143.004 30.7607 143.004 20.5299C143.004 15.4115 140.927 10.7744 137.575 7.4231Z" fill="#F99D41"/>
<path d="M181.496 47.5358C188.953 47.5358 194.999 41.4903 194.999 34.0329C194.999 26.5755 188.953 20.53 181.496 20.53C174.039 20.53 167.993 26.5755 167.993 34.0329C167.993 41.4903 174.039 47.5358 181.496 47.5358Z" fill="#5F95DC"/>
<path d="M184.11 30.0967H174.117C173.841 30.0967 173.617 30.3204 173.617 30.5963V37.4696C173.617 37.7456 173.841 37.9693 174.117 37.9693H184.11C184.386 37.9693 184.61 37.7456 184.61 37.4696V30.5963C184.61 30.3204 184.386 30.0967 184.11 30.0967Z" fill="white"/>
<path d="M188.723 36.8847L185.676 35.9707C185.463 35.9098 185.317 35.7087 185.317 35.4894V32.5767C185.317 32.3574 185.463 32.1624 185.676 32.0954L188.723 31.1814C189.046 31.0839 189.369 31.3276 189.369 31.6627V36.4094C189.369 36.7446 189.046 36.9883 188.723 36.8908V36.8847Z" fill="white"/>
<path d="M172.642 42.5393L169.34 49.8879L176.609 45.5372L172.642 42.5393Z" fill="#5F95DC"/>
<path fill-rule="evenodd" clip-rule="evenodd" d="M216.856 197.302L228.184 189.438V209.344L216.856 197.302ZM191.233 187.903H228.092L209.666 200.703L191.233 187.903ZM191.093 209.396L191.124 189.419L202.47 197.296L191.093 209.39V209.396ZM209.66 202.29L215.942 197.931L226.8 209.474H192.513L203.371 197.931L209.654 202.29H209.66Z" fill="#5F95DC"/>
<path d="M101.466 92.0696H55.9C55.0408 92.0696 54.3401 92.8145 54.3401 93.7279V107.506C54.3401 108.42 55.0408 109.165 55.9 109.165H77.4156L83.8137 113.991L82.4426 109.165H101.46C102.319 109.165 103.02 108.42 103.02 107.506V93.7279C103.02 92.8145 102.319 92.0696 101.46 92.0696H101.466Z" stroke="#5F95DC" stroke-miterlimit="10"/>
<path d="M79.9201 96.8633H59.2026V99.3249H79.9201V96.8633Z" fill="#5F95DC"/>
<path d="M99.9733 101.903H59.2026V104.365H99.9733V101.903Z" fill="#5F95DC"/>
<path d="M319.279 15.7319H220.28C217.703 15.7319 215.613 17.8217 215.613 20.3994V159.785C215.613 162.363 217.703 164.453 220.28 164.453H319.279C321.857 164.453 323.947 162.363 323.947 159.785V20.3994C323.947 17.8217 321.857 15.7319 319.279 15.7319Z" stroke="#D7F5FF" stroke-miterlimit="10"/>
<path d="M211.451 153.253V177.14C211.451 180.1 213.543 182.501 216.124 182.501H315.24C317.82 182.501 319.913 180.1 319.913 177.14V153.253H211.451Z" fill="#E8F2FF"/>
<path d="M315.001 20.0095H216.003C213.425 20.0095 211.335 22.0992 211.335 24.677V164.063C211.335 166.64 213.425 168.73 216.003 168.73H315.001C317.579 168.73 319.669 166.64 319.669 164.063V24.677C319.669 22.0992 317.579 20.0095 315.001 20.0095Z" fill="#D7F5FF"/>
<path d="M211.335 143.875V164.672C211.335 167.249 211.335 169.705 211.335 169.705L319.669 170.01C319.669 164.672 319.669 167.249 319.669 164.672V143.875H211.335Z" fill="#5F95DC"/>
<path d="M253.953 175.466C253.796 175.618 253.793 175.867 253.947 176.021C254.101 176.175 254.352 176.178 254.51 176.027C254.521 176.015 254.532 176.003 254.542 175.992C254.678 176.631 254.738 176.716 254.824 176.716C254.833 176.716 254.844 176.715 254.855 176.713C254.974 176.697 254.976 176.697 255.069 175.151C255.071 175.119 255.073 175.087 255.075 175.055C255.076 175.076 255.079 175.097 255.08 175.116C255.193 176.27 255.193 176.27 255.278 176.302C255.386 176.344 255.441 176.247 255.559 176.036C255.591 175.981 255.637 175.897 255.667 175.856C255.805 175.871 256.183 175.9 256.296 175.755C256.318 175.728 256.348 175.682 256.38 175.629C256.423 175.563 256.511 175.425 256.566 175.372C256.592 175.402 256.624 175.454 256.65 175.494C256.757 175.663 256.879 175.854 257.046 175.858H257.052L257.926 175.86H258.21V175.983C258.21 176.481 257.8 176.882 257.297 176.882H255.868V178.294C255.868 178.79 255.459 179.193 254.954 179.193H254.314C253.811 179.193 253.402 178.79 253.402 178.294V176.883H251.97C251.467 176.883 251.058 176.481 251.058 175.984V175.353C251.058 174.855 251.467 174.453 251.97 174.453H253.402V173.042C253.402 172.546 253.811 172.142 254.314 172.142H254.954C255.459 172.142 255.868 172.546 255.868 173.042V174.453H257.298C257.801 174.453 258.211 174.855 258.211 175.353V175.652H257.927L257.057 175.65C257.057 175.65 257.056 175.65 257.054 175.65C256.999 175.65 256.877 175.457 256.83 175.383C256.769 175.288 256.722 175.214 256.667 175.175C256.633 175.149 256.589 175.141 256.547 175.149C256.432 175.171 256.333 175.316 256.203 175.518C256.175 175.564 256.149 175.604 256.132 175.625C256.08 175.667 255.781 175.663 255.652 175.643C255.55 175.628 255.499 175.715 255.378 175.931C255.352 175.712 255.32 175.382 255.294 175.097C255.178 173.917 255.178 173.917 255.076 173.897C255.046 173.891 255.014 173.899 254.99 173.918C254.933 173.959 254.93 173.962 254.859 175.138C254.839 175.461 254.816 175.852 254.794 176.146C254.771 176.05 254.745 175.932 254.715 175.784L254.711 175.769C254.7 175.714 254.668 175.682 254.621 175.663C254.606 175.594 254.572 175.527 254.516 175.473C254.362 175.318 254.111 175.315 253.953 175.466Z" fill="#5F95DC"/>
<path d="M262.376 175.066V177.174H261.863V176.306H261.064V177.174H260.55V175.066H261.064V175.892H261.863V175.066H262.376Z" fill="#3D618F"/>
<path d="M262.795 176.333C262.795 176.161 262.827 176.01 262.891 175.88C262.957 175.75 263.046 175.649 263.158 175.579C263.27 175.509 263.396 175.474 263.534 175.474C263.652 175.474 263.755 175.498 263.843 175.546C263.933 175.594 264.002 175.657 264.05 175.736V175.498H264.564V177.174H264.05V176.937C264 177.015 263.93 177.078 263.84 177.126C263.752 177.174 263.649 177.198 263.531 177.198C263.395 177.198 263.27 177.163 263.158 177.093C263.046 177.021 262.957 176.92 262.891 176.79C262.827 176.658 262.795 176.505 262.795 176.333ZM264.05 176.336C264.05 176.208 264.014 176.107 263.942 176.033C263.872 175.959 263.786 175.922 263.684 175.922C263.582 175.922 263.495 175.959 263.423 176.033C263.353 176.105 263.318 176.205 263.318 176.333C263.318 176.461 263.353 176.563 263.423 176.64C263.495 176.714 263.582 176.751 263.684 176.751C263.786 176.751 263.872 176.714 263.942 176.64C264.014 176.565 264.05 176.464 264.05 176.336Z" fill="#3D618F"/>
<path d="M266.11 177.174L265.599 176.471V177.174H265.086V174.952H265.599V176.18L266.107 175.498H266.74L266.044 176.339L266.746 177.174H266.11Z" fill="#3D618F"/>
<path d="M267.35 175.324C267.26 175.324 267.186 175.298 267.128 175.246C267.072 175.192 267.044 175.126 267.044 175.048C267.044 174.968 267.072 174.902 267.128 174.85C267.186 174.796 267.26 174.769 267.35 174.769C267.438 174.769 267.511 174.796 267.567 174.85C267.625 174.902 267.654 174.968 267.654 175.048C267.654 175.126 267.625 175.192 267.567 175.246C267.511 175.298 267.438 175.324 267.35 175.324ZM267.606 175.498V177.174H267.092V175.498H267.606Z" fill="#3D618F"/>
<path d="M270.266 175.48C270.474 175.48 270.64 175.543 270.762 175.67C270.886 175.796 270.948 175.971 270.948 176.195V177.174H270.437V176.264C270.437 176.156 270.408 176.073 270.35 176.015C270.294 175.955 270.216 175.925 270.116 175.925C270.016 175.925 269.937 175.955 269.879 176.015C269.823 176.073 269.795 176.156 269.795 176.264V177.174H269.284V176.264C269.284 176.156 269.255 176.073 269.197 176.015C269.141 175.955 269.063 175.925 268.963 175.925C268.863 175.925 268.784 175.955 268.726 176.015C268.67 176.073 268.642 176.156 268.642 176.264V177.174H268.128V175.498H268.642V175.709C268.694 175.638 268.762 175.583 268.846 175.543C268.93 175.501 269.025 175.48 269.131 175.48C269.257 175.48 269.369 175.507 269.467 175.561C269.567 175.615 269.646 175.693 269.702 175.793C269.76 175.701 269.839 175.625 269.939 175.567C270.039 175.509 270.148 175.48 270.266 175.48Z" fill="#3D618F"/>
<path d="M273.283 175.066V177.174H272.77V176.306H271.971V177.174H271.457V175.066H271.971V175.892H272.77V175.066H273.283Z" fill="#5F95DC"/>
<path d="M275.459 175.498V177.174H274.945V176.946C274.893 177.02 274.822 177.08 274.732 177.126C274.644 177.17 274.546 177.192 274.438 177.192C274.31 177.192 274.196 177.164 274.098 177.108C274 177.05 273.924 176.967 273.87 176.859C273.816 176.751 273.789 176.623 273.789 176.477V175.498H274.3V176.408C274.3 176.52 274.329 176.607 274.387 176.669C274.445 176.732 274.523 176.763 274.621 176.763C274.721 176.763 274.8 176.732 274.858 176.669C274.916 176.607 274.945 176.52 274.945 176.408V175.498H275.459Z" fill="#5F95DC"/>
<path d="M276.491 175.735C276.539 175.657 276.609 175.594 276.699 175.546C276.789 175.498 276.892 175.474 277.008 175.474C277.146 175.474 277.271 175.509 277.383 175.579C277.495 175.649 277.584 175.749 277.648 175.88C277.714 176.01 277.747 176.161 277.747 176.333C277.747 176.505 277.714 176.657 277.648 176.79C277.584 176.92 277.495 177.021 277.383 177.093C277.271 177.163 277.146 177.198 277.008 177.198C276.89 177.198 276.787 177.175 276.699 177.129C276.611 177.081 276.541 177.018 276.491 176.94V177.174H275.978V174.952H276.491V175.735ZM277.224 176.333C277.224 176.205 277.188 176.105 277.116 176.033C277.046 175.959 276.959 175.922 276.855 175.922C276.753 175.922 276.666 175.959 276.593 176.033C276.523 176.107 276.488 176.208 276.488 176.336C276.488 176.464 276.523 176.565 276.593 176.639C276.666 176.714 276.753 176.751 276.855 176.751C276.957 176.751 277.044 176.714 277.116 176.639C277.188 176.563 277.224 176.461 277.224 176.333Z" fill="#5F95DC"/>
<path d="M265.505 162.807C269.106 162.807 272.025 159.888 272.025 156.287C272.025 152.687 269.106 149.768 265.505 149.768C261.904 149.768 258.985 152.687 258.985 156.287C258.985 159.888 261.904 162.807 265.505 162.807Z" stroke="white" stroke-width="0.75" stroke-miterlimit="10"/>
<path d="M265.505 153.082C265.822 153.082 266.084 153.344 266.084 153.661V155.757C266.084 156.074 265.822 156.336 265.505 156.336C265.188 156.336 264.926 156.074 264.926 155.757V153.661C264.926 153.344 265.188 153.082 265.505 153.082ZM265.505 152.625C264.932 152.625 264.469 153.088 264.469 153.661V155.757C264.469 156.33 264.932 156.793 265.505 156.793C266.078 156.793 266.541 156.33 266.541 155.757V153.661C266.541 153.088 266.078 152.625 265.505 152.625Z" fill="white"/>
<path d="M263.458 154.868V155.489C263.458 156.616 264.372 157.53 265.499 157.53V159.657" stroke="white" stroke-width="0.75" stroke-miterlimit="10"/>
<path d="M267.546 154.868V155.489C267.546 156.616 266.632 157.53 265.505 157.53" stroke="white" stroke-width="0.75" stroke-miterlimit="10"/>
<path d="M264.591 159.657H266.443" stroke="white" stroke-width="0.75" stroke-miterlimit="10"/>
<path d="M236.324 162.807C239.925 162.807 242.844 159.888 242.844 156.287C242.844 152.687 239.925 149.768 236.324 149.768C232.723 149.768 229.804 152.687 229.804 156.287C229.804 159.888 232.723 162.807 236.324 162.807Z" stroke="white" stroke-width="0.75" stroke-miterlimit="10"/>
<path d="M238.847 154.545H233.801C233.442 154.545 233.149 154.837 233.149 155.197V157.811C233.149 158.17 233.442 158.463 233.801 158.463H238.847C239.206 158.463 239.499 158.17 239.499 157.811V155.197C239.499 154.837 239.206 154.545 238.847 154.545ZM236.324 157.439C235.806 157.439 235.386 157.019 235.386 156.501C235.386 155.983 235.806 155.562 236.324 155.562C236.842 155.562 237.262 155.983 237.262 156.501C237.262 157.019 236.842 157.439 236.324 157.439Z" stroke="white" stroke-width="0.75" stroke-miterlimit="10"/>
<path d="M235.185 153.984H233.795V154.545H235.185V153.984Z" fill="white"/>
<path d="M294.686 162.807C298.287 162.807 301.206 159.888 301.206 156.287C301.206 152.687 298.287 149.768 294.686 149.768C291.085 149.768 288.166 152.687 288.166 156.287C288.166 159.888 291.085 162.807 294.686 162.807Z" stroke="white" stroke-width="0.75" stroke-miterlimit="10"/>
<path d="M294.686 159.011C293.279 159.011 292.127 157.866 292.127 156.452C292.127 155.044 293.272 153.893 294.686 153.893V154.514C293.62 154.514 292.755 155.38 292.755 156.446C292.755 157.512 293.62 158.378 294.686 158.378C295.752 158.378 296.618 157.512 296.618 156.446C296.618 155.38 296.411 155.428 296.033 155.063L296.472 154.618C296.971 155.105 297.239 155.751 297.239 156.446C297.239 157.854 296.094 159.005 294.686 159.005V159.011Z" fill="white"/>
<path d="M296.008 154.21L294.589 155.032V153.387L296.008 154.21Z" fill="white"/>
<path d="M218.513 27.7236L220.701 25.53L221.213 26.0419L219.537 27.7236L221.213 29.3993L220.701 29.9112L218.513 27.7236Z" fill="#1362C9"/>
<path d="M254.043 83.813C254.043 83.813 268.339 89.7236 270.489 73.1862C272.64 56.6488 258.4 44.2854 244.599 49.5379C244.599 49.5379 233.978 51.0003 235.873 63.4003C237.768 75.8002 234.99 78.3046 235.648 81.8083C236.306 85.312 242.588 85.964 254.043 83.813Z" fill="#233770"/>
<path d="M240.565 73.8625C240.565 73.8625 242.277 81.0771 243.1 85.0499C243.922 89.0228 252.861 81.8083 252.861 81.8083C252.861 81.8083 254.86 78.6214 253.526 77.2687C252.191 75.916 250.729 74.3317 248.584 73.8625C246.439 73.3934 243.228 72.5951 242.545 72.7353C241.863 72.8754 240.565 73.8625 240.565 73.8625Z" fill="#162956"/>
<path d="M232.674 143.266C238.164 116.87 234.411 85.0013 234.411 85.0013L253.995 81.8145L272.476 84.3188L276.351 143.266H232.68H232.674Z" fill="#4EB0F9"/>
<path d="M267.918 100.198H266.712V99.662H265.865V98.5774H264.603V99.662H263.756V100.198H262.55C262.324 100.198 262.148 100.381 262.148 100.6V108.181C262.148 108.406 262.33 108.583 262.55 108.583H267.912C268.137 108.583 268.314 108.4 268.314 108.181V100.6C268.314 100.375 268.131 100.198 267.912 100.198H267.918Z" fill="#5F95DC"/>
<path d="M267.552 99.8325H262.19C261.968 99.8325 261.788 100.013 261.788 100.235V107.821C261.788 108.043 261.968 108.223 262.19 108.223H267.552C267.775 108.223 267.955 108.043 267.955 107.821V100.235C267.955 100.013 267.775 99.8325 267.552 99.8325Z" fill="white"/>
<path d="M266.346 99.3025H263.397V100.387H266.346V99.3025Z" fill="#5F95DC"/>
<path d="M265.505 98.2178H264.244V99.8447H265.505V98.2178Z" fill="#80CFFF"/>
<path d="M267.169 104.354H262.58V104.75H267.169V104.354Z" fill="#4EB0F9"/>
<path d="M267.169 105.152H262.58V105.548H267.169V105.152Z" fill="#4EB0F9"/>
<path d="M267.169 105.956H262.58V106.352H267.169V105.956Z" fill="#4EB0F9"/>
<path d="M267.169 106.755H262.58V107.151H267.169V106.755Z" fill="#4EB0F9"/>
<path d="M265.231 101.289H264.518V103.781H265.231V101.289Z" fill="#4EB0F9"/>
<path d="M266.121 102.178H263.628V102.891H266.121V102.178Z" fill="#4EB0F9"/>
<path d="M243.1 85.05L247.81 109.04" stroke="#5F95DC" stroke-miterlimit="10"/>
<path d="M260.643 86.6953L251.137 108.229" stroke="#5F95DC" stroke-miterlimit="10"/>
<path d="M264.079 113.122L256.389 118.984C256.389 118.984 254.866 117.278 254.866 116.638C254.866 115.998 254.08 113.914 255.159 113.36C256.237 112.805 264.079 113.128 264.079 113.128V113.122Z" fill="#5F95DC"/>
<path d="M257.907 121.342L256.067 118.478C256.067 118.478 255.165 117.119 254.385 116.723C253.605 116.327 247.225 118.466 243.277 118.941C241.26 119.185 238.176 119.66 235.416 120.148C235.282 122.981 235.081 125.869 234.801 128.776L257.901 121.342H257.907Z" fill="#5F95DC"/>
<path d="M249.035 107.065L260.204 82.6553H260.198L253.989 81.8145L244.599 83.3439L249.035 107.065Z" fill="#2C4784"/>
<path d="M259.85 70.9133L255.152 85.8786C254.616 87.5787 253.044 88.7364 251.265 88.7364C248.943 88.7364 247.085 86.7987 247.195 84.4771L247.493 77.939L259.857 70.9194L259.85 70.9133Z" fill="#FFA9A8"/>
<path d="M247.268 82.9174C256.28 82.308 258.455 73.6677 258.455 73.6677L255.853 73.1863L247.493 77.933L247.268 82.9174Z" fill="#F48989"/>
<path d="M259.85 70.9134C259.85 70.9134 263.36 70.0421 262.915 66.4044C262.47 62.7605 259.552 63.2419 258.583 65.2162C258.169 66.057 257.974 66.9162 257.882 67.623L257.188 67.5499C257.188 67.5499 255.518 61.3408 253.142 59.8601C250.771 58.3794 242.125 58.9644 240.413 59.7017C238.524 60.5182 238.664 75.5992 243.904 79.4198C249.144 83.2403 257.827 76.7753 259.844 70.9195L259.85 70.9134Z" fill="#FFA9A8"/>
<path d="M253.19 66.386H256.127" stroke="white" stroke-width="0.5" stroke-miterlimit="10"/>
<path d="M244.733 66.441C244.733 66.441 245.824 65.7586 246.671 66.441" stroke="white" stroke-width="0.5" stroke-miterlimit="10"/>
<path d="M249.864 68.1471C250.335 68.1471 250.717 67.7651 250.717 67.294C250.717 66.8228 250.335 66.4409 249.864 66.4409C249.392 66.4409 249.01 66.8228 249.01 67.294C249.01 67.7651 249.392 68.1471 249.864 68.1471Z" fill="#233770"/>
<path d="M250.253 66.5629C250.253 66.5629 251.161 66.5507 251.442 66.4045C251.722 66.2582 251.167 66.8371 250.613 66.8919C250.308 66.9224 250.881 66.9894 251.161 66.8919C251.442 66.7944 250.857 67.3063 250.467 67.2941C250.077 67.2819 250.253 66.5629 250.253 66.5629Z" fill="#233770"/>
<path d="M241.997 66.6054C241.997 66.6054 242.905 66.5932 243.185 66.4469C243.465 66.3007 242.911 66.8796 242.356 66.9344C242.052 66.9649 242.625 67.0319 242.905 66.9344C243.185 66.8369 242.6 67.3488 242.21 67.3366C241.82 67.3244 241.997 66.6054 241.997 66.6054Z" fill="#233770"/>
<path d="M241.808 68.0312C242.215 68.0312 242.545 67.7011 242.545 67.2939C242.545 66.8867 242.215 66.5566 241.808 66.5566C241.401 66.5566 241.071 66.8867 241.071 67.2939C241.071 67.7011 241.401 68.0312 241.808 68.0312Z" fill="#233770"/>
<path d="M245.714 67.623C245.714 67.623 243.831 70.4504 243.514 71.34C243.197 72.2296 245.714 72.0834 245.714 72.0834V67.623Z" fill="#F48989"/>
<path d="M243.1 73.8625H249.035C249.035 73.8625 245.757 79.4745 243.1 73.8625Z" fill="white"/>
<path d="M251.612 65.795C251.612 65.795 250.308 65.3136 248.626 65.3989L248.584 64.5459C250.46 64.4544 251.856 64.9785 251.917 64.9968L251.612 65.795Z" fill="#233770"/>
<path d="M240.09 65.7949L239.785 64.9967C239.846 64.9723 241.241 64.4483 243.118 64.5458L243.075 65.3988C241.394 65.3135 240.102 65.7949 240.09 65.7949Z" fill="#233770"/>
<path d="M259.552 66.1728C259.552 66.1728 260.362 65.1064 261.13 65.3989C261.898 65.6914 262.117 68.275 260.545 69.1768C260.545 69.1768 261.417 67.5255 260.953 66.6481C260.49 65.7706 259.552 66.1728 259.552 66.1728Z" fill="#F48989"/>
<path d="M288.178 102.179L292.651 106.389C292.919 106.639 293.352 106.529 293.467 106.182L300.28 85.8484L307.238 88.5904L300.329 112.007C298.86 116.992 292.675 118.704 288.849 115.2L281.872 108.808L288.185 102.179H288.178Z" fill="#FFA9A8"/>
<path d="M281.866 108.814L284.486 111.215L288.252 102.252C288.252 102.252 288.203 102.239 288.142 102.221L281.866 108.814Z" fill="#F48989"/>
<path d="M272.47 84.3188L290.019 100.393L280.312 110.587L264.871 92.9897L272.47 84.3188Z" fill="#4EB0F9"/>
<path d="M273.158 94.7874L273.701 103.05L280.312 110.587L273.158 94.7874Z" fill="#5F95DC"/>
<path d="M231.096 109.698L226.934 116.345C226.831 116.693 227.123 117.034 227.489 116.979L250.436 113.762L251.131 121.208L224.332 125.857C222.51 126.192 220.786 125.802 219.384 124.937C216.222 122.981 215.326 118.764 217.173 115.535L222.388 106.505L231.108 109.698H231.096Z" fill="#FFA9A8"/>
<path d="M222.431 106.523C222.395 106.541 222.364 106.559 222.334 106.572L222.273 106.675L228.317 114.127L230.992 109.85C230.98 109.783 230.974 109.716 230.962 109.643L222.425 106.517L222.431 106.523Z" fill="#F48989"/>
<path d="M242.844 94.0864L232.168 112.062L220.378 105.609L234.411 85.0012L242.844 94.0864Z" fill="#4EB0F9"/>
<path d="M222.273 104.975L231.815 110.008" stroke="#5F95DC" stroke-miterlimit="10"/>
<path d="M287.666 100.003L280.915 107.413" stroke="#5F95DC" stroke-miterlimit="10"/>
<path d="M235.513 101.301L232.168 112.056L235.635 106.224C235.611 104.518 235.574 102.867 235.52 101.301H235.513Z" fill="#5F95DC"/>
<path d="M238.56 62.8031C238.56 62.8031 246.421 62.6325 250.424 62.8031L251.137 60.8228L251.716 62.8031C251.716 62.8031 254.598 62.8884 255.932 62.8031C257.267 62.7178 257.2 56.3015 251.911 55.4424C247.115 54.6624 238.45 53.6326 238.56 62.8031Z" fill="#233770"/>
<path d="M241.454 70.1578C243.265 70.1578 244.733 68.6901 244.733 66.8795C244.733 65.069 243.265 63.6013 241.454 63.6013C239.644 63.6013 238.176 65.069 238.176 66.8795C238.176 68.6901 239.644 70.1578 241.454 70.1578Z" stroke="white" stroke-width="0.5" stroke-miterlimit="10"/>
<path d="M249.949 70.1578C251.759 70.1578 253.227 68.6901 253.227 66.8795C253.227 65.069 251.759 63.6013 249.949 63.6013C248.138 63.6013 246.67 65.069 246.67 66.8795C246.67 68.6901 248.138 70.1578 249.949 70.1578Z" stroke="white" stroke-width="0.5" stroke-miterlimit="10"/>
<path d="M255.421 62.8397C255.421 62.8397 258.924 76.044 253.519 81.0771C248.115 86.1102 263.61 87.207 267.424 81.333C271.239 75.459 272.007 62.1877 266.194 60.5547C260.38 58.9216 255.421 62.8397 255.421 62.8397Z" fill="#233770"/>
<path d="M310.151 72.3149C310.151 72.3149 313.46 72.906 311.766 78.4753C310.651 82.1313 307.232 88.5964 307.232 88.5964L300.274 85.8544L297.142 79.1151L310.151 72.3149Z" fill="#FFA9A8"/>
<path d="M291.756 47.9664L282.393 78.0265C282.237 78.5278 282.517 79.0606 283.018 79.2168L304.922 86.039C305.423 86.1951 305.956 85.9153 306.112 85.4141L315.474 55.354C315.631 54.8528 315.351 54.3199 314.85 54.1638L292.946 47.3416C292.445 47.1854 291.912 47.4652 291.756 47.9664Z" fill="#5F95DC"/>
<path d="M292.911 50.6109L284.845 76.5055C284.719 76.9103 284.945 77.3407 285.35 77.4668L303.99 83.2725C304.395 83.3986 304.825 83.1726 304.951 82.7678L313.016 56.8732C313.143 56.4684 312.917 56.038 312.512 55.9119L293.872 50.1062C293.467 49.9801 293.037 50.2061 292.911 50.6109Z" fill="white"/>
<path d="M294.077 55.2953L292.975 58.8325L296.513 59.9342L297.614 56.3971L294.077 55.2953Z" fill="#5F95DC"/>
<path d="M292.27 61.1206L291.94 62.1794L307.252 66.9487L307.582 65.8898L292.27 61.1206Z" fill="#5F95DC"/>
<path d="M291.648 63.1109L291.318 64.1697L306.63 68.9389L306.96 67.8801L291.648 63.1109Z" fill="#5F95DC"/>
<path d="M291.026 65.1055L290.696 66.1643L306.008 70.9335L306.338 69.8747L291.026 65.1055Z" fill="#5F95DC"/>
<path d="M290.41 67.0957L290.08 68.1545L305.392 72.9238L305.722 71.8649L290.41 67.0957Z" fill="#5F95DC"/>
<path d="M289.789 69.0801L289.459 70.1389L304.771 74.9081L305.101 73.8493L289.789 69.0801Z" fill="#5F95DC"/>
<path d="M288.546 73.0664L288.217 74.1252L293.255 75.6944L293.584 74.6356L288.546 73.0664Z" fill="#5F95DC"/>
<path d="M298.823 76.2695L298.493 77.3284L303.532 78.8976L303.861 77.8387L298.823 76.2695Z" fill="#5F95DC"/>
<path d="M298.916 50.2785L298.22 52.5125L307.57 55.4244L308.265 53.1904L298.916 50.2785Z" fill="#5F95DC"/>
<path d="M300.094 48.4962L299.302 51.0386L307.517 53.5971L308.309 51.0548L300.094 48.4962Z" fill="#4EB0F9"/>
<path d="M302.647 47.8734L302.039 49.8281L305.954 51.0476L306.563 49.0929L302.647 47.8734Z" fill="#5F95DC"/>
<path d="M307.898 71.7527C307.254 71.6241 306.629 72.0402 306.5 72.6821C306.372 73.3239 306.79 73.9485 307.433 74.0771L309.232 74.4364C309.875 74.565 310.501 74.1489 310.629 73.5071C310.757 72.8652 310.34 72.2407 309.696 72.1121L307.898 71.7527Z" fill="#FFA9A8"/>
<path d="M307.432 74.0826C306.788 73.954 306.162 74.3701 306.034 75.0119C305.906 75.6538 306.324 76.2783 306.967 76.4069L308.766 76.7663C309.409 76.8949 310.035 76.4788 310.163 75.837C310.291 75.1951 309.874 74.5705 309.23 74.4419L307.432 74.0826Z" fill="#FFA9A8"/>
<path d="M306.967 76.4063C306.323 76.2777 305.698 76.6938 305.569 77.3356C305.441 77.9775 305.859 78.602 306.502 78.7306L308.301 79.09C308.944 79.2186 309.57 78.8025 309.698 78.1606C309.827 77.5188 309.409 76.8942 308.765 76.7656L306.967 76.4063Z" fill="#FFA9A8"/>
<path d="M306.509 78.6914C305.865 78.5628 305.24 78.9789 305.111 79.6208C304.983 80.2626 305.401 80.8872 306.044 81.0158L307.843 81.3752C308.486 81.5038 309.112 81.0877 309.24 80.4458C309.369 79.8039 308.951 79.1794 308.307 79.0508L306.509 78.6914Z" fill="#FFA9A8"/>
<path d="M263.037 111.155L252.256 112.767C251.607 112.864 251.159 113.467 251.256 114.115C251.353 114.762 251.958 115.208 252.607 115.111L263.388 113.5C264.037 113.403 264.485 112.799 264.388 112.152C264.291 111.505 263.687 111.058 263.037 111.155Z" fill="#FFA9A8"/>
<path d="M257.384 114.318L252.581 115.036C251.932 115.133 251.484 115.736 251.581 116.384C251.677 117.031 252.282 117.477 252.931 117.38L257.734 116.662C258.383 116.565 258.831 115.962 258.734 115.314C258.637 114.667 258.033 114.221 257.384 114.318Z" fill="#FFA9A8"/>
<path d="M257.468 116.662L252.665 117.38C252.016 117.477 251.568 118.08 251.665 118.728C251.761 119.375 252.366 119.821 253.015 119.724L257.818 119.006C258.467 118.909 258.915 118.306 258.818 117.658C258.721 117.011 258.117 116.565 257.468 116.662Z" fill="#FFA9A8"/>
<path d="M257.545 119.007L252.742 119.725C252.093 119.822 251.645 120.425 251.742 121.073C251.838 121.72 252.443 122.166 253.092 122.069L257.895 121.351C258.544 121.254 258.992 120.651 258.895 120.004C258.798 119.356 258.194 118.91 257.545 119.007Z" fill="#FFA9A8"/>
<path d="M255.238 110.036L252.135 110.5C251.486 110.597 251.038 111.2 251.135 111.848C251.231 112.495 251.836 112.941 252.485 112.844L255.589 112.38C256.238 112.283 256.685 111.68 256.589 111.033C256.492 110.385 255.887 109.939 255.238 110.036Z" fill="#FFA9A8"/>
<path d="M251.569 110.733L246.506 114.292L247.804 121.823C247.804 121.823 249.796 122.512 252.88 122.073C252.88 122.073 253.775 120.586 253.867 119.252C253.958 117.917 253.525 113.609 253.525 113.609C253.525 113.609 253.099 111.568 252.88 111.428C252.66 111.288 251.569 110.733 251.569 110.733Z" fill="#FFA9A8"/>
<path d="M265.517 139.037C269.111 139.037 272.025 136.124 272.025 132.529C272.025 128.935 269.111 126.022 265.517 126.022C261.923 126.022 259.01 128.935 259.01 132.529C259.01 136.124 261.923 139.037 265.517 139.037Z" fill="white"/>
<path d="M267.449 133.224L266.919 133.754L268.564 135.399L269.094 134.869C269.161 134.802 269.161 134.699 269.094 134.632L267.693 133.23C267.626 133.163 267.522 133.163 267.455 133.23L267.449 133.224ZM262.373 131.274C262.568 132.188 263.701 133.395 264.183 133.864C264.658 134.339 265.859 135.479 266.773 135.674C267.132 135.747 267.882 135.893 268.412 135.521L266.785 133.894C266.626 133.98 266.2 134.071 265.462 133.242L265.341 133.12L264.926 132.706L264.804 132.584C263.976 131.847 264.067 131.42 264.152 131.262L262.525 129.635C262.154 130.165 262.3 130.915 262.373 131.274ZM263.184 128.953L262.653 129.483L264.293 131.122L264.823 130.592C264.89 130.525 264.89 130.421 264.823 130.354L263.421 128.953C263.354 128.886 263.251 128.886 263.184 128.953Z" fill="#5F95DC"/>
<path d="M211.335 41.5068L193.171 60.1647L211.335 50.848V41.5068Z" fill="#D7F5FF"/>
<path d="M194.475 67.519C194.475 67.519 197.199 68.0065 195.803 72.5948C194.889 75.6049 192.068 80.9366 192.068 80.9366L186.663 78.8039L183.757 73.1188L194.469 67.519H194.475Z" fill="#FFA9A8"/>
<path d="M177.261 91.4903L180.734 94.7624C180.941 94.9574 181.277 94.8721 181.368 94.604L186.657 78.804L192.062 80.9366L186.694 99.1314C185.554 103.001 180.747 104.335 177.773 101.611L172.35 96.6453L177.255 91.4903H177.261Z" fill="#FFA9A8"/>
<path d="M172.356 96.6453L174.391 98.5098L177.316 91.5451C177.316 91.5451 177.279 91.5329 177.231 91.5208L172.356 96.6453Z" fill="#F48989"/>
<path d="M185.38 74.8255L191.687 76.1028C192.063 76.179 192.429 75.9359 192.506 75.5599L194.77 64.3802C194.846 64.0041 194.603 63.6376 194.227 63.5614L187.921 62.2841C187.544 62.2079 187.178 62.451 187.102 62.827L184.837 74.0068C184.761 74.3828 185.004 74.7493 185.38 74.8255Z" fill="#04457C"/>
<path d="M185.842 73.64L190.948 74.6743C191.149 74.715 191.346 74.5849 191.386 74.3837L193.4 64.4402C193.441 64.239 193.311 64.0429 193.11 64.0021L188.004 62.9679C187.802 62.9272 187.606 63.0572 187.566 63.2584L185.552 73.202C185.511 73.4032 185.641 73.5993 185.842 73.64Z" fill="white"/>
<path d="M192.225 68.966L193.713 69.2633C194.241 69.3688 194.754 69.0263 194.86 68.4983L194.861 68.4923C194.967 67.9643 194.624 67.4508 194.096 67.3453L192.608 67.048C192.08 66.9425 191.567 67.285 191.461 67.813L191.46 67.8189C191.355 68.3469 191.697 68.8605 192.225 68.966Z" fill="#FFA9A8"/>
<path d="M191.844 70.882L193.332 71.1793C193.86 71.2848 194.374 70.9423 194.479 70.4143L194.48 70.4083C194.586 69.8803 194.243 69.3668 193.715 69.2613L192.227 68.964C191.699 68.8585 191.186 69.201 191.08 69.729L191.079 69.735C190.974 70.263 191.316 70.7765 191.844 70.882Z" fill="#FFA9A8"/>
<path d="M191.462 72.8041L192.95 73.1014C193.478 73.207 193.992 72.8644 194.097 72.3364L194.098 72.3305C194.204 71.8025 193.861 71.2889 193.333 71.1834L191.845 70.8861C191.317 70.7806 190.804 71.1231 190.698 71.6511L190.697 71.6571C190.592 72.1851 190.934 72.6986 191.462 72.8041Z" fill="#FFA9A8"/>
<path d="M191.08 74.6828L192.568 74.9801C193.096 75.0856 193.61 74.7431 193.715 74.2151L193.716 74.2091C193.822 73.6811 193.479 73.1676 192.951 73.0621L191.464 72.7648C190.936 72.6593 190.422 73.0018 190.316 73.5298L190.315 73.5357C190.21 74.0637 190.552 74.5773 191.08 74.6828Z" fill="#FFA9A8"/>
<path d="M184.49 73.76L185.834 74.0287C186.362 74.1342 186.876 73.7917 186.981 73.2637L186.983 73.2577C187.088 72.7297 186.746 72.2161 186.218 72.1106L184.873 71.842C184.345 71.7365 183.832 72.079 183.726 72.607L183.725 72.613C183.619 73.141 183.962 73.6545 184.49 73.76Z" fill="#FFA9A8"/>
<path d="M183.086 219.902L196.547 224.271V226.349H176.896L177.353 219.902H183.086Z" fill="#203771"/>
<path d="M189.387 221.316L188.851 222.735" stroke="white" stroke-width="1.5" stroke-miterlimit="10" stroke-linecap="round"/>
<path d="M187.687 220.779L187.157 222.199" stroke="white" stroke-width="1.5" stroke-miterlimit="10" stroke-linecap="round"/>
<path d="M185.993 220.249L185.457 221.663" stroke="white" stroke-width="1.5" stroke-miterlimit="10" stroke-linecap="round"/>
<path d="M183.087 219.902L181.813 211.134H175.951L177.353 219.902H183.087Z" fill="#FFA9A8"/>
<path d="M136.216 219.902L122.762 224.271V226.349H142.413L141.956 219.902H136.216Z" fill="#203771"/>
<path d="M129.916 221.316L130.452 222.735" stroke="white" stroke-width="1.5" stroke-miterlimit="10" stroke-linecap="round"/>
<path d="M131.616 220.779L132.152 222.199" stroke="white" stroke-width="1.5" stroke-miterlimit="10" stroke-linecap="round"/>
<path d="M133.316 220.249L133.846 221.663" stroke="white" stroke-width="1.5" stroke-miterlimit="10" stroke-linecap="round"/>
<path d="M136.216 219.902L137.49 211.134H143.352L141.956 219.902H136.216Z" fill="#FFA9A8"/>
<path d="M165.056 77.6099L178.693 90.1012L171.149 98.0226L160.181 83.7824L165.056 77.6099Z" fill="#4EB0F9"/>
<path d="M150.359 74.1304L139.464 78.3714V115.998H169.779L165.056 77.6097L155.77 74.1304H150.359Z" fill="#5F95DC"/>
<path d="M146.971 65.624L150.329 76.33C150.713 77.5487 151.84 78.3713 153.113 78.3713C154.777 78.3713 156.099 76.982 156.026 75.3246L155.813 70.6449L146.971 65.624Z" fill="#FFA9A8"/>
<path d="M155.971 74.2096C149.524 73.777 147.97 67.5922 147.97 67.5922L149.835 67.251L155.813 70.645L155.977 74.2096H155.971Z" fill="#F48989"/>
<path d="M162.156 56.6548C162.156 56.6548 164.892 61.7976 159.219 64.8321C154.375 67.4278 156.538 59.7989 157.324 59.0251C158.11 58.2512 159.012 57.3129 159.664 57.2824C160.316 57.2519 162.15 56.6487 162.15 56.6487L162.156 56.6548Z" fill="#233770"/>
<path d="M146.337 54.6621C146.337 54.6621 141.645 55.1069 142.084 59.1529C142.669 64.5334 148.281 69.798 148.281 69.798L147.58 64.7954C147.58 64.7954 147.471 61.3953 147.538 61.1089C147.605 60.8225 147.056 57.8855 146.959 57.4711C146.861 57.0568 146.337 54.6621 146.337 54.6621Z" fill="#233770"/>
<path d="M146.971 65.6241C146.971 65.6241 144.461 65.0026 144.777 62.3946C145.094 59.7867 147.184 60.134 147.873 61.5477C148.165 62.1509 148.312 62.7663 148.373 63.2721L148.866 63.2173C148.866 63.2173 150.06 58.7752 151.76 57.715C153.46 56.6547 159.639 57.0752 160.864 57.5992C162.217 58.1841 162.119 68.9694 158.366 71.6992C154.612 74.429 148.409 69.8042 146.965 65.618L146.971 65.6241Z" fill="#FFA9A8"/>
<path d="M146.319 60.4631C148.165 60.6459 148.378 63.266 148.378 63.266L149.14 63.2112C149.567 60.6398 151.809 57.9709 155.825 59.0981C159.846 60.2254 162.21 58.568 163.088 56.0697C163.088 56.0697 165.361 49.8789 160.279 45.8207C160.279 45.8207 160.827 47.5878 160.407 48.8796C160.407 48.8796 159.34 45.577 156.446 45.8207C156.446 45.8207 157.397 47.0881 157.055 48.0448C156.714 49.0014 144.674 47.0394 146.331 54.6622L146.313 60.4631H146.319Z" fill="#233770"/>
<path d="M161.924 57.1423C162.186 55.0157 160.096 53.8945 160.096 53.8945C160.096 53.8945 160.632 55.1863 160.45 55.8505C160.45 55.8505 159.493 54.1505 157.342 53.8945C157.342 53.8945 158.262 54.8085 158.11 56.3562C157.957 57.904 156.16 59.0312 154.832 58.8911C154.832 58.8911 156.068 59.6832 158.073 59.7563C160.078 59.8295 161.668 59.2262 161.918 57.1423H161.924Z" fill="#2C4784"/>
<path d="M169.779 115.998L186.718 212.882H169.779L152.26 115.998H169.779Z" fill="#233770"/>
<path d="M155.569 115.998L148.604 212.882H132.56L139.464 115.998H155.569Z" fill="#233770"/>
<path d="M148.83 134.583H162.32V115.998H148.83V134.583Z" fill="#233770"/>
<path d="M167.396 118.874H146.222" stroke="#4D669E" stroke-miterlimit="10"/>
<path d="M135.997 99.4726L133.206 103.909C132.749 104.628 132.81 105.56 133.352 106.224L144.625 120.958L140.482 125.449L125.65 108.905C124.09 107.272 123.816 104.798 124.968 102.854L129.178 95.78L135.997 99.4726Z" fill="#FFA9A8"/>
<path d="M143.358 119.301L140.482 125.449L144.625 120.952L143.358 119.301Z" fill="#F48989"/>
<path d="M135.997 99.4728L129.185 95.7742L133.992 102.66L135.997 99.4728Z" fill="#F48989"/>
<path d="M139.464 78.3713L128.094 95.0671L136.521 100.563L139.464 95.0671V78.3713Z" fill="#4EB0F9"/>
<path d="M145.637 120.013L139.976 126.229" stroke="#4D669E" stroke-miterlimit="10"/>
<path d="M165.081 120.556L169.821 125.845" stroke="#4D669E" stroke-miterlimit="10"/>
<path d="M157.439 121.585V132.529H153.174" stroke="#4D669E" stroke-miterlimit="10"/>
<path d="M160.492 115.998H155.057V118.874H160.492V115.998Z" stroke="#4D669E" stroke-miterlimit="10" stroke-linecap="round"/>
<path d="M174.958 161.546C174.958 161.546 176.847 166.268 176.89 171.447" stroke="#4D669E" stroke-miterlimit="10"/>
<path d="M184.098 209.836H170.845" stroke="#4D669E" stroke-miterlimit="10"/>
<path d="M147.385 209.836H134.492" stroke="#4D669E" stroke-miterlimit="10"/>
<path d="M138.398 162.612C138.398 162.612 137.557 166.037 137.405 171.447" stroke="#4D669E" stroke-miterlimit="10"/>
<path d="M176.384 90.1987L170.997 95.7741" stroke="#5F95DC" stroke-miterlimit="10"/>
<path d="M136.168 98.4795L130.275 94.3665" stroke="#5F95DC" stroke-miterlimit="10"/>
<path d="M148.604 85.8357H143.376L144.065 91.8803H147.794L148.604 85.8357Z" fill="#4EB0F9"/>
<path d="M184.927 63.6194L178.876 61.8584" stroke="#04457C" stroke-miterlimit="10"/>
<path d="M185.767 62.5775L183.799 59.0007" stroke="#04457C" stroke-miterlimit="10"/>
<path d="M185.073 64.9539L181.496 66.922" stroke="#04457C" stroke-miterlimit="10"/>
<path d="M154.113 63.6437C154.449 63.6437 154.722 63.3709 154.722 63.0344C154.722 62.6979 154.449 62.425 154.113 62.425C153.776 62.425 153.503 62.6979 153.503 63.0344C153.503 63.3709 153.776 63.6437 154.113 63.6437Z" fill="#233770"/>
<path d="M159.877 63.5586C160.166 63.5586 160.401 63.3239 160.401 63.0345C160.401 62.7451 160.166 62.5105 159.877 62.5105C159.587 62.5105 159.353 62.7451 159.353 63.0345C159.353 63.3239 159.587 63.5586 159.877 63.5586Z" fill="#233770"/>
<path d="M157.086 63.272C157.086 63.272 158.433 65.295 158.658 65.9287C158.884 66.5624 157.086 66.4649 157.086 66.4649V63.272Z" fill="#F48989"/>
<path d="M158.957 67.7324H154.71C154.71 67.7324 157.056 71.7479 158.957 67.7324Z" fill="white"/>
<path d="M152.754 61.6755C152.754 61.6755 153.716 61.3099 155.014 61.3709" stroke="#233770" stroke-miterlimit="10"/>
<path d="M161.211 61.6755C161.211 61.6755 160.249 61.3099 158.951 61.3709" stroke="#233770" stroke-miterlimit="10"/>
<path d="M147.184 62.2301C147.184 62.2301 146.605 61.4684 146.057 61.6756C145.509 61.8828 145.35 63.7352 146.478 64.3811C146.478 64.3811 145.85 63.1989 146.185 62.5713C146.52 61.9437 147.19 62.2301 147.19 62.2301H147.184Z" fill="#F48989"/>
<path d="M291.668 28.4722C291.526 28.4722 291.406 28.4313 291.306 28.3494C291.207 28.2669 291.131 28.1474 291.078 27.991C291.026 27.8339 290.999 27.6442 290.999 27.4219C290.999 27.2009 291.026 27.0122 291.078 26.8558C291.131 26.6988 291.208 26.579 291.307 26.4964C291.407 26.4132 291.528 26.3716 291.668 26.3716C291.808 26.3716 291.928 26.4132 292.028 26.4964C292.128 26.579 292.204 26.6988 292.257 26.8558C292.31 27.0122 292.337 27.2009 292.337 27.4219C292.337 27.6442 292.31 27.8339 292.258 27.991C292.205 28.1474 292.129 28.2669 292.029 28.3494C291.93 28.4313 291.809 28.4722 291.668 28.4722ZM291.668 28.2525C291.808 28.2525 291.917 28.1807 291.995 28.0369C292.072 27.8931 292.111 27.6881 292.111 27.4219C292.111 27.2449 292.093 27.0941 292.058 26.9697C292.023 26.8452 291.972 26.7503 291.906 26.6851C291.84 26.6199 291.761 26.5873 291.668 26.5873C291.529 26.5873 291.42 26.6602 291.342 26.8059C291.264 26.951 291.225 27.1563 291.225 27.4219C291.225 27.599 291.242 27.7494 291.277 27.8732C291.312 27.997 291.363 28.0911 291.428 28.1557C291.495 28.2203 291.575 28.2525 291.668 28.2525Z" fill="#1362C9"/>
<path d="M293.37 26.3996V28.4442H293.137V26.6592H293.125L292.656 26.9906V26.739L293.137 26.3996H293.37Z" fill="#1362C9"/>
<path d="M294.832 28.1827C294.785 28.1827 294.746 28.165 294.712 28.1297C294.679 28.0945 294.663 28.0522 294.663 28.003C294.663 27.9537 294.679 27.9114 294.712 27.8762C294.746 27.8409 294.785 27.8233 294.832 27.8233C294.878 27.8233 294.918 27.8409 294.951 27.8762C294.984 27.9114 295.001 27.9537 295.001 28.003C295.001 28.0356 294.993 28.0655 294.977 28.0928C294.962 28.1201 294.942 28.1421 294.916 28.1587C294.891 28.1747 294.863 28.1827 294.832 28.1827ZM294.832 27.1484C294.785 27.1484 294.746 27.1307 294.712 27.0954C294.679 27.0602 294.663 27.0179 294.663 26.9687C294.663 26.9194 294.679 26.8771 294.712 26.8419C294.746 26.8066 294.785 26.7889 294.832 26.7889C294.878 26.7889 294.918 26.8066 294.951 26.8419C294.984 26.8771 295.001 26.9194 295.001 26.9687C295.001 27.0013 294.993 27.0312 294.977 27.0585C294.962 27.0858 294.942 27.1078 294.916 27.1244C294.891 27.1404 294.863 27.1484 294.832 27.1484Z" fill="#1362C9"/>
<path d="M296.139 28.4442V28.2645L296.773 27.5257C296.848 27.4392 296.909 27.364 296.957 27.3001C297.006 27.2355 297.041 27.175 297.064 27.1184C297.088 27.0612 297.1 27.0013 297.1 26.9387C297.1 26.8668 297.084 26.8046 297.051 26.752C297.019 26.6994 296.976 26.6588 296.92 26.6302C296.864 26.6016 296.802 26.5873 296.732 26.5873C296.658 26.5873 296.594 26.6036 296.539 26.6362C296.484 26.6681 296.442 26.7131 296.412 26.771C296.382 26.8289 296.368 26.8968 296.368 26.9746H296.146C296.146 26.8548 296.172 26.7497 296.224 26.6592C296.276 26.5686 296.347 26.4981 296.436 26.4475C296.526 26.3969 296.627 26.3716 296.74 26.3716C296.852 26.3716 296.952 26.3969 297.039 26.4475C297.126 26.4981 297.194 26.5663 297.244 26.6522C297.293 26.738 297.318 26.8335 297.318 26.9387C297.318 27.0139 297.305 27.0875 297.28 27.1593C297.254 27.2306 297.211 27.3101 297.148 27.3979C297.086 27.4851 297 27.5916 296.89 27.7174L296.458 28.2086V28.2246H297.352V28.4442H296.139Z" fill="#1362C9"/>
<path d="M298.378 28.4722C298.299 28.4709 298.221 28.4549 298.142 28.4243C298.063 28.3936 297.991 28.3421 297.926 28.2695C297.861 28.1963 297.808 28.0975 297.769 27.973C297.729 27.8479 297.71 27.6908 297.71 27.5018C297.71 27.3207 297.726 27.1603 297.758 27.0206C297.789 26.8801 297.836 26.762 297.897 26.6662C297.957 26.5696 298.03 26.4964 298.116 26.4465C298.203 26.3966 298.3 26.3716 298.408 26.3716C298.516 26.3716 298.612 26.3946 298.696 26.4405C298.78 26.4858 298.849 26.549 298.902 26.6302C298.956 26.7114 298.99 26.8049 299.006 26.9107H298.776C298.755 26.8189 298.714 26.7427 298.652 26.6821C298.591 26.6216 298.51 26.5913 298.408 26.5913C298.259 26.5913 298.142 26.6602 298.056 26.7979C297.971 26.9357 297.928 27.1291 297.928 27.378H297.943C297.978 27.3214 298.019 27.2732 298.067 27.2332C298.116 27.1926 298.17 27.1613 298.229 27.1394C298.288 27.1174 298.35 27.1064 298.416 27.1064C298.526 27.1064 298.627 27.1357 298.718 27.1943C298.81 27.2522 298.883 27.3324 298.938 27.4349C298.993 27.5367 299.021 27.6535 299.021 27.7853C299.021 27.9118 298.994 28.0276 298.941 28.1327C298.888 28.2372 298.813 28.3204 298.716 28.3823C298.621 28.4436 298.508 28.4735 298.378 28.4722ZM298.378 28.2525C298.457 28.2525 298.528 28.2316 298.591 28.1896C298.654 28.1477 298.704 28.0915 298.74 28.0209C298.777 27.9504 298.795 27.8718 298.795 27.7853C298.795 27.7008 298.777 27.6239 298.742 27.5547C298.707 27.4848 298.658 27.4292 298.596 27.388C298.535 27.3467 298.465 27.3261 298.386 27.3261C298.326 27.3261 298.271 27.3387 298.22 27.364C298.168 27.3886 298.123 27.4226 298.084 27.4658C298.046 27.5091 298.016 27.5587 297.994 27.6146C297.972 27.6698 297.961 27.7281 297.961 27.7893C297.961 27.8705 297.979 27.9464 298.015 28.0169C298.051 28.0875 298.101 28.1444 298.163 28.1877C298.226 28.2309 298.298 28.2525 298.378 28.2525Z" fill="#1362C9"/>
<path d="M299.503 26.3996L300.074 28.1208H300.096L300.667 26.3996H300.911L300.205 28.4442H299.965L299.258 26.3996H299.503Z" fill="#1362C9"/>
<path d="M301.181 28.4442V26.9107H301.402V28.4442H301.181ZM301.293 26.6552C301.25 26.6552 301.213 26.6395 301.182 26.6082C301.151 26.577 301.136 26.5394 301.136 26.4954C301.136 26.4515 301.151 26.4139 301.182 26.3826C301.213 26.3513 301.25 26.3357 301.293 26.3357C301.337 26.3357 301.374 26.3513 301.404 26.3826C301.436 26.4139 301.451 26.4515 301.451 26.4954C301.451 26.5394 301.436 26.577 301.404 26.6082C301.374 26.6395 301.337 26.6552 301.293 26.6552Z" fill="#1362C9"/>
<path d="M302.353 28.4762C302.233 28.4762 302.127 28.4439 302.035 28.3793C301.943 28.3141 301.871 28.2223 301.819 28.1038C301.767 27.9847 301.741 27.8439 301.741 27.6815C301.741 27.5204 301.767 27.3806 301.819 27.2622C301.871 27.1437 301.943 27.0522 302.036 26.9876C302.128 26.9231 302.235 26.8908 302.357 26.8908C302.451 26.8908 302.525 26.9074 302.579 26.9407C302.634 26.9733 302.676 27.0106 302.705 27.0525C302.735 27.0938 302.757 27.1277 302.774 27.1543H302.793V26.3996H303.014V28.4442H302.8V28.2086H302.774C302.757 28.2366 302.734 28.2718 302.704 28.3144C302.674 28.3564 302.631 28.394 302.576 28.4273C302.52 28.4599 302.446 28.4762 302.353 28.4762ZM302.383 28.2645C302.472 28.2645 302.547 28.2399 302.608 28.1906C302.67 28.1407 302.716 28.0718 302.748 27.984C302.78 27.8955 302.796 27.7933 302.796 27.6775C302.796 27.563 302.781 27.4628 302.749 27.377C302.718 27.2905 302.672 27.2232 302.61 27.1753C302.549 27.1267 302.473 27.1024 302.383 27.1024C302.289 27.1024 302.211 27.1281 302.148 27.1793C302.086 27.2299 302.04 27.2988 302.008 27.386C301.978 27.4725 301.962 27.5697 301.962 27.6775C301.962 27.7866 301.978 27.8858 302.009 27.975C302.041 28.0635 302.088 28.1341 302.15 28.1867C302.213 28.2386 302.29 28.2645 302.383 28.2645Z" fill="#1362C9"/>
<path d="M304.056 28.4762C303.917 28.4762 303.797 28.4436 303.696 28.3783C303.596 28.3124 303.518 28.2206 303.464 28.1028C303.41 27.9843 303.383 27.8465 303.383 27.6895C303.383 27.5324 303.41 27.394 303.464 27.2742C303.518 27.1537 303.594 27.0598 303.691 26.9926C303.789 26.9247 303.903 26.8908 304.033 26.8908C304.108 26.8908 304.182 26.9041 304.256 26.9307C304.329 26.9573 304.396 27.0006 304.456 27.0605C304.516 27.1197 304.564 27.1983 304.599 27.2961C304.635 27.394 304.653 27.5144 304.653 27.6575V27.7574H303.541V27.5537H304.428C304.428 27.4672 304.411 27.39 304.379 27.3221C304.347 27.2542 304.301 27.2006 304.242 27.1613C304.183 27.1221 304.113 27.1024 304.033 27.1024C303.945 27.1024 303.868 27.1257 303.804 27.1723C303.74 27.2182 303.691 27.2781 303.657 27.352C303.622 27.4259 303.605 27.5051 303.605 27.5896V27.7254C303.605 27.8412 303.624 27.9394 303.661 28.0199C303.699 28.0998 303.752 28.1607 303.82 28.2026C303.888 28.2439 303.966 28.2645 304.056 28.2645C304.114 28.2645 304.166 28.2559 304.213 28.2386C304.261 28.2206 304.302 28.194 304.336 28.1587C304.371 28.1228 304.397 28.0782 304.416 28.0249L304.63 28.0888C304.608 28.166 304.57 28.2339 304.517 28.2925C304.464 28.3504 304.398 28.3956 304.32 28.4283C304.241 28.4602 304.153 28.4762 304.056 28.4762Z" fill="#1362C9"/>
<path d="M305.576 28.4762C305.446 28.4762 305.332 28.4432 305.233 28.3773C305.136 28.3114 305.059 28.2193 305.004 28.1008C304.95 27.9823 304.922 27.8439 304.922 27.6855C304.922 27.5257 304.95 27.3863 305.004 27.2672C305.059 27.148 305.136 27.0555 305.233 26.9896C305.332 26.9237 305.446 26.8908 305.576 26.8908C305.706 26.8908 305.82 26.9237 305.918 26.9896C306.016 27.0555 306.093 27.148 306.147 27.2672C306.202 27.3863 306.23 27.5257 306.23 27.6855C306.23 27.8439 306.202 27.9823 306.147 28.1008C306.093 28.2193 306.016 28.3114 305.918 28.3773C305.82 28.4432 305.706 28.4762 305.576 28.4762ZM305.576 28.2645C305.675 28.2645 305.756 28.2376 305.82 28.1837C305.884 28.1297 305.931 28.0589 305.962 27.971C305.993 27.8832 306.008 27.788 306.008 27.6855C306.008 27.583 305.993 27.4875 305.962 27.3989C305.931 27.3104 305.884 27.2389 305.82 27.1843C305.756 27.1297 305.675 27.1024 305.576 27.1024C305.477 27.1024 305.396 27.1297 305.332 27.1843C305.268 27.2389 305.221 27.3104 305.19 27.3989C305.159 27.4875 305.144 27.583 305.144 27.6855C305.144 27.788 305.159 27.8832 305.19 27.971C305.221 28.0589 305.268 28.1297 305.332 28.1837C305.396 28.2376 305.477 28.2645 305.576 28.2645Z" fill="#1362C9"/>
<path d="M308.889 27.0385H308.657C308.643 26.9673 308.619 26.9048 308.584 26.8508C308.55 26.7969 308.509 26.7517 308.46 26.7151C308.412 26.6778 308.359 26.6498 308.3 26.6312C308.241 26.6126 308.179 26.6033 308.116 26.6033C307.999 26.6033 307.894 26.6345 307.799 26.6971C307.705 26.7597 307.63 26.8518 307.575 26.9736C307.52 27.0954 307.492 27.2449 307.492 27.4219C307.492 27.599 307.52 27.7484 307.575 27.8702C307.63 27.992 307.705 28.0842 307.799 28.1467C307.894 28.2093 307.999 28.2406 308.116 28.2406C308.179 28.2406 308.241 28.2312 308.3 28.2126C308.359 28.194 308.412 28.1664 308.46 28.1297C308.509 28.0925 308.55 28.0469 308.584 27.993C308.619 27.9384 308.643 27.8758 308.657 27.8053H308.889C308.872 27.9098 308.84 28.0033 308.794 28.0858C308.747 28.1684 308.69 28.2386 308.621 28.2965C308.552 28.3537 308.475 28.3973 308.389 28.4273C308.304 28.4572 308.213 28.4722 308.116 28.4722C307.952 28.4722 307.806 28.4296 307.678 28.3444C307.55 28.2592 307.45 28.1381 307.377 27.981C307.303 27.8239 307.267 27.6376 307.267 27.4219C307.267 27.2063 307.303 27.0199 307.377 26.8628C307.45 26.7058 307.55 26.5846 307.678 26.4994C307.806 26.4142 307.952 26.3716 308.116 26.3716C308.213 26.3716 308.304 26.3866 308.389 26.4166C308.475 26.4465 308.552 26.4904 308.621 26.5483C308.69 26.6056 308.747 26.6755 308.794 26.758C308.84 26.8399 308.872 26.9334 308.889 27.0385Z" fill="#1362C9"/>
<path d="M309.66 28.4802C309.569 28.4802 309.486 28.4619 309.411 28.4253C309.337 28.388 309.278 28.3344 309.234 28.2645C309.19 28.194 309.168 28.1088 309.168 28.0089C309.168 27.9211 309.184 27.8499 309.217 27.7953C309.25 27.7401 309.293 27.6968 309.347 27.6655C309.402 27.6342 309.462 27.6109 309.528 27.5956C309.594 27.5797 309.661 27.567 309.728 27.5577C309.815 27.5457 309.887 27.5367 309.941 27.5307C309.996 27.5241 310.036 27.5131 310.061 27.4978C310.087 27.4825 310.1 27.4559 310.1 27.4179V27.4099C310.1 27.3114 310.074 27.2349 310.024 27.1803C309.974 27.1257 309.897 27.0984 309.795 27.0984C309.69 27.0984 309.607 27.1231 309.547 27.1723C309.486 27.2216 309.444 27.2742 309.42 27.3301L309.209 27.2502C309.247 27.157 309.297 27.0845 309.36 27.0325C309.423 26.98 309.492 26.9434 309.566 26.9227C309.641 26.9014 309.715 26.8908 309.788 26.8908C309.834 26.8908 309.887 26.8968 309.948 26.9088C310.008 26.9201 310.067 26.9437 310.123 26.9796C310.18 27.0156 310.227 27.0698 310.265 27.1424C310.303 27.2149 310.321 27.3121 310.321 27.4339V28.4442H310.1V28.2366H310.088C310.073 28.2699 310.048 28.3055 310.013 28.3434C309.978 28.3813 309.932 28.4136 309.873 28.4402C309.815 28.4669 309.744 28.4802 309.66 28.4802ZM309.694 28.2685C309.782 28.2685 309.856 28.2502 309.916 28.2136C309.976 28.177 310.022 28.1297 310.053 28.0718C310.084 28.0139 310.1 27.953 310.1 27.8891V27.6735C310.09 27.6855 310.07 27.6965 310.038 27.7064C310.006 27.7158 309.97 27.7241 309.929 27.7314C309.888 27.7381 309.848 27.744 309.81 27.7494C309.771 27.754 309.74 27.758 309.717 27.7614C309.659 27.7693 309.605 27.7823 309.555 27.8003C309.506 27.8176 309.465 27.8439 309.435 27.8792C309.405 27.9138 309.39 27.961 309.39 28.0209C309.39 28.1028 309.418 28.1647 309.475 28.2066C309.533 28.2479 309.606 28.2685 309.694 28.2685Z" fill="#1362C9"/>
<path d="M310.947 26.3996V28.4442H310.726V26.3996H310.947Z" fill="#1362C9"/>
<path d="M311.575 26.3996V28.4442H311.353V26.3996H311.575Z" fill="#1362C9"/>
<path d="M289.36 24.9851H288.034V20.42H289.418C289.835 20.42 290.191 20.5114 290.488 20.6942C290.784 20.8755 291.011 21.1363 291.169 21.4766C291.327 21.8154 291.406 22.2211 291.406 22.6936C291.406 23.1692 291.326 23.5786 291.167 23.9219C291.008 24.2636 290.776 24.5267 290.471 24.7109C290.166 24.8937 289.796 24.9851 289.36 24.9851ZM288.554 24.4947H289.326C289.681 24.4947 289.975 24.4219 290.209 24.2763C290.442 24.1306 290.616 23.9233 290.731 23.6544C290.845 23.3854 290.903 23.0652 290.903 22.6936C290.903 22.3251 290.846 22.0078 290.733 21.7418C290.62 21.4743 290.451 21.2693 290.226 21.1266C290 20.9825 289.72 20.9104 289.385 20.9104H288.554V24.4947Z" fill="#1362C9"/>
<path d="M292.211 24.9851V21.5613H292.689V22.0784H292.723C292.781 21.909 292.888 21.7716 293.041 21.666C293.195 21.5605 293.369 21.5078 293.561 21.5078C293.598 21.5078 293.643 21.5085 293.698 21.51C293.752 21.5115 293.794 21.5137 293.821 21.5167V22.0517C293.805 22.0472 293.766 22.0405 293.706 22.0316C293.647 22.0212 293.585 22.016 293.52 22.016C293.363 22.016 293.223 22.0509 293.1 22.1208C292.979 22.1891 292.882 22.2842 292.811 22.4061C292.741 22.5265 292.706 22.6639 292.706 22.8185V24.9851H292.211Z" fill="#1362C9"/>
<path d="M294.4 25.0208C294.296 25.0208 294.207 24.9814 294.133 24.9026C294.059 24.8239 294.022 24.7295 294.022 24.6196C294.022 24.5096 294.059 24.4152 294.133 24.3365C294.207 24.2577 294.296 24.2183 294.4 24.2183C294.503 24.2183 294.592 24.2577 294.666 24.3365C294.74 24.4152 294.777 24.5096 294.777 24.6196C294.777 24.6924 294.76 24.7592 294.725 24.8202C294.691 24.8811 294.646 24.9301 294.588 24.9673C294.532 25.0029 294.47 25.0208 294.4 25.0208Z" fill="#1362C9"/>
<path d="M297.393 20.42H298.013L299.473 24.2094H299.523L300.982 20.42H301.603V24.9851H301.117V21.5167H301.075L299.733 24.9851H299.263L297.921 21.5167H297.879V24.9851H297.393V20.42Z" fill="#1362C9"/>
<path d="M303.526 25.0654C303.322 25.0654 303.137 25.0245 302.971 24.9428C302.804 24.8595 302.672 24.7399 302.574 24.5839C302.477 24.4264 302.428 24.2362 302.428 24.0132C302.428 23.8171 302.464 23.6581 302.537 23.5362C302.609 23.4129 302.706 23.3163 302.828 23.2465C302.95 23.1766 303.084 23.1246 303.231 23.0904C303.379 23.0548 303.528 23.0265 303.677 23.0057C303.873 22.979 304.032 22.9589 304.153 22.9455C304.276 22.9307 304.366 22.9061 304.422 22.872C304.479 22.8378 304.508 22.7783 304.508 22.6936V22.6758C304.508 22.4559 304.451 22.285 304.338 22.1631C304.226 22.0413 304.056 21.9803 303.828 21.9803C303.592 21.9803 303.407 22.0353 303.273 22.1453C303.138 22.2553 303.044 22.3727 302.99 22.4975L302.52 22.3192C302.604 22.1111 302.716 21.9491 302.855 21.8332C302.997 21.7158 303.15 21.6341 303.317 21.588C303.484 21.5405 303.649 21.5167 303.811 21.5167C303.915 21.5167 304.034 21.5301 304.168 21.5568C304.303 21.5821 304.434 21.6348 304.56 21.7151C304.687 21.7953 304.793 21.9164 304.877 22.0784C304.96 22.2404 305.002 22.4574 305.002 22.7293V24.9851H304.508V24.5215H304.482C304.449 24.5958 304.393 24.6753 304.315 24.76C304.236 24.8447 304.132 24.9168 304.002 24.9762C303.872 25.0356 303.714 25.0654 303.526 25.0654ZM303.602 24.5928C303.797 24.5928 303.962 24.5519 304.097 24.4702C304.232 24.3885 304.334 24.283 304.403 24.1537C304.473 24.0244 304.508 23.8884 304.508 23.7458V23.2643C304.487 23.291 304.44 23.3156 304.369 23.3378C304.299 23.3586 304.218 23.3772 304.126 23.3936C304.035 23.4084 303.946 23.4218 303.86 23.4337C303.774 23.4441 303.705 23.453 303.652 23.4604C303.524 23.4783 303.403 23.5073 303.291 23.5474C303.181 23.586 303.092 23.6447 303.023 23.7235C302.956 23.8007 302.922 23.9063 302.922 24.04C302.922 24.2228 302.986 24.361 303.113 24.4546C303.242 24.5467 303.405 24.5928 303.602 24.5928Z" fill="#1362C9"/>
<path d="M305.906 24.9851V21.5613H306.384V22.0784H306.417C306.476 21.909 306.582 21.7716 306.736 21.666C306.89 21.5605 307.063 21.5078 307.256 21.5078C307.292 21.5078 307.338 21.5085 307.392 21.51C307.447 21.5115 307.488 21.5137 307.516 21.5167V22.0517C307.499 22.0472 307.461 22.0405 307.401 22.0316C307.342 22.0212 307.28 22.016 307.214 22.016C307.057 22.016 306.918 22.0509 306.795 22.1208C306.673 22.1891 306.577 22.2842 306.505 22.4061C306.435 22.5265 306.4 22.6639 306.4 22.8185V24.9851H305.906Z" fill="#1362C9"/>
<path d="M308.102 24.9851V21.5613H308.597V24.9851H308.102ZM308.354 20.9906C308.258 20.9906 308.174 20.9557 308.105 20.8859C308.036 20.816 308.002 20.7321 308.002 20.634C308.002 20.5359 308.036 20.452 308.105 20.3821C308.174 20.3123 308.258 20.2773 308.354 20.2773C308.451 20.2773 308.533 20.3123 308.601 20.3821C308.671 20.452 308.706 20.5359 308.706 20.634C308.706 20.7321 308.671 20.816 308.601 20.8859C308.533 20.9557 308.451 20.9906 308.354 20.9906Z" fill="#1362C9"/>
<path d="M310.451 25.0654C310.247 25.0654 310.062 25.0245 309.896 24.9428C309.729 24.8595 309.597 24.7399 309.499 24.5839C309.402 24.4264 309.353 24.2362 309.353 24.0132C309.353 23.8171 309.389 23.6581 309.462 23.5362C309.534 23.4129 309.632 23.3163 309.753 23.2465C309.875 23.1766 310.009 23.1246 310.156 23.0904C310.304 23.0548 310.453 23.0265 310.602 23.0057C310.798 22.979 310.957 22.9589 311.078 22.9455C311.201 22.9307 311.291 22.9061 311.347 22.872C311.404 22.8378 311.433 22.7783 311.433 22.6936V22.6758C311.433 22.4559 311.376 22.285 311.263 22.1631C311.151 22.0413 310.981 21.9803 310.753 21.9803C310.517 21.9803 310.332 22.0353 310.198 22.1453C310.063 22.2553 309.969 22.3727 309.915 22.4975L309.445 22.3192C309.529 22.1111 309.641 21.9491 309.78 21.8332C309.922 21.7158 310.075 21.6341 310.242 21.588C310.409 21.5405 310.574 21.5167 310.737 21.5167C310.84 21.5167 310.959 21.5301 311.093 21.5568C311.229 21.5821 311.359 21.6348 311.485 21.7151C311.612 21.7953 311.718 21.9164 311.802 22.0784C311.886 22.2404 311.927 22.4574 311.927 22.7293V24.9851H311.433V24.5215H311.407C311.374 24.5958 311.318 24.6753 311.24 24.76C311.161 24.8447 311.057 24.9168 310.927 24.9762C310.797 25.0356 310.639 25.0654 310.451 25.0654ZM310.527 24.5928C310.723 24.5928 310.887 24.5519 311.022 24.4702C311.157 24.3885 311.259 24.283 311.328 24.1537C311.398 24.0244 311.433 23.8884 311.433 23.7458V23.2643C311.412 23.291 311.366 23.3156 311.294 23.3378C311.224 23.3586 311.143 23.3772 311.051 23.3936C310.96 23.4084 310.871 23.4218 310.785 23.4337C310.699 23.4441 310.63 23.453 310.577 23.4604C310.449 23.4783 310.328 23.5073 310.217 23.5474C310.106 23.586 310.017 23.6447 309.948 23.7235C309.881 23.8007 309.847 23.9063 309.847 24.04C309.847 24.2228 309.911 24.361 310.038 24.4546C310.167 24.5467 310.33 24.5928 310.527 24.5928Z" fill="#1362C9"/>
<path d="M130.879 21.0336C130.879 21.0336 126.187 15.2036 118.582 18.2287C118.582 18.2287 115.139 13.908 111.179 15.6376C111.179 15.6376 106.779 7.47549 95.6346 6.67871C84.4898 5.88194 78.2502 15.5598 78.2502 15.5598C78.2502 15.5598 66.6972 11.9711 62.1272 21.0401H130.879V21.0336Z" fill="#B2E7FE"/>
</svg>
