<svg width="381" height="242" viewBox="0 0 381 242" fill="none" xmlns="http://www.w3.org/2000/svg">
<path d="M189.573 242C266.638 242 329.112 239.066 329.112 235.447C329.112 231.827 266.638 228.893 189.573 228.893C112.507 228.893 50.0332 231.827 50.0332 235.447C50.0332 239.066 112.507 242 189.573 242Z" fill="#F5F5F5"/>
<path d="M317.661 27.6749C317.971 27.8898 349.774 40.7735 366.859 66.3452C383.945 91.9168 366.427 70.6039 349.637 56.9746C335.891 45.8158 306.521 31.2513 309.846 27.6749C313.17 24.0986 317.661 27.6749 317.661 27.6749Z" fill="#D1E3F9"/>
<path d="M352.091 219.409C352.091 219.409 391.674 173.061 377.28 109.135C362.887 45.2093 286.6 29.4506 235.502 54.7063C184.404 79.962 112.436 87.7592 85.8072 37.4184C59.1788 -12.9224 -41.5773 95.9987 21.0354 219.409H352.091Z" fill="#D1E3F9"/>
<path d="M49.2039 219.408C49.2039 219.408 18.0199 154.617 75.2494 131.288C132.479 107.96 79.805 196.276 137.984 192.895C160.619 191.581 203.562 165.119 190.651 104.984C182.965 69.1886 273.278 90.5331 288.334 219.415H49.2039V219.408Z" fill="white"/>
<path d="M374.761 83.9111C374.761 83.9111 377.158 90.4951 379.202 91.7588C381.246 93.0226 381.598 89.124 379.202 85.3328C376.805 81.5416 373.56 80.9982 374.761 83.9111Z" fill="#B2E7FE"/>
<path d="M10.9598 165.131C10.9598 165.131 5.20227 138.631 10.9598 117.931C16.7173 97.2308 13.2628 124.268 13.3563 136.912C13.4787 152.209 16.7173 185.01 10.9598 165.131Z" fill="white"/>
<path d="M13.8313 104.08C13.8313 104.08 13.8961 97.7617 15.6953 96.3905C17.4946 95.0194 16.4654 103.158 15.6953 104.769C14.7957 106.658 13.7306 105.982 13.8313 104.08Z" fill="white"/>
<path d="M247.607 234.937L247.633 235.121C247.658 235.394 247.688 235.657 247.736 235.941C247.789 236.176 247.831 236.433 247.878 236.695L275.998 236.998C275.998 236.998 276.046 236.709 276.051 236.252C276.042 236.018 276.028 235.744 275.982 235.426C275.971 235.37 275.967 235.304 275.944 235.242C275.655 233.656 274.525 231.459 270.692 230.715C270.508 230.668 270.313 230.643 270.102 230.614H270.085C269.784 230.566 269.483 230.534 269.161 230.503C269.054 230.497 268.949 230.484 268.843 230.477C261.158 229.793 257.78 227.175 257.78 227.175C257.78 227.175 253.312 228.018 249.141 227.082C249.141 227.082 248.642 227.89 248.192 229.301C248.122 229.54 248.047 229.796 247.977 230.068C247.96 230.118 247.948 230.174 247.931 230.235C247.902 230.34 247.878 230.463 247.854 230.585C247.849 230.619 247.837 230.663 247.836 230.697C247.836 230.724 247.819 230.735 247.819 230.757C247.701 231.336 247.611 231.97 247.57 232.656C247.529 233.369 247.527 234.133 247.607 234.937Z" fill="#5F95DC"/>
<path d="M260.57 227.434C260.475 227.344 260.35 227.278 260.216 227.282C260.075 227.287 259.971 227.339 259.86 227.426C259.782 227.486 259.703 227.546 259.625 227.605C259.251 227.887 258.871 228.161 258.485 228.425C258.375 228.5 258.288 228.591 258.25 228.723C258.216 228.843 258.229 229.003 258.297 229.111C258.432 229.326 258.75 229.458 258.982 229.299C259.521 228.931 260.047 228.545 260.562 228.144C260.657 228.071 260.712 227.905 260.713 227.791C260.714 227.667 260.661 227.519 260.57 227.434Z" fill="white"/>
<path d="M262.55 228.35C262.364 228.175 262.025 228.131 261.84 228.342C261.467 228.766 261.053 229.151 260.604 229.493C260.531 229.546 260.46 229.599 260.386 229.65C260.276 229.725 260.19 229.815 260.152 229.947C260.118 230.067 260.131 230.227 260.198 230.335C260.333 230.549 260.653 230.683 260.884 230.523C261.493 230.102 262.054 229.617 262.543 229.061C262.632 228.959 262.692 228.846 262.694 228.707C262.695 228.584 262.642 228.436 262.55 228.35Z" fill="white"/>
<path d="M264.373 229.019C264.278 228.931 264.154 228.864 264.02 228.868C263.896 228.872 263.744 228.91 263.663 229.011L262.507 230.465C262.42 230.574 262.357 230.672 262.356 230.819C262.354 230.942 262.408 231.09 262.499 231.175C262.594 231.265 262.719 231.331 262.853 231.327C262.976 231.322 263.129 231.285 263.209 231.183L264.365 229.73C264.452 229.621 264.515 229.522 264.517 229.376C264.518 229.253 264.465 229.106 264.373 229.019Z" fill="white"/>
<path d="M266.398 229.515C266.157 229.384 265.85 229.447 265.706 229.691C265.453 230.114 265.202 230.534 264.949 230.958C264.792 231.183 264.858 231.538 265.105 231.673C265.345 231.803 265.653 231.741 265.797 231.497C266.05 231.073 266.301 230.653 266.554 230.23C266.711 230.004 266.645 229.649 266.398 229.515Z" fill="white"/>
<path d="M257.863 223.97C257.817 226.027 257.783 227.172 257.783 227.172C257.783 227.172 254.093 228.86 249.143 227.085C249.143 227.085 248.995 225.926 248.728 223.85C246.745 208.391 238.272 142.035 236.31 124.111H258.185C259.645 146.924 258.232 209.148 257.863 223.97Z" fill="#EBBDA4"/>
<path d="M231.938 234.937L231.912 235.121C231.887 235.394 231.856 235.657 231.809 235.941C231.756 236.176 231.714 236.433 231.667 236.695L203.547 236.998C203.547 236.998 203.499 236.709 203.494 236.252C203.503 236.018 203.517 235.744 203.563 235.426C203.574 235.37 203.578 235.304 203.6 235.242C203.89 233.656 205.02 231.459 208.853 230.715C209.036 230.668 209.231 230.643 209.443 230.614H209.46C209.76 230.566 210.061 230.534 210.384 230.503C210.49 230.497 210.596 230.484 210.702 230.477C218.387 229.793 221.765 227.175 221.765 227.175C221.765 227.175 226.234 228.018 230.404 227.082C230.404 227.082 230.903 227.89 231.353 229.301C231.423 229.54 231.498 229.796 231.568 230.068C231.585 230.118 231.597 230.174 231.614 230.235C231.643 230.34 231.667 230.463 231.69 230.585C231.697 230.619 231.708 230.663 231.708 230.697C231.708 230.724 231.725 230.735 231.726 230.757C231.844 231.336 231.934 231.97 231.975 232.656C232.015 233.369 232.018 234.133 231.938 234.937Z" fill="#5F95DC"/>
<path d="M218.975 227.434C219.07 227.344 219.195 227.278 219.329 227.282C219.471 227.287 219.575 227.339 219.686 227.426C219.764 227.486 219.842 227.546 219.921 227.605C220.294 227.887 220.674 228.161 221.061 228.425C221.171 228.5 221.258 228.591 221.296 228.723C221.33 228.843 221.317 229.003 221.249 229.111C221.114 229.326 220.796 229.458 220.564 229.299C220.025 228.931 219.499 228.545 218.983 228.144C218.889 228.071 218.834 227.905 218.832 227.791C218.83 227.667 218.883 227.519 218.975 227.434Z" fill="white"/>
<path d="M216.994 228.35C217.181 228.175 217.52 228.131 217.705 228.342C218.078 228.766 218.492 229.151 218.941 229.493C219.013 229.546 219.085 229.599 219.159 229.65C219.269 229.725 219.355 229.815 219.393 229.947C219.427 230.067 219.414 230.227 219.347 230.335C219.212 230.549 218.892 230.683 218.661 230.523C218.052 230.102 217.491 229.617 217.003 229.061C216.914 228.959 216.853 228.846 216.852 228.707C216.85 228.584 216.903 228.436 216.994 228.35Z" fill="white"/>
<path d="M215.171 229.019C215.266 228.931 215.391 228.864 215.525 228.868C215.648 228.872 215.801 228.91 215.881 229.011L217.037 230.465C217.124 230.574 217.187 230.672 217.188 230.819C217.19 230.942 217.137 231.09 217.045 231.175C216.95 231.265 216.825 231.331 216.691 231.327C216.568 231.322 216.415 231.285 216.334 231.183L215.178 229.73C215.091 229.621 215.029 229.522 215.027 229.376C215.027 229.253 215.08 229.106 215.171 229.019Z" fill="white"/>
<path d="M213.147 229.515C213.388 229.384 213.695 229.447 213.839 229.691C214.092 230.114 214.344 230.534 214.596 230.958C214.753 231.183 214.688 231.538 214.44 231.673C214.2 231.803 213.892 231.741 213.748 231.497C213.495 231.073 213.244 230.653 212.991 230.23C212.834 230.004 212.899 229.649 213.147 229.515Z" fill="white"/>
<path d="M238.151 124.111C236.176 142.102 231.628 208.893 230.61 224.024C230.476 225.993 230.402 227.084 230.402 227.084C225.446 228.859 221.761 227.171 221.761 227.171C221.761 227.171 221.654 226.033 221.473 223.99C220.154 209.188 214.816 146.803 216.276 124.111L238.151 124.111Z" fill="#EBBDA4"/>
<path d="M238.151 124.111C236.176 142.102 233.02 208.92 232.002 224.051C228.961 224.265 222.451 224.41 219.41 224.175C218.091 209.373 214.815 146.803 216.276 124.111H238.151Z" fill="#5F95DC"/>
<path d="M259.127 223.951C256.086 224.072 249.77 224.239 246.729 224.038C244.747 208.58 237.362 142.035 235.4 124.112H258.185C259.645 146.924 259.496 209.129 259.127 223.951Z" fill="#5F95DC"/>
<path d="M239.909 127.225C239.897 127.089 239.683 127.091 239.695 127.229C239.747 127.822 239.554 128.426 239.147 128.865C238.768 129.272 238.234 129.507 237.682 129.53C237.645 129.445 237.485 129.464 237.475 129.581L236.661 139.732C236.584 140.688 236.507 141.645 236.43 142.602C236.419 142.739 236.633 142.735 236.644 142.598L237.459 132.447C237.531 131.546 237.603 130.645 237.675 129.744C238.286 129.722 238.883 129.462 239.3 129.013C239.744 128.535 239.966 127.873 239.909 127.225Z" fill="#2A1543"/>
<path d="M249.209 63.8354C254.629 66.3231 257.498 86.0177 257.498 86.0177L265.474 60.4866L271.373 61.4775C271.373 61.4775 267.412 87.0041 266.187 91.6324C264.305 98.7348 255.157 103.133 249.214 93.4708C243.569 84.2928 249.209 63.8354 249.209 63.8354Z" fill="#EBBDA4"/>
<path d="M249.209 63.8352V84.9629C254.677 84.108 257.65 81.1437 257.65 81.1437C257.65 81.1437 254.686 66.38 249.209 63.8352Z" fill="#5F95DC"/>
<path d="M265.455 60.6814C265.646 59.5719 261.38 54.7788 262.316 53.7845C263.171 52.8749 265.438 54.4418 265.834 55.8036C266.256 54.0691 265.88 46.8656 267.379 46.9904C268.488 47.0825 268.16 52.5277 268.16 52.5277C268.16 52.5277 269.229 46.2542 270.637 46.6268C272.045 46.9989 270.183 53.2391 270.183 53.2391C270.183 53.2391 272.075 48.0401 273.147 48.5251C274.2 49.0022 271.797 54.2317 271.797 54.2317C271.797 54.2317 274.302 50.3991 274.881 50.7124C275.459 51.0258 274.476 53.7162 273.134 55.5292C273.346 59.4285 270.972 61.984 270.972 61.984L265.455 60.6814Z" fill="#EBBDA4"/>
<path d="M258.738 124.448C252.136 128.137 229.609 127.185 219.924 125.83C219.529 125.776 219.168 125.721 218.814 125.66C216.834 125.347 215.602 125.02 215.459 124.735L215.956 121.427L216.358 118.753L216.616 117.072L217.018 114.404L224.736 63.1901L227.131 62.5911L229.806 61.9242L233.147 61.0869L241.144 61.1552L244.377 62.2303L247.113 63.1354L249.21 63.8366L257.037 113.635L257.465 116.336L257.737 118.086L258.166 120.794L258.738 124.448Z" fill="#5F95DC"/>
<path d="M231.428 109.376C228.676 109.62 225.903 109.606 223.154 109.332C222.364 109.253 221.575 109.152 220.79 109.03C220.656 109.009 220.598 109.215 220.733 109.236C223.49 109.664 226.285 109.834 229.073 109.736C229.859 109.708 230.644 109.659 231.428 109.59C231.564 109.578 231.565 109.364 231.428 109.376Z" fill="#2A1543"/>
<path d="M254.56 109.107C252.077 109.639 249.53 109.856 246.992 109.751C246.269 109.721 245.548 109.664 244.83 109.582C244.693 109.567 244.694 109.781 244.83 109.796C247.373 110.085 249.947 110.049 252.481 109.693C253.197 109.593 253.91 109.465 254.617 109.314C254.752 109.285 254.695 109.079 254.56 109.107Z" fill="#2A1543"/>
<path d="M251.683 80.1077C251.289 77.6663 250.896 75.2248 250.502 72.7834C250.282 71.4136 250.061 70.0433 249.84 68.6735C249.818 68.538 249.612 68.5956 249.634 68.7305C250.028 71.172 250.421 73.6134 250.815 76.0548C251.208 78.4963 251.602 80.9377 251.995 83.3791C252.216 84.7489 252.437 86.1193 252.658 87.489C252.68 87.6245 252.886 87.567 252.864 87.432C252.47 84.9906 252.077 82.5491 251.683 80.1077Z" fill="#2A1543"/>
<path d="M234.375 126.765C232.057 126.731 229.74 126.63 227.428 126.462C225.116 126.294 222.809 126.06 220.51 125.759C219.213 125.589 217.92 125.397 216.629 125.185C216.494 125.163 216.436 125.369 216.572 125.391C218.869 125.769 221.176 126.08 223.491 126.325C225.797 126.569 228.109 126.746 230.425 126.856C231.741 126.918 233.057 126.959 234.375 126.979C234.513 126.982 234.513 126.768 234.375 126.765Z" fill="#2A1543"/>
<path d="M236.478 77.0964H227.171V79.8326H236.478V77.0964Z" fill="white"/>
<path d="M233.705 76.4128H229.943V77.4817H233.705V76.4128Z" fill="#2A1543"/>
<path d="M230.794 61.6755L237.528 69.74L243.345 61.8855L241.145 61.1538L233.148 61.0854L230.794 61.6755Z" fill="#EBBDA4"/>
<path d="M214.73 106.812C215.368 106.698 215.825 107.399 216.883 107.305C217.941 107.211 219.45 106.17 220.266 106.318C221.082 106.467 226.64 108.983 225.99 110.175C225.602 110.884 222.6 109.344 222.521 109.386C222.442 109.428 225.988 111.76 225.35 112.677C224.711 113.594 220.997 110.39 220.905 110.466C220.813 110.542 223.499 113.265 222.716 113.969C221.932 114.673 219.595 111.77 219.487 111.804C219.379 111.837 220.664 114.688 220.025 115.067C219.385 115.444 217.664 112.027 217.503 112.078C217.341 112.128 216.112 113.246 214.821 113.336C213.529 113.426 211.414 111.59 211.521 110.589C211.627 109.588 213.9 106.959 214.73 106.812Z" fill="#FABB98"/>
<path d="M224.736 63.1887C216.303 65.8667 205.455 76.7939 201.09 81.0043C196.543 85.3903 197.313 90.4352 199.935 94.0595C201.626 96.3971 211.779 111.402 211.779 111.402L215.975 107.184L207.803 88.5539L222.538 77.7752L224.736 63.1887Z" fill="#FABB98"/>
<path d="M224.736 63.1885C214.1 66.1516 205.72 75.1585 205.72 75.1585C205.72 75.1585 210.965 85.0202 213.986 88.2691L223.563 80.8584L224.736 63.1885Z" fill="#5F95DC"/>
<path d="M225.77 79.8483C225.338 79.8997 224.906 79.9511 224.475 80.0025C224.888 79.6693 225.302 79.3362 225.716 79.0031C225.823 78.9167 225.671 78.7665 225.565 78.8518C224.076 80.0504 222.588 81.2491 221.1 82.4478C220.992 82.5342 221.145 82.685 221.251 82.5992C222.222 81.8172 223.193 81.0352 224.163 80.2532C224.698 80.1894 225.234 80.1261 225.77 80.0623C225.827 80.0555 225.876 80.0183 225.876 79.9556C225.877 79.9031 225.827 79.8421 225.77 79.8483Z" fill="#2A1543"/>
<path d="M231.779 53.0698C229.629 51.1755 227.668 48.9464 226.691 46.2526C225.714 43.5587 225.867 40.3291 227.635 38.0734C227.247 37.244 227.046 36.1142 227.245 35.2204C227.444 34.3266 227.867 33.496 228.362 32.7253C229.952 30.2494 232.354 28.3043 235.107 27.2631C237.859 26.222 240.947 26.0904 243.778 26.8939C244.832 27.1931 245.862 27.6239 246.735 28.2857C247.609 28.9468 248.321 29.8525 248.628 30.9044C250.196 31.6909 251.374 33.1685 251.763 34.8788C252.151 36.589 251.736 38.4647 250.662 39.8509C251.542 42.613 250.838 45.7664 248.917 47.9374C244.903 52.4713 237.647 51.573 231.779 53.0698Z" fill="#381A08"/>
<path d="M230.156 48.787C230.156 48.787 233.136 54.8544 233.279 62.9698C234.999 66.6347 239.963 66.0419 241.157 62.7326C241.068 59.6475 241.597 58.1964 242.569 57.1259C242.65 57.0361 242.73 56.9571 242.814 56.8713C242.871 56.8103 242.929 56.7566 242.993 56.6996C243.108 56.5923 243.241 56.493 243.367 56.3829C243.546 56.2406 243.731 56.0989 243.925 55.9537H243.929C244.692 55.3835 245.585 54.7805 246.577 53.885C248.023 52.5903 249.095 50.8162 249.506 48.0513C249.514 48.0185 249.519 47.9852 249.524 47.9485C249.532 47.9079 249.537 47.8678 249.543 47.8271C249.552 47.7531 249.558 47.6871 249.565 47.6171C249.573 47.5838 249.574 47.5544 249.579 47.525C249.884 44.8194 249.611 41.2103 248.523 36.2343C247.392 31.0759 234.807 29.2278 231.437 35.8644C230.051 38.6045 230.156 48.787 230.156 48.787Z" fill="#EBBDA4"/>
<path d="M248.191 32.6847C247.33 31.8507 246.26 31.2551 245.144 30.818C242.716 29.8683 240.009 29.6459 237.459 30.1868C234.909 30.7277 232.525 32.0292 230.691 33.8823C229.092 35.4988 227.905 37.55 227.46 39.7803C227.014 42.01 227.34 44.4136 228.502 46.3678C228.989 47.1865 229.718 47.6794 230.462 48.2739C232.089 45.7834 232.482 42.5266 231.494 39.7205C232.328 39.9525 233.272 39.7493 233.937 39.1937C234.602 38.6381 234.97 37.7454 234.889 36.8827C239.494 38.4602 244.744 38.048 249.047 35.7715L249.874 35.7924C249.698 34.6055 249.053 33.5186 248.191 32.6847Z" fill="#381A08"/>
<path d="M243.607 46.6751C243.788 46.5825 243.981 46.5272 244.184 46.5148C244.365 46.5035 244.565 46.5272 244.716 46.6367C244.877 46.7536 244.958 46.9354 244.974 47.1313C244.989 47.3182 244.928 47.5028 244.859 47.6739C244.822 47.7654 244.734 47.8428 244.627 47.8094C244.539 47.7823 244.451 47.6762 244.491 47.5774C244.542 47.4526 244.598 47.3171 244.596 47.1799C244.595 47.1099 244.577 47.0382 244.535 46.9817C244.537 46.9857 244.539 46.989 244.542 46.9924C244.503 46.932 244.429 46.91 244.363 46.8981C244.358 46.897 244.352 46.8964 244.345 46.8953C244.33 46.8953 244.316 46.8931 244.302 46.8925C244.264 46.8908 244.226 46.8914 244.188 46.8936C244.168 46.8947 244.149 46.8964 244.13 46.8987C244.12 46.8998 244.119 46.8998 244.116 46.8998C244.113 46.9004 244.113 46.901 244.104 46.9021C243.986 46.9235 243.885 46.9715 243.774 47.0116C243.69 47.0415 243.586 47.0167 243.542 46.9348C243.496 46.8507 243.513 46.7237 243.607 46.6751Z" fill="#C16B5B"/>
<path d="M247.803 41.9047C246.806 41.3655 245.596 41.3141 244.579 41.8409C244.33 41.9697 244.192 42.3 244.333 42.5586C244.515 42.894 244.843 42.894 245.151 42.7545C245.425 42.6303 245.721 42.5541 246.021 42.5303C246.02 42.514 245.994 42.5422 246.011 42.5416C246.395 42.5207 246.775 42.5987 247.126 42.7562C247.147 42.7652 247.167 42.7754 247.2 42.7912C247.446 42.9211 247.776 42.9126 247.941 42.6512C248.081 42.4265 248.067 42.047 247.803 41.9047Z" fill="black"/>
<path d="M241.337 41.9498C240.28 41.5382 239.074 41.637 238.13 42.2852C237.899 42.4439 237.803 42.7888 237.975 43.0277C238.141 43.2592 238.47 43.3529 238.717 43.183C238.812 43.118 238.911 43.0616 239.011 43.0045C239.021 42.9995 239.019 43.0006 239.025 42.9972C239.043 42.9893 239.061 42.9808 239.079 42.9729C239.119 42.956 239.159 42.9396 239.199 42.9249C239.306 42.8848 239.416 42.851 239.528 42.8239C239.555 42.8171 239.734 42.7629 239.597 42.8069C239.642 42.7922 239.698 42.7911 239.746 42.786C239.852 42.7736 239.96 42.7668 240.068 42.7663C240.125 42.7657 240.182 42.7691 240.239 42.7702C240.245 42.7702 240.248 42.7702 240.252 42.7702C240.26 42.7713 240.271 42.773 240.288 42.7747C240.395 42.7877 240.501 42.8069 240.605 42.8318C240.661 42.8453 240.716 42.8606 240.771 42.8769C240.793 42.8837 240.814 42.891 240.835 42.8978C240.839 42.8995 240.838 42.899 240.842 42.9006C240.844 42.9012 240.846 42.9012 240.847 42.9018C240.848 42.9023 240.85 42.9029 240.852 42.9035C240.85 42.9029 240.851 42.9029 240.848 42.9023C241.108 43.0006 241.435 42.9515 241.566 42.672C241.677 42.4331 241.616 42.0588 241.337 41.9498Z" fill="black"/>
<path d="M241.68 49.2753C242.362 49.7947 243.228 50.0341 244.081 49.9551C244.317 49.9331 244.337 50.3006 244.101 50.3221C243.149 50.4102 242.193 50.1267 241.434 49.5486C241.246 49.4057 241.492 49.133 241.68 49.2753Z" fill="#C16B5B"/>
<path d="M239.245 45.5869C239.229 46.0657 239.604 46.4672 240.083 46.483C240.562 46.4988 240.962 46.1239 240.979 45.6451C240.995 45.1663 240.62 44.7648 240.141 44.749C239.662 44.7332 239.261 45.1081 239.245 45.5869Z" fill="black"/>
<path d="M240.172 45.341C240.167 45.4805 240.277 45.5974 240.416 45.6019C240.556 45.6064 240.673 45.4974 240.677 45.3579C240.682 45.2185 240.573 45.1016 240.433 45.0971C240.293 45.092 240.177 45.2015 240.172 45.341Z" fill="white"/>
<path d="M245.573 45.4126C245.557 45.8914 245.932 46.2923 246.411 46.3087C246.89 46.3245 247.291 45.9496 247.307 45.4708C247.323 44.992 246.948 44.5911 246.469 44.5747C245.99 44.5584 245.589 44.9338 245.573 45.4126Z" fill="black"/>
<path d="M246.5 45.166C246.496 45.3055 246.605 45.4223 246.745 45.4269C246.884 45.4314 247.001 45.3218 247.006 45.1824C247.01 45.0429 246.901 44.926 246.762 44.9215C246.622 44.917 246.505 45.0265 246.5 45.166Z" fill="white"/>
<path d="M227.419 49.1013C228.531 50.3491 230.236 50.6444 231.226 49.7613C232.216 48.8782 232.117 47.1511 231.005 45.9038C229.892 44.656 228.188 44.3607 227.198 45.2438C226.208 46.1268 226.306 47.854 227.419 49.1013Z" fill="#EBBDA4"/>
<path d="M227.917 45.8491C228.366 45.5939 228.976 45.5866 229.546 45.8311C229.83 45.9525 230.038 46.1049 230.183 46.2963C230.374 46.5498 230.435 46.8734 230.341 47.1404C230.258 47.3804 230.073 47.5402 229.911 47.6813C229.793 47.7835 229.681 47.8795 229.62 47.9924C229.526 48.1658 229.558 48.404 229.695 48.5463C229.832 48.6881 230.069 48.7281 230.246 48.6401C230.35 48.5881 230.476 48.6305 230.528 48.7338C230.579 48.8371 230.537 48.9636 230.433 49.0155C230.32 49.072 230.196 49.1014 230.07 49.1053C229.821 49.1127 229.568 49.0189 229.393 48.8377C229.13 48.565 229.07 48.1257 229.252 47.792C229.349 47.6124 229.502 47.4803 229.636 47.364C229.771 47.2471 229.899 47.1365 229.946 47.0021C229.992 46.8677 229.955 46.6899 229.848 46.5493C229.806 46.4928 229.748 46.442 229.685 46.3934C229.476 46.3979 229.218 46.4702 229.09 46.6176C228.947 46.7847 228.884 47.0224 228.926 47.2375C228.948 47.351 228.874 47.4611 228.76 47.4837C228.749 47.486 228.738 47.4871 228.726 47.4877C228.626 47.4905 228.534 47.4205 228.514 47.3183C228.447 46.9744 228.543 46.6102 228.772 46.3437C228.857 46.2449 228.965 46.176 229.079 46.1201C228.729 46.0371 228.388 46.0659 228.126 46.2144C227.803 46.3979 227.569 46.853 227.749 47.2127C227.801 47.3166 227.759 47.4425 227.655 47.4944C227.552 47.5458 227.426 47.5046 227.374 47.4007C227.111 46.8762 227.361 46.1664 227.917 45.8491Z" fill="#C16B5B"/>
<path d="M137.577 234.937L137.551 235.121C137.526 235.394 137.496 235.657 137.448 235.941C137.395 236.176 137.353 236.433 137.306 236.695L109.186 236.998C109.186 236.998 109.139 236.709 109.134 236.252C109.142 236.018 109.156 235.744 109.203 235.426C109.214 235.37 109.218 235.304 109.24 235.242C109.53 233.656 110.66 231.459 114.493 230.715C114.676 230.668 114.871 230.643 115.083 230.614H115.1C115.4 230.566 115.701 230.534 116.024 230.503C116.13 230.497 116.236 230.484 116.342 230.477C124.027 229.793 127.405 227.175 127.405 227.175C127.405 227.175 131.873 228.018 136.044 227.082C136.044 227.082 136.543 227.89 136.993 229.301C137.063 229.54 137.138 229.796 137.208 230.068C137.225 230.118 137.237 230.174 137.254 230.235C137.283 230.34 137.307 230.463 137.33 230.585C137.336 230.619 137.348 230.663 137.348 230.697C137.349 230.724 137.365 230.735 137.366 230.757C137.483 231.336 137.574 231.97 137.615 232.656C137.655 233.369 137.657 234.133 137.577 234.937Z" fill="#5F95DC"/>
<path d="M124.614 227.434C124.709 227.344 124.834 227.278 124.968 227.282C125.11 227.287 125.213 227.339 125.325 227.426C125.403 227.486 125.481 227.546 125.56 227.605C125.933 227.887 126.313 228.161 126.7 228.425C126.81 228.5 126.897 228.591 126.934 228.723C126.969 228.843 126.956 229.003 126.888 229.111C126.753 229.326 126.435 229.458 126.203 229.299C125.664 228.931 125.138 228.545 124.622 228.144C124.527 228.071 124.473 227.905 124.471 227.791C124.47 227.667 124.523 227.519 124.614 227.434Z" fill="white"/>
<path d="M122.634 228.35C122.82 228.175 123.159 228.131 123.345 228.342C123.717 228.766 124.132 229.151 124.58 229.493C124.653 229.546 124.724 229.599 124.798 229.65C124.908 229.725 124.994 229.815 125.032 229.947C125.067 230.067 125.054 230.227 124.986 230.335C124.852 230.549 124.531 230.683 124.3 230.523C123.691 230.102 123.131 229.617 122.642 229.061C122.552 228.959 122.492 228.846 122.49 228.707C122.489 228.584 122.542 228.436 122.634 228.35Z" fill="white"/>
<path d="M120.811 229.019C120.906 228.931 121.03 228.864 121.165 228.868C121.288 228.872 121.441 228.91 121.522 229.011L122.677 230.465C122.764 230.574 122.827 230.672 122.828 230.819C122.83 230.942 122.776 231.09 122.685 231.175C122.59 231.265 122.465 231.331 122.331 231.327C122.208 231.322 122.055 231.285 121.974 231.183L120.819 229.73C120.732 229.621 120.669 229.522 120.667 229.376C120.666 229.253 120.719 229.106 120.811 229.019Z" fill="white"/>
<path d="M118.786 229.515C119.027 229.384 119.335 229.447 119.478 229.691C119.732 230.114 119.982 230.534 120.236 230.958C120.392 231.183 120.327 231.538 120.079 231.673C119.839 231.803 119.531 231.741 119.388 231.497C119.134 231.073 118.883 230.653 118.63 230.23C118.474 230.004 118.539 229.649 118.786 229.515Z" fill="white"/>
<path d="M127.321 223.97C127.368 226.027 127.401 227.172 127.401 227.172C127.401 227.172 131.091 228.86 136.041 227.085C136.041 227.085 136.189 225.926 136.456 223.85C138.439 208.391 146.912 142.035 148.874 124.111H126.999C125.539 146.924 126.953 209.148 127.321 223.97Z" fill="#BF8E74"/>
<path d="M153.247 234.937L153.273 235.121C153.297 235.394 153.328 235.657 153.375 235.941C153.428 236.176 153.47 236.433 153.518 236.695L181.638 236.998C181.638 236.998 181.686 236.709 181.69 236.252C181.682 236.018 181.667 235.744 181.621 235.426C181.61 235.37 181.606 235.304 181.584 235.242C181.294 233.656 180.164 231.459 176.331 230.715C176.148 230.668 175.953 230.643 175.741 230.614H175.724C175.424 230.566 175.123 230.534 174.8 230.503C174.694 230.497 174.588 230.484 174.483 230.477C166.798 229.793 163.419 227.175 163.419 227.175C163.419 227.175 158.951 228.018 154.78 227.082C154.78 227.082 154.281 227.89 153.831 229.301C153.761 229.54 153.686 229.796 153.616 230.068C153.599 230.118 153.588 230.174 153.57 230.235C153.541 230.34 153.518 230.463 153.494 230.585C153.488 230.619 153.476 230.663 153.476 230.697C153.475 230.724 153.459 230.735 153.458 230.757C153.34 231.336 153.25 231.97 153.209 232.656C153.169 233.369 153.166 234.133 153.247 234.937Z" fill="#5F95DC"/>
<path d="M166.209 227.434C166.114 227.344 165.99 227.278 165.856 227.282C165.714 227.287 165.61 227.339 165.499 227.426C165.421 227.486 165.343 227.546 165.264 227.605C164.89 227.887 164.51 228.161 164.124 228.425C164.013 228.5 163.927 228.591 163.889 228.723C163.855 228.843 163.868 229.003 163.936 229.111C164.071 229.326 164.389 229.458 164.621 229.299C165.16 228.931 165.686 228.545 166.201 228.144C166.296 228.071 166.351 227.905 166.353 227.791C166.354 227.667 166.301 227.519 166.209 227.434Z" fill="white"/>
<path d="M168.19 228.35C168.004 228.175 167.665 228.131 167.479 228.342C167.106 228.766 166.691 229.151 166.243 229.493C166.171 229.546 166.099 229.599 166.026 229.65C165.916 229.725 165.83 229.815 165.791 229.947C165.757 230.067 165.77 230.227 165.838 230.335C165.972 230.549 166.292 230.683 166.523 230.523C167.132 230.102 167.693 229.617 168.181 229.061C168.271 228.959 168.331 228.846 168.333 228.707C168.334 228.584 168.281 228.436 168.19 228.35Z" fill="white"/>
<path d="M170.013 229.019C169.918 228.931 169.793 228.864 169.659 228.868C169.535 228.872 169.383 228.91 169.302 229.011L168.146 230.465C168.06 230.574 167.997 230.672 167.995 230.819C167.993 230.942 168.047 231.09 168.139 231.175C168.233 231.265 168.358 231.331 168.493 231.327C168.616 231.322 168.769 231.285 168.849 231.183L170.005 229.73C170.092 229.621 170.155 229.522 170.157 229.376C170.158 229.253 170.105 229.106 170.013 229.019Z" fill="white"/>
<path d="M172.037 229.515C171.797 229.384 171.489 229.447 171.346 229.691C171.092 230.114 170.841 230.534 170.588 230.958C170.431 231.183 170.496 231.538 170.744 231.673C170.985 231.803 171.292 231.741 171.436 231.497C171.689 231.073 171.94 230.653 172.194 230.23C172.35 230.004 172.285 229.649 172.037 229.515Z" fill="white"/>
<path d="M147.032 124.111C149.008 142.102 153.556 208.893 154.574 224.024C154.708 225.993 154.782 227.084 154.782 227.084C159.738 228.859 163.422 227.171 163.422 227.171C163.422 227.171 163.529 226.033 163.71 223.99C165.03 209.188 170.368 146.803 168.907 124.111L147.032 124.111Z" fill="#BF8E74"/>
<path d="M147.032 124.111C149.008 142.102 152.164 208.92 153.182 224.051C156.223 224.265 162.732 224.41 165.773 224.175C167.093 209.373 170.368 146.803 168.908 124.111H147.032Z" fill="#5F95DC"/>
<path d="M126.057 223.951C129.098 224.072 135.414 224.239 138.455 224.038C140.437 208.58 147.822 142.035 149.785 124.112H126.999C125.539 146.924 125.688 209.129 126.057 223.951Z" fill="#5F95DC"/>
<path d="M148.084 134.794C148.019 134.031 147.954 133.267 147.89 132.504C147.881 132.402 147.758 132.373 147.702 132.423C147.692 132.423 147.681 132.423 147.669 132.427C146.988 132.657 146.228 132.615 145.579 132.303C144.936 131.993 144.443 131.426 144.21 130.753C144.081 130.379 144.032 129.986 144.068 129.593C144.08 129.456 143.866 129.45 143.854 129.587C143.786 130.333 144.017 131.085 144.473 131.676C144.946 132.29 145.66 132.671 146.425 132.766C146.849 132.818 147.282 132.775 147.688 132.642C147.913 135.292 148.138 137.943 148.363 140.592C148.428 141.356 148.492 142.119 148.557 142.882C148.569 143.018 148.783 143.026 148.771 142.889C148.542 140.191 148.313 137.493 148.084 134.794Z" fill="#FF9620"/>
<path d="M136.924 99.0679C136.167 103.703 129.804 111.392 124.707 116.931C121.144 120.796 118.197 123.609 118.197 123.609L113.04 119.477L118.478 111.808L128.967 97.0189C128.967 97.0189 129.142 66.3226 135.973 63.8376C135.973 63.8376 138.203 91.205 136.924 99.0679Z" fill="#BF8E74"/>
<path d="M136.924 99.068C136.167 103.703 130.276 112.087 125.18 117.625C122.829 116.299 119.046 113.689 117.284 111.64L128.967 97.0184C128.967 97.0184 129.142 66.3221 135.973 63.8372C135.973 63.8372 138.203 91.205 136.924 99.068Z" fill="#5F95DC"/>
<path d="M126.446 124.448C133.048 128.137 155.575 127.184 165.26 125.83C165.655 125.775 166.015 125.721 166.369 125.66C168.35 125.347 169.582 125.02 169.725 124.734L169.228 121.427L168.827 118.752L168.568 117.071L168.167 114.403L160.449 63.1896L158.053 62.5906L155.378 61.9238L152.037 61.0864L144.04 61.1547L140.808 62.2298L138.072 63.1349L135.975 63.8361L128.148 113.634L127.72 116.336L127.448 118.085L127.019 120.794L126.446 124.448Z" fill="#5F95DC"/>
<path d="M134.545 69.9338C133.733 75.4773 132.921 81.0213 132.109 86.5648L129.686 103.112C129.231 106.219 128.776 109.327 128.321 112.435C128.301 112.57 128.507 112.628 128.527 112.492C129.339 106.949 130.15 101.405 130.962 95.8613L133.385 79.3144C133.84 76.2067 134.296 73.0991 134.751 69.9908C134.77 69.8559 134.564 69.7977 134.545 69.9338Z" fill="#FF9620"/>
<path d="M149.362 79.8323H158.668V77.0961H149.362V79.8323Z" fill="white"/>
<path d="M152.134 77.4807H155.896V76.4119H152.134V77.4807Z" fill="#2A1543"/>
<path d="M154.39 61.6752L147.656 69.7398L141.839 61.8853L144.039 61.1535L152.036 61.0852L154.39 61.6752Z" fill="#BF8E74"/>
<path d="M152.014 77.2797L131.935 80.5886L136.551 108.602L156.631 105.293L152.014 77.2797Z" fill="#BFBEFC"/>
<path d="M144.635 77.729C144.15 77.1124 142.969 76.7979 141.655 77.0147C140.34 77.231 139.322 77.908 139.061 78.6476L137.334 78.9322L137.691 81.0987L146.718 79.6114L146.361 77.445L144.635 77.729Z" fill="#402664"/>
<path d="M164.312 101.124C161.632 100.984 151.901 98.3182 145.075 96.3754C141.07 95.2297 138.063 94.3325 138.063 94.3325L139.49 88.3176L145.873 89.5231L161.606 92.4834L159.925 80.3869L160.447 63.1868C167.621 65.4639 170.876 88.3108 171.425 92.3564C172.034 96.905 169.723 101.406 164.312 101.124Z" fill="#BF8E74"/>
<path d="M135.788 86.2025C133.907 85.9032 132.545 84.3132 132.545 84.3132C130.722 85.1551 129.945 94.1665 134.235 94.5662C136.045 94.7096 137.243 94.0897 138.064 94.333L139.487 88.3147C139.059 86.972 137.605 85.5402 135.788 86.2025Z" fill="#BF8E74"/>
<path d="M164.311 101.124C161.632 100.984 151.104 99.3888 144.279 97.4465C144.446 93.9125 145.072 91.7179 145.871 89.1528L160.734 91.5044L159.722 80.2204L160.446 63.188C167.62 65.4651 170.875 88.312 171.424 92.3576C172.034 96.9051 169.723 101.406 164.311 101.124Z" fill="#5F95DC"/>
<path d="M170.149 97.9691C169.603 99.3321 168.269 100.225 166.895 100.605C165.127 101.093 163.239 100.883 161.44 100.715C159.588 100.543 157.741 100.306 155.906 100.005C154.078 99.7048 152.26 99.3423 150.456 98.9177C148.653 98.4931 146.864 98.0064 145.094 97.4581C144.874 97.3898 144.655 97.3209 144.434 97.2509C144.303 97.2091 144.247 97.4152 144.377 97.457C146.183 98.0324 148.009 98.5456 149.851 98.9928C151.684 99.4383 153.533 99.8194 155.394 100.135C157.255 100.451 159.127 100.702 161.006 100.888C161.941 100.98 162.879 101.069 163.818 101.102C164.737 101.135 165.665 101.102 166.567 100.906C167.986 100.596 169.391 99.8075 170.124 98.5117C170.212 98.3553 170.288 98.1921 170.355 98.0256C170.407 97.898 170.2 97.8426 170.149 97.9691Z" fill="#FF9620"/>
<path d="M163.592 91.6794C162.955 91.5913 162.318 91.5032 161.68 91.4151C161.044 88.6852 160.53 85.9276 160.144 83.1513C160.032 82.3478 159.932 81.5421 159.841 80.7358C159.826 80.6003 159.612 80.5992 159.627 80.7358C159.944 83.5573 160.388 86.3646 160.962 89.1454C161.116 89.8935 161.281 90.6393 161.454 91.3835C159.869 91.1644 158.284 90.9448 156.699 90.7257C154.41 90.409 152.121 90.0928 149.832 89.776C148.538 89.5971 147.243 89.4181 145.949 89.2391C145.814 89.2204 145.756 89.4265 145.892 89.4452L152.786 90.3988C155.075 90.7156 157.364 91.0318 159.653 91.3485C160.947 91.5275 162.241 91.7065 163.535 91.8855C163.67 91.9047 163.728 91.698 163.592 91.6794Z" fill="#FF9620"/>
<path d="M114.95 117.05C113.893 117.84 109.427 119.381 108.602 120.918C107.777 122.455 105.502 128.358 106.45 128.842C107.051 129.149 108.924 125.478 108.924 125.478C108.924 125.478 107.749 130.218 108.669 130.4C109.589 130.582 110.684 125.775 110.684 125.775C110.684 125.775 109.974 130.94 111.104 131.077C112.233 131.214 112.494 125.896 112.494 125.896C112.494 125.896 112.424 127.749 113.862 128.406C114.976 128.916 116.564 128.662 116.601 128.033C116.639 127.405 114.871 127.151 114.705 126.956C114.538 126.761 114.438 125.722 114.438 125.722C117.167 125.73 118.974 122.511 118.974 122.511L114.95 117.05Z" fill="#BF8E74"/>
<path d="M167.484 125.439C163.095 126.129 158.67 126.589 154.233 126.819C149.831 127.047 145.417 127.049 141.014 126.824C138.537 126.697 136.063 126.497 133.596 126.228C133.46 126.213 133.461 126.427 133.596 126.442C135.798 126.683 138.007 126.868 140.218 126.995C142.43 127.122 144.644 127.191 146.86 127.204C149.086 127.216 151.313 127.171 153.537 127.068C155.749 126.965 157.959 126.805 160.164 126.588C162.356 126.373 164.543 126.1 166.721 125.772C166.995 125.731 167.268 125.689 167.542 125.646C167.677 125.624 167.619 125.418 167.484 125.439Z" fill="#FF9620"/>
<path d="M166.149 126.566C164.291 126.8 162.427 126.996 160.561 127.152C158.694 127.309 156.824 127.426 154.952 127.505C153.893 127.549 152.833 127.58 151.772 127.599C151.635 127.602 151.635 127.816 151.772 127.813C153.645 127.78 155.517 127.707 157.387 127.594C159.258 127.482 161.125 127.331 162.989 127.14C164.043 127.033 165.097 126.912 166.149 126.78C166.284 126.763 166.286 126.549 166.149 126.566Z" fill="#FF9620"/>
<path d="M152.982 52.8835C154.135 50.6781 156.048 48.8792 158.321 47.8657C159.58 48.2654 161.128 47.563 161.81 46.4315C162.492 45.3 162.292 43.7123 161.35 42.7852C162.422 41.7305 162.952 40.1507 162.732 38.6634C162.512 37.1757 161.55 35.8166 160.218 35.1165C160.4 32.6801 159.897 30.1613 158.588 28.0988C157.278 26.0362 155.127 24.4727 152.715 24.0882C150.302 23.7037 147.674 24.5885 146.149 26.4969C144.901 25.9035 143.599 25.3829 142.228 25.2141C140.857 25.0453 139.401 25.2559 138.256 26.0272C137.11 26.799 136.34 28.1885 136.521 29.5577C134.848 29.6752 133.324 30.9648 132.931 32.5954C132.538 34.2255 133.308 36.0679 134.744 36.9346C134.952 39.2653 135.246 41.6051 135.455 43.9359C140.971 47.4817 146.824 50.6289 152.982 52.8835Z" fill="#381A08"/>
<path d="M155.029 48.787C155.029 48.787 152.049 54.8544 151.905 62.9698C150.185 66.6347 145.222 66.0419 144.027 62.7326C144.117 59.6475 143.587 58.1964 142.615 57.1259C142.535 57.0361 142.454 56.9571 142.37 56.8713C142.313 56.8103 142.256 56.7566 142.191 56.6996C142.076 56.5923 141.943 56.493 141.817 56.3829C141.639 56.2406 141.453 56.0989 141.259 55.9537H141.255C140.492 55.3835 139.599 54.7805 138.607 53.885C137.162 52.5903 136.089 50.8162 135.678 48.0513C135.67 48.0185 135.665 47.9852 135.66 47.9485C135.651 47.9079 135.647 47.8678 135.642 47.8271C135.632 47.7531 135.626 47.6871 135.62 47.6171C135.611 47.5838 135.61 47.5544 135.606 47.525C135.301 44.8194 135.573 41.2103 136.661 36.2343C137.792 31.0759 150.377 29.2278 153.747 35.8644C155.133 38.6045 155.029 48.787 155.029 48.787Z" fill="#BF8E74"/>
<path d="M135.681 37.8414C136.579 37.8284 137.433 37.1955 137.708 36.3412C138.043 36.9832 138.809 37.2604 139.52 37.3959C142.007 37.8685 144.684 37.2389 146.701 35.7071C147.367 36.9137 148.874 37.5896 150.218 37.2847C149.982 38.039 150.071 38.8882 150.457 39.5776C150.843 40.267 151.521 40.7865 152.287 40.9801C151.961 42.1218 152.079 43.3843 152.609 44.4464C153.14 45.5084 154.08 46.3599 155.188 46.785C156.382 44.3063 157.107 41.4702 156.758 38.7414C156.409 36.0126 154.97 33.3656 152.651 31.8846C150.238 30.3438 147.217 30.197 144.354 30.1699C143.042 30.1574 141.706 30.1636 140.455 30.5578C138.976 31.023 137.676 32.0365 136.865 33.3577C136.053 34.6772 135.427 36.3118 135.681 37.8414Z" fill="#381A08"/>
<path d="M141.577 46.6751C141.396 46.5825 141.203 46.5272 141 46.5148C140.819 46.5035 140.619 46.5272 140.468 46.6367C140.307 46.7536 140.226 46.9354 140.21 47.1313C140.195 47.3182 140.256 47.5028 140.325 47.6739C140.362 47.7654 140.45 47.8428 140.557 47.8094C140.645 47.7823 140.733 47.6762 140.693 47.5774C140.642 47.4526 140.586 47.3171 140.588 47.1799C140.589 47.1099 140.607 47.0382 140.649 46.9817C140.646 46.9857 140.644 46.989 140.642 46.9924C140.68 46.932 140.755 46.91 140.821 46.8981C140.826 46.897 140.831 46.8964 140.839 46.8953C140.853 46.8953 140.868 46.8931 140.882 46.8925C140.92 46.8908 140.958 46.8914 140.996 46.8936C141.015 46.8947 141.034 46.8964 141.053 46.8987C141.064 46.8998 141.065 46.8998 141.068 46.8998C141.071 46.9004 141.071 46.901 141.079 46.9021C141.197 46.9235 141.298 46.9715 141.41 47.0116C141.494 47.0415 141.597 47.0167 141.642 46.9348C141.688 46.8507 141.671 46.7237 141.577 46.6751Z" fill="#422D22"/>
<path d="M137.381 41.9047C138.378 41.3655 139.588 41.3141 140.605 41.8409C140.854 41.9697 140.991 42.3 140.851 42.5586C140.668 42.894 140.34 42.894 140.033 42.7545C139.758 42.6303 139.462 42.5541 139.163 42.5303C139.164 42.514 139.189 42.5422 139.173 42.5416C138.788 42.5207 138.408 42.5987 138.058 42.7562C138.037 42.7652 138.016 42.7754 137.983 42.7912C137.737 42.9211 137.407 42.9126 137.243 42.6512C137.103 42.4265 137.117 42.047 137.381 41.9047Z" fill="black"/>
<path d="M143.847 41.9498C144.904 41.5382 146.11 41.637 147.054 42.2852C147.285 42.4439 147.381 42.7888 147.209 43.0277C147.043 43.2592 146.714 43.3529 146.467 43.183C146.372 43.118 146.273 43.0616 146.173 43.0045C146.163 42.9995 146.165 43.0006 146.159 42.9972C146.141 42.9893 146.123 42.9808 146.104 42.9729C146.065 42.956 146.025 42.9396 145.985 42.9249C145.877 42.8848 145.768 42.851 145.657 42.8239C145.628 42.8171 145.45 42.7629 145.588 42.8069C145.542 42.7922 145.486 42.7911 145.439 42.786C145.332 42.7736 145.224 42.7668 145.117 42.7663C145.059 42.7657 145.002 42.7691 144.945 42.7702C144.939 42.7702 144.937 42.7702 144.933 42.7702C144.924 42.7713 144.913 42.773 144.896 42.7747C144.789 42.7877 144.684 42.8069 144.579 42.8318C144.524 42.8453 144.469 42.8606 144.414 42.8769C144.392 42.8837 144.37 42.891 144.349 42.8978C144.345 42.8995 144.347 42.899 144.342 42.9006C144.341 42.9012 144.339 42.9012 144.338 42.9018C144.336 42.9023 144.334 42.9029 144.333 42.9035C144.335 42.9029 144.334 42.9029 144.336 42.9023C144.076 43.0006 143.749 42.9515 143.619 42.672C143.507 42.4331 143.568 42.0588 143.847 41.9498Z" fill="black"/>
<path d="M143.504 49.2753C142.821 49.7947 141.955 50.0341 141.103 49.9551C140.867 49.9331 140.847 50.3006 141.082 50.3221C142.034 50.4102 142.99 50.1267 143.75 49.5486C143.938 49.4057 143.691 49.133 143.504 49.2753Z" fill="#422D22"/>
<path d="M145.939 45.5869C145.955 46.0657 145.58 46.4672 145.101 46.483C144.623 46.4988 144.222 46.1239 144.205 45.6451C144.19 45.1663 144.564 44.7648 145.043 44.749C145.523 44.7332 145.923 45.1081 145.939 45.5869Z" fill="black"/>
<path d="M145.012 45.341C145.017 45.4805 144.907 45.5974 144.768 45.6019C144.628 45.6064 144.511 45.4974 144.507 45.3579C144.502 45.2185 144.611 45.1016 144.751 45.0971C144.891 45.092 145.008 45.2015 145.012 45.341Z" fill="white"/>
<path d="M139.611 45.4126C139.627 45.8914 139.252 46.2923 138.773 46.3087C138.294 46.3245 137.893 45.9496 137.877 45.4708C137.861 44.992 138.236 44.5911 138.715 44.5747C139.194 44.5584 139.595 44.9338 139.611 45.4126Z" fill="black"/>
<path d="M138.684 45.166C138.688 45.3055 138.579 45.4223 138.44 45.4269C138.3 45.4314 138.184 45.3218 138.179 45.1824C138.175 45.0429 138.284 44.926 138.424 44.9215C138.563 44.917 138.679 45.0265 138.684 45.166Z" fill="white"/>
<path d="M157.765 49.1013C156.653 50.3491 154.948 50.6444 153.958 49.7613C152.968 48.8782 153.067 47.1511 154.179 45.9038C155.292 44.656 156.996 44.3607 157.987 45.2438C158.976 46.1268 158.878 47.854 157.765 49.1013Z" fill="#BF8E74"/>
<path d="M157.266 45.8491C156.817 45.5939 156.208 45.5866 155.638 45.8311C155.354 45.9525 155.146 46.1049 155.001 46.2963C154.81 46.5498 154.749 46.8734 154.842 47.1404C154.926 47.3804 155.11 47.5402 155.273 47.6813C155.391 47.7835 155.502 47.8795 155.564 47.9924C155.658 48.1658 155.625 48.404 155.488 48.5463C155.352 48.6881 155.115 48.7281 154.938 48.6401C154.834 48.5881 154.708 48.6305 154.656 48.7338C154.605 48.8371 154.646 48.9636 154.75 49.0155C154.863 49.072 154.987 49.1014 155.113 49.1053C155.362 49.1127 155.615 49.0189 155.79 48.8377C156.053 48.565 156.113 48.1257 155.932 47.792C155.834 47.6124 155.682 47.4803 155.548 47.364C155.413 47.2471 155.285 47.1365 155.238 47.0021C155.191 46.8677 155.229 46.6899 155.336 46.5493C155.379 46.4928 155.436 46.442 155.5 46.3934C155.708 46.3979 155.967 46.4702 156.094 46.6176C156.238 46.7847 156.3 47.0224 156.258 47.2375C156.236 47.351 156.31 47.4611 156.424 47.4837C156.435 47.486 156.446 47.4871 156.458 47.4877C156.559 47.4905 156.65 47.4205 156.67 47.3183C156.738 46.9744 156.641 46.6102 156.413 46.3437C156.327 46.2449 156.219 46.176 156.105 46.1201C156.455 46.0371 156.796 46.0659 157.058 46.2144C157.381 46.3979 157.615 46.853 157.435 47.2127C157.384 47.3166 157.425 47.4425 157.529 47.4944C157.633 47.5458 157.758 47.5046 157.811 47.4007C158.074 46.8762 157.824 46.1664 157.266 45.8491Z" fill="#422D22"/>
<path d="M188.223 37.8704C185.888 39.3808 184.13 41.7618 183.375 44.4381C182.714 46.7796 182.78 49.3554 181.611 51.4885C180.738 53.0814 179.272 54.2439 177.945 55.4833C176.617 56.7232 175.342 58.1901 175.062 59.9844C174.744 62.0205 175.822 64.0864 177.389 65.4257C178.955 66.765 180.949 67.4906 182.932 68.0512C187.932 69.465 193.178 69.9997 198.36 69.6226C200.389 69.4752 202.443 69.1788 204.283 68.3115C206.123 67.4448 207.741 65.9356 208.342 63.9927C209.002 61.8618 208.378 59.5559 207.583 57.4719C206.788 55.3878 205.806 53.3061 205.74 51.0764C205.673 48.8817 206.506 46.7395 206.493 44.5437C206.466 39.8686 202.674 36.5526 198.27 35.8801C194.944 35.3736 191.065 36.032 188.223 37.8704Z" fill="#421F09"/>
<path d="M187.197 235.184L187.168 235.374C187.139 235.656 187.104 235.927 187.053 236.221C186.995 236.463 186.949 236.728 186.897 236.999L157.826 236.992C157.826 236.992 157.781 236.692 157.781 236.22C157.792 235.978 157.809 235.696 157.861 235.368C157.873 235.31 157.879 235.241 157.902 235.177C158.219 233.541 159.412 231.283 163.383 230.557C163.573 230.511 163.775 230.488 163.994 230.459H164.011C164.322 230.414 164.633 230.384 164.968 230.356C165.077 230.35 165.187 230.339 165.296 230.333C173.248 229.712 176.77 227.045 176.77 227.045C176.77 227.045 181.38 227.968 185.701 227.047C185.701 227.047 186.208 227.889 186.657 229.353C186.726 229.601 186.801 229.865 186.87 230.148C186.887 230.2 186.899 230.257 186.916 230.321C186.944 230.43 186.968 230.557 186.991 230.684C186.996 230.718 187.008 230.764 187.008 230.799C187.008 230.828 187.025 230.839 187.026 230.862C187.141 231.461 187.227 232.118 187.262 232.827C187.296 233.564 187.289 234.354 187.197 235.184Z" fill="#402664"/>
<path d="M173.884 227.28C173.982 227.189 174.113 227.121 174.251 227.127C174.397 227.134 174.505 227.189 174.618 227.28C174.698 227.343 174.779 227.406 174.859 227.468C175.242 227.764 175.632 228.051 176.028 228.328C176.141 228.407 176.229 228.502 176.267 228.639C176.301 228.764 176.286 228.929 176.214 229.039C176.072 229.26 175.742 229.392 175.504 229.225C174.951 228.839 174.412 228.433 173.883 228.014C173.786 227.936 173.731 227.764 173.731 227.646C173.732 227.52 173.788 227.367 173.884 227.28Z" fill="white"/>
<path d="M171.826 228.205C172.02 228.026 172.371 227.984 172.56 228.205C172.94 228.647 173.365 229.049 173.825 229.408C173.899 229.464 173.972 229.52 174.048 229.573C174.161 229.652 174.249 229.746 174.287 229.883C174.321 230.007 174.305 230.173 174.234 230.284C174.093 230.503 173.761 230.638 173.523 230.47C172.898 230.028 172.325 229.52 171.826 228.939C171.735 228.833 171.673 228.716 171.673 228.572C171.673 228.445 171.73 228.292 171.826 228.205Z" fill="white"/>
<path d="M169.933 228.875C170.032 228.784 170.163 228.717 170.301 228.723C170.429 228.728 170.586 228.769 170.669 228.875L171.847 230.391C171.936 230.505 171.999 230.608 171.999 230.758C171.999 230.886 171.942 231.038 171.846 231.126C171.748 231.217 171.617 231.284 171.479 231.278C171.351 231.273 171.194 231.232 171.111 231.126L169.933 229.61C169.844 229.496 169.781 229.394 169.781 229.243C169.782 229.115 169.838 228.963 169.933 228.875Z" fill="white"/>
<path d="M167.835 229.365C168.085 229.233 168.403 229.301 168.548 229.555C168.805 229.996 169.06 230.433 169.317 230.874C169.477 231.108 169.405 231.475 169.147 231.61C168.897 231.743 168.58 231.674 168.434 231.421C168.177 230.98 167.923 230.543 167.665 230.102C167.506 229.867 167.578 229.501 167.835 229.365Z" fill="white"/>
<path d="M187.172 235.377C187.138 235.651 187.105 235.931 187.048 236.216C186.998 236.468 186.953 236.731 186.891 237L157.827 236.993C157.827 236.993 157.777 236.696 157.777 236.22C157.788 235.974 157.805 235.689 157.861 235.37L187.172 235.377Z" fill="#5F95DC"/>
<path d="M200.659 235.184L200.688 235.374C200.717 235.656 200.752 235.927 200.803 236.221C200.861 236.463 200.907 236.728 200.959 236.999L230.03 236.992C230.03 236.992 230.076 236.692 230.076 236.22C230.064 235.978 230.047 235.696 229.995 235.368C229.984 235.31 229.977 235.241 229.954 235.177C229.637 233.541 228.444 231.283 224.473 230.557C224.283 230.511 224.082 230.488 223.862 230.459H223.845C223.534 230.414 223.223 230.384 222.889 230.356C222.779 230.35 222.669 230.339 222.56 230.333C214.608 229.712 211.087 227.045 211.087 227.045C211.087 227.045 206.477 227.968 202.156 227.047C202.156 227.047 201.649 227.889 201.2 229.353C201.131 229.601 201.056 229.865 200.987 230.148C200.97 230.2 200.958 230.257 200.941 230.321C200.912 230.43 200.889 230.557 200.866 230.684C200.86 230.718 200.849 230.764 200.849 230.799C200.849 230.828 200.831 230.839 200.831 230.862C200.716 231.461 200.63 232.118 200.595 232.827C200.561 233.564 200.567 234.354 200.659 235.184Z" fill="#402664"/>
<path d="M213.973 227.28C213.874 227.189 213.744 227.121 213.606 227.127C213.459 227.134 213.352 227.189 213.238 227.28C213.158 227.343 213.078 227.406 212.998 227.468C212.614 227.764 212.225 228.051 211.828 228.328C211.715 228.407 211.627 228.502 211.589 228.639C211.554 228.764 211.57 228.929 211.641 229.039C211.784 229.26 212.114 229.392 212.352 229.225C212.905 228.839 213.444 228.433 213.973 228.014C214.07 227.936 214.125 227.764 214.125 227.646C214.125 227.52 214.069 227.367 213.973 227.28Z" fill="white"/>
<path d="M216.031 228.205C215.836 228.026 215.486 227.984 215.297 228.205C214.917 228.647 214.492 229.049 214.032 229.408C213.958 229.464 213.884 229.52 213.809 229.573C213.696 229.652 213.608 229.746 213.57 229.883C213.536 230.007 213.551 230.173 213.623 230.284C213.764 230.503 214.096 230.638 214.333 230.47C214.958 230.028 215.532 229.52 216.031 228.939C216.122 228.833 216.184 228.716 216.184 228.572C216.184 228.445 216.127 228.292 216.031 228.205Z" fill="white"/>
<path d="M217.923 228.875C217.824 228.784 217.694 228.717 217.556 228.723C217.428 228.728 217.271 228.769 217.188 228.875L216.01 230.391C215.921 230.505 215.858 230.608 215.858 230.758C215.858 230.886 215.914 231.038 216.01 231.126C216.109 231.217 216.24 231.284 216.377 231.278C216.505 231.273 216.662 231.232 216.745 231.126L217.923 229.61C218.011 229.496 218.075 229.394 218.075 229.243C218.075 229.115 218.019 228.963 217.923 228.875Z" fill="white"/>
<path d="M220.021 229.365C219.771 229.233 219.454 229.301 219.308 229.555C219.051 229.996 218.797 230.433 218.539 230.874C218.38 231.108 218.452 231.475 218.709 231.61C218.959 231.743 219.277 231.674 219.422 231.421C219.679 230.98 219.934 230.543 220.191 230.102C220.35 229.867 220.279 229.501 220.021 229.365Z" fill="white"/>
<path d="M200.685 235.377C200.718 235.651 200.752 235.931 200.808 236.216C200.858 236.468 200.903 236.731 200.965 237L230.029 236.993C230.029 236.993 230.079 236.696 230.079 236.22C230.068 235.974 230.051 235.689 229.995 235.37L200.685 235.377Z" fill="#5F95DC"/>
<path d="M194.988 119.517L186.1 222.423L185.698 227.045C181.391 228.625 176.769 227.045 176.769 227.045C176.769 227.045 176.636 225.297 176.414 222.222C175.175 204.641 171.271 143.71 174.86 119.302L194.988 119.517Z" fill="#EBA37D"/>
<path d="M211.318 222.611C211.177 225.444 211.09 227.045 211.09 227.045C211.09 227.045 206.294 228.19 202.155 227.045C201.947 225.598 201.746 224.151 201.546 222.698C194.613 172.497 190.454 119.456 190.454 119.456L209.844 119.309C214.472 147.929 212.108 206.134 211.318 222.611Z" fill="#EBA37D"/>
<path d="M194.989 119.516L192.679 150.016L187.355 220.316L187.338 220.534L187.171 222.74C183.95 222.975 177.844 222.928 174.629 222.56C174.593 222.032 174.554 221.463 174.516 220.858C174.511 220.787 174.505 220.714 174.501 220.641C173.254 200.9 171.391 142.889 174.86 119.302L190.454 119.467L194.989 119.516Z" fill="#402664"/>
<path d="M212.407 220.267C212.403 220.34 212.401 220.413 212.399 220.484C212.363 221.328 212.328 222.103 212.294 222.802C209.039 222.971 203.15 222.86 199.895 222.759C199.814 222.096 199.732 221.435 199.653 220.772C199.645 220.699 199.636 220.629 199.628 220.556C196.548 195.044 194.219 169.192 192.679 150.015C191.233 132.004 190.481 119.883 190.455 119.466C190.455 119.46 190.455 119.455 190.455 119.455L209.843 119.308C214.257 146.611 213.2 201.014 212.407 220.267Z" fill="#402664"/>
<path d="M197.461 127.909C197.446 127.773 197.232 127.772 197.247 127.909C197.317 128.534 197.142 129.178 196.737 129.664C196.353 130.126 195.787 130.424 195.19 130.484C195.165 130.486 195.147 130.497 195.131 130.511C195.096 130.525 195.066 130.555 195.06 130.601C194.683 133.513 194.306 136.426 193.93 139.339L192.807 148.023L192.17 152.948C192.153 153.084 192.367 153.083 192.384 152.948C192.761 150.035 193.138 147.123 193.514 144.21C193.889 141.315 194.263 138.421 194.637 135.526C194.846 133.913 195.055 132.3 195.263 130.687C195.89 130.606 196.48 130.303 196.888 129.816C197.329 129.289 197.538 128.59 197.461 127.909Z" fill="#2A1543"/>
<path d="M187.355 220.317L187.339 220.535C186.684 220.65 186.027 220.749 185.369 220.832C183.399 221.085 181.414 221.2 179.429 221.181C177.787 221.166 176.146 221.056 174.516 220.858C174.512 220.787 174.506 220.714 174.501 220.641C175.293 220.74 176.084 220.815 176.879 220.868C178.832 221.001 180.798 221.003 182.753 220.873C184.295 220.771 185.833 220.584 187.355 220.317Z" fill="#2A1543"/>
<path d="M212.407 220.267C212.403 220.34 212.401 220.413 212.399 220.484C211.826 220.571 211.25 220.651 210.673 220.717C208.564 220.961 206.438 221.072 204.311 221.046C202.754 221.029 201.202 220.937 199.653 220.772C199.645 220.699 199.636 220.629 199.628 220.556C200.282 220.626 200.937 220.684 201.593 220.727C201.735 220.735 201.876 220.744 202.017 220.751C202.087 220.757 202.16 220.761 202.231 220.764C204.107 220.866 205.987 220.86 207.86 220.748C209.383 220.659 210.899 220.498 212.407 220.267Z" fill="#2A1543"/>
<path d="M198.702 190.143C197.602 180.408 196.502 170.673 195.402 160.939C194.779 155.426 194.156 149.913 193.532 144.4C193.517 144.265 193.303 144.264 193.318 144.4C194.424 154.185 195.53 163.969 196.636 173.753C197.736 183.488 198.836 193.222 199.936 202.956C200.56 208.469 201.397 215.282 202.02 220.795C202.036 220.93 202.25 220.931 202.234 220.795C201.128 211.011 199.808 199.927 198.702 190.143Z" fill="#2A1543"/>
<path d="M202.578 68.9241C207.548 71.5388 206.266 96.5065 206.266 96.5065L217.641 113.707C217.641 113.707 215.045 117.583 211.439 118.609C211.439 118.609 203.23 106.211 200.964 102.62C198.699 99.0281 198.485 95.0526 198.784 92.3588C199.083 89.6655 202.578 68.9241 202.578 68.9241Z" fill="white"/>
<path d="M228.369 103.566L211.721 91.8625L195.393 115.089L212.042 126.793L228.369 103.566Z" fill="#BFBEFC"/>
<path d="M222.782 98.7194C222.868 97.9397 222.245 96.8884 221.155 96.1222C220.066 95.356 218.865 95.1256 218.161 95.4706L216.729 94.4639L215.466 96.2599L222.951 101.522L224.214 99.7256L222.782 98.7194Z" fill="#402664"/>
<path d="M221.828 113.732C221.293 112.898 217.29 112.766 217.221 113.901C217.152 115.034 218.695 115.09 218.695 115.09C218.695 115.09 216.822 114.805 216.607 115.536C216.392 116.268 217.964 116.532 217.964 116.532C217.964 116.532 216.051 115.858 215.604 116.757C215.157 117.657 216.359 117.98 216.359 117.98C216.359 117.98 215.214 117.721 214.995 118.378C214.776 119.034 215.997 119.694 217.366 119.476C218.735 119.258 218.749 118.25 218.749 118.25C218.749 118.25 220.005 117.985 220.144 116.921C220.701 116.644 221.244 116.034 221.144 115.329C221.708 115.083 222.393 114.614 221.828 113.732Z" fill="#FAB5A0"/>
<path d="M174.642 119.728C196.73 124.667 209.843 119.307 209.843 119.307C209.005 116.729 204.08 93.0794 204.08 93.0794C209.031 91.3945 209.586 82.7733 204.097 77.572L202.578 68.9242L196.918 66.8995L189.502 66.8486L182.002 69.2669L181.236 105.751L174.642 119.728Z" fill="#5F95DC"/>
<path d="M188.241 67.2546L192.243 99.4986L189.735 149.776H165.48L179.018 105.198L182.002 69.2664L188.241 67.2546Z" fill="white"/>
<path d="M188.241 67.2546L183.863 74.0177L187.527 77.039L185.402 81.5995L191.813 96.0358L188.241 67.2546Z" fill="#F5F5FE"/>
<path d="M176.005 103.16C177.224 103.142 181.356 101.752 182.825 102.41C184.294 103.069 189.284 106.101 188.864 106.988C188.598 107.551 185.16 105.924 185.16 105.924C185.16 105.924 188.69 108.726 188.12 109.378C187.55 110.029 184.041 107.133 184.041 107.133C184.041 107.133 187.471 110.507 186.722 111.244C185.974 111.982 182.786 108.242 182.786 108.242C182.786 108.242 183.881 109.556 183.201 110.847C182.674 111.847 181.37 112.557 180.989 112.118C180.608 111.68 181.756 110.499 181.768 110.262C181.78 110.025 181.267 109.209 181.267 109.209C179.277 110.754 176.143 109.42 176.143 109.42L176.005 103.16Z" fill="#EBA37D"/>
<path d="M182.002 69.2666C171.465 73.8045 161.938 81.7324 157.614 85.1054C153.082 88.6394 152.817 94.848 157.401 97.9156C161.355 100.562 175.826 110.08 175.826 110.08C175.826 110.08 179.033 105.911 178.99 102.52L165.023 91.7787C165.023 91.7787 181.71 83.1366 181.715 82.9096C181.72 82.6832 182.002 69.2666 182.002 69.2666Z" fill="white"/>
<path d="M164.545 91.6323C163.821 91.0937 162.939 90.7933 162.038 90.7696C161.9 90.7662 161.9 90.9796 162.038 90.9836C162.904 91.0061 163.742 91.3003 164.437 91.8169C164.547 91.8994 164.654 91.7136 164.545 91.6323Z" fill="#F5F5FE"/>
<path d="M164.843 91.2864C164.385 90.1803 163.38 89.413 162.192 89.2622C162.056 89.2447 162.058 89.4587 162.192 89.4762C163.275 89.614 164.219 90.335 164.637 91.3435C164.689 91.4688 164.896 91.414 164.843 91.2864Z" fill="#F5F5FE"/>
<path d="M183.742 82.2762C183.44 82.2626 183.137 82.2491 182.834 82.235C183.107 82.0746 183.379 81.9143 183.651 81.7539C183.77 81.6839 183.663 81.4993 183.544 81.5693C183.177 81.7855 182.809 82.0012 182.442 82.2169C182.441 82.2169 182.44 82.2169 182.439 82.2169C182.391 82.2147 182.361 82.2401 182.347 82.2734C181.723 82.6398 181.1 83.0063 180.477 83.3727C180.358 83.4421 180.465 83.6273 180.584 83.5573C181.221 83.1824 181.859 82.8081 182.496 82.4332C182.911 82.4518 183.327 82.4704 183.742 82.4896C183.88 82.4964 183.88 82.2824 183.742 82.2762Z" fill="#F5F5FE"/>
<path d="M197.912 67.2546L200.28 99.0994L206.493 149.776H216.184L204.556 93.2279C209.458 90.2066 209.971 84.0505 204.556 77.3241L202.578 68.9237L197.912 67.2546Z" fill="white"/>
<path d="M206.868 80.8017C206.22 79.6013 205.423 78.489 204.563 77.4326C204.353 75.4011 204.143 73.3701 203.932 71.3386C203.918 71.2031 203.704 71.2014 203.718 71.3386C203.931 73.3916 204.143 75.4445 204.356 77.4975C204.36 77.537 204.382 77.5636 204.409 77.5799C205.903 79.4161 207.221 81.4606 207.843 83.7665C208.44 85.9765 208.367 88.401 207.227 90.428C206.662 91.4324 205.86 92.3003 204.865 92.888C204.746 92.958 204.854 93.1432 204.973 93.0727C206.815 91.9846 207.99 89.9943 208.32 87.9081C208.709 85.4519 208.033 82.9597 206.868 80.8017Z" fill="#F5F5FE"/>
<path d="M199.932 77.1389L202.495 73.6818L197.912 67.2546L200.065 96.2069L202.931 81.3714L199.932 77.1389Z" fill="#F5F5FE"/>
<path d="M192.913 89.1136L190.983 89.4575L190.807 88.4705L191.75 88.3023L190.056 78.7906C189.7 76.7975 187.79 75.465 185.797 75.8201C183.804 76.1753 182.472 78.0854 182.827 80.0785L184.521 89.5902L185.489 89.418L185.665 90.4049L183.71 90.7533L181.84 80.2547C181.388 77.7173 183.084 75.2854 185.622 74.8337C188.159 74.3815 190.591 76.0782 191.042 78.6156L192.913 89.1136Z" fill="#402664"/>
<path d="M185.942 74.9749C185.38 72.7972 184.797 70.5088 185.443 68.2813C185.628 67.6422 184.632 67.3695 184.447 68.0069C183.749 70.4162 184.337 72.8904 184.946 75.2494C185.112 75.8919 186.108 75.6197 185.942 74.9749Z" fill="#402664"/>
<path d="M204.171 79.8326C204.171 81.1193 203.128 82.1622 201.841 82.1622C200.554 82.1622 199.511 81.1193 199.511 79.8326C199.511 78.5458 200.554 77.5029 201.841 77.5029C203.127 77.5029 204.171 78.5458 204.171 79.8326Z" fill="#402664"/>
<path d="M203.04 79.8326C203.04 80.4949 202.503 81.0318 201.841 81.0318C201.179 81.0318 200.642 80.4949 200.642 79.8326C200.642 79.1703 201.179 78.6333 201.841 78.6333C202.503 78.6333 203.04 79.1703 203.04 79.8326Z" fill="#5F95DC"/>
<path d="M200.511 67.5337C200.277 66.9189 199.279 67.1854 199.515 67.8082C200.722 70.9898 201.326 74.3516 201.291 77.7546C201.284 78.4191 202.316 78.4197 202.323 77.7546C202.359 74.2669 201.747 70.7944 200.511 67.5337Z" fill="#402664"/>
<path d="M185.873 88.7588L185.657 88.7994C185.442 88.8395 185.301 89.0461 185.341 89.2607L185.572 90.491C185.612 90.7056 185.818 90.8467 186.033 90.8066L186.249 90.766C186.463 90.7259 186.604 90.5192 186.564 90.3047L186.333 89.0744C186.294 88.8598 186.087 88.7187 185.873 88.7588Z" fill="#402664"/>
<path d="M190.542 87.9929L190.326 88.0335C190.111 88.0736 189.97 88.2803 190.01 88.4948L190.241 89.7252C190.281 89.9397 190.488 90.0809 190.702 90.0408L190.918 90.0001C191.133 89.96 191.274 89.7534 191.234 89.5388L191.003 88.3085C190.963 88.094 190.756 87.9528 190.542 87.9929Z" fill="#402664"/>
<path d="M204.982 53.3773C204.979 53.4287 204.972 53.4801 204.969 53.5315C204.962 53.5925 204.959 53.6438 204.952 53.7043C204.641 56.5957 203.603 58.4279 202.156 59.7943C201.381 60.5311 200.66 61.0743 200.025 61.5587C199.821 61.7151 199.63 61.8619 199.445 62.0087C199.299 62.1211 199.164 62.238 199.024 62.3594C197.608 63.562 196.813 64.8815 197.014 68.6589C195.903 71.9523 191.007 72.6655 189.223 69.0807C189.029 64.5061 187.951 60.6062 187.049 58.1032C186.821 57.4494 186.6 56.8938 186.411 56.4483C186.054 55.5941 185.804 55.1277 185.804 55.1277C185.804 55.1277 185.478 45.0672 186.781 42.3214C189.958 35.695 202.44 37.2291 203.676 42.3068C204.864 47.1591 205.216 50.7072 204.982 53.3773Z" fill="#EBA37D"/>
<path d="M205.171 48.0162C203.88 45.4427 201.94 43.1977 199.582 41.5474C197.445 44.3445 194.44 46.4325 191.031 47.3105C190.638 50.0591 188.782 52.5999 186.198 53.6139C185.306 53.5592 184.525 52.7546 184.195 51.9246C183.866 51.0946 183.863 50.1765 183.866 49.2833C183.871 47.8034 183.884 46.3066 184.251 44.873C184.874 42.4355 186.524 40.3114 188.637 38.9461C190.75 37.5809 193.298 36.9519 195.814 36.9886C197.583 37.0145 199.366 37.3674 200.935 38.1828C202.505 38.9981 203.851 40.2973 204.564 41.9166C205.415 43.8516 205.284 45.9051 205.171 48.0162Z" fill="#421F09"/>
<path d="M183.111 55.505C184.239 56.7121 185.931 56.9651 186.889 56.0696C187.847 55.1741 187.71 53.4695 186.582 52.2623C185.454 51.0546 183.762 50.8022 182.804 51.6972C181.845 52.5926 181.983 54.2972 183.111 55.505Z" fill="#EBA37D"/>
<path d="M183.529 52.2787C183.967 52.0161 184.569 51.9947 185.138 52.2233C185.421 52.3368 185.63 52.4825 185.778 52.6683C185.973 52.9144 186.04 53.2329 185.954 53.4994C185.877 53.7388 185.699 53.9008 185.541 54.0437C185.427 54.147 185.319 54.2453 185.261 54.3582C185.172 54.5315 185.209 54.7664 185.348 54.9036C185.487 55.0408 185.721 55.0747 185.894 54.9832C185.996 54.9296 186.121 54.9685 186.175 55.0696C186.228 55.1707 186.19 55.2966 186.088 55.3502C185.978 55.4089 185.855 55.4406 185.732 55.4473C185.485 55.4603 185.234 55.3739 185.056 55.1983C184.79 54.9347 184.721 54.5016 184.892 54.1685C184.984 53.9884 185.132 53.8545 185.262 53.7365C185.393 53.618 185.516 53.5056 185.56 53.3718C185.603 53.2374 185.562 53.0629 185.453 52.9263C185.41 52.8715 185.352 52.8224 185.288 52.7761C185.082 52.7851 184.828 52.8625 184.705 53.0116C184.567 53.1798 184.51 53.4158 184.557 53.6281C184.582 53.7399 184.511 53.8506 184.399 53.8754C184.388 53.8783 184.376 53.8794 184.365 53.8799C184.266 53.8856 184.174 53.8178 184.152 53.7173C184.077 53.3791 184.164 53.0172 184.384 52.7484C184.466 52.6485 184.571 52.5785 184.682 52.5198C184.335 52.4458 183.998 52.4825 183.742 52.6349C183.427 52.8235 183.207 53.2786 183.392 53.6298C183.445 53.7314 183.407 53.8568 183.306 53.9104C183.204 53.9641 183.08 53.9251 183.025 53.824C182.755 53.3125 182.986 52.605 183.529 52.2787Z" fill="#C16B5B"/>
<path d="M199.281 52.5859C199.459 52.495 199.649 52.4403 199.849 52.4284C200.027 52.4177 200.224 52.4408 200.372 52.5481C200.53 52.6633 200.61 52.8423 200.626 53.0348C200.642 53.2189 200.581 53.4007 200.513 53.5684C200.477 53.6587 200.39 53.7344 200.285 53.7016C200.199 53.6745 200.112 53.5706 200.152 53.4735C200.202 53.351 200.256 53.2172 200.255 53.0822C200.255 53.0134 200.237 52.9428 200.195 52.8874C200.198 52.8908 200.2 52.8942 200.202 52.8982C200.164 52.8389 200.092 52.8169 200.026 52.8056C200.021 52.8044 200.016 52.8039 200.009 52.8027C199.994 52.8027 199.98 52.8005 199.966 52.7999C199.929 52.7982 199.892 52.7994 199.854 52.8016C199.835 52.8027 199.817 52.8044 199.797 52.8061C199.787 52.8073 199.787 52.8073 199.783 52.8073C199.78 52.8078 199.78 52.8084 199.771 52.8095C199.655 52.8304 199.556 52.8778 199.446 52.9174C199.363 52.9467 199.262 52.9224 199.218 52.8417C199.172 52.7581 199.188 52.6334 199.281 52.5859Z" fill="#C16B5B"/>
<path d="M203.41 47.8917C202.429 47.361 201.238 47.3107 200.237 47.829C199.992 47.9561 199.857 48.2807 199.995 48.5348C200.175 48.8645 200.497 48.8645 200.8 48.7273C201.07 48.6054 201.361 48.5303 201.657 48.5066C201.656 48.4902 201.631 48.5184 201.647 48.5179C202.025 48.497 202.4 48.5738 202.744 48.729C202.765 48.7381 202.785 48.7482 202.818 48.7635C203.059 48.8916 203.385 48.8826 203.545 48.6257C203.684 48.4044 203.669 48.0317 203.41 47.8917Z" fill="black"/>
<path d="M197.047 47.9355C196.008 47.5307 194.82 47.6278 193.891 48.2658C193.664 48.4222 193.57 48.761 193.738 48.9964C193.902 49.224 194.226 49.3166 194.469 49.1494C194.563 49.0851 194.659 49.0297 194.758 48.9738C194.768 48.9688 194.766 48.9699 194.772 48.9665C194.79 48.9586 194.808 48.9501 194.826 48.9422C194.865 48.9259 194.904 48.91 194.943 48.8948C195.049 48.8553 195.157 48.822 195.266 48.7949C195.294 48.7881 195.47 48.735 195.334 48.7779C195.379 48.7638 195.434 48.7627 195.481 48.757C195.586 48.7452 195.692 48.7384 195.798 48.7378C195.854 48.7373 195.911 48.7407 195.967 48.7418C195.973 48.7418 195.975 48.7418 195.979 48.7418C195.988 48.7429 195.999 48.7446 196.016 48.7463C196.121 48.7593 196.225 48.7779 196.327 48.8022C196.382 48.8152 196.436 48.8304 196.49 48.8468C196.512 48.8536 196.533 48.8604 196.554 48.8677C196.558 48.8694 196.557 48.8683 196.561 48.8705C196.563 48.8711 196.564 48.8711 196.566 48.8716C196.567 48.8722 196.569 48.8728 196.571 48.8733C196.568 48.8728 196.569 48.8728 196.567 48.8722C196.823 48.9693 197.144 48.9208 197.272 48.6458C197.383 48.4109 197.322 48.0428 197.047 47.9355Z" fill="black"/>
<path d="M197.385 55.144C198.057 55.6556 198.909 55.8905 199.748 55.8131C199.98 55.7917 200 56.153 199.768 56.1745C198.831 56.2609 197.89 55.9825 197.143 55.4134C196.958 55.2722 197.2 55.0034 197.385 55.144Z" fill="#8E4136"/>
<path d="M194.989 51.5146C194.973 51.986 195.342 52.3807 195.813 52.396C196.284 52.4118 196.679 52.0425 196.695 51.571C196.711 51.0996 196.341 50.7049 195.87 50.6897C195.399 50.6744 195.004 51.0437 194.989 51.5146Z" fill="black"/>
<path d="M195.901 51.2719C195.896 51.4091 196.004 51.5243 196.142 51.5288C196.279 51.5333 196.394 51.4255 196.398 51.2883C196.403 51.1511 196.296 51.0359 196.158 51.0314C196.021 51.0274 195.906 51.1347 195.901 51.2719Z" fill="white"/>
<path d="M201.216 51.3432C201.2 51.8147 201.569 52.2093 202.04 52.2246C202.512 52.2404 202.906 51.8711 202.922 51.3997C202.937 50.9288 202.568 50.5341 202.097 50.5183C201.626 50.503 201.232 50.8717 201.216 51.3432Z" fill="black"/>
<path d="M202.128 51.1003C202.124 51.2375 202.231 51.3527 202.369 51.3572C202.506 51.3617 202.621 51.2544 202.626 51.1167C202.63 50.9795 202.523 50.8643 202.385 50.8598C202.248 50.8552 202.133 50.9631 202.128 51.1003Z" fill="white"/>
<path d="M330.15 14.053C328.023 10.6088 322.778 9.23304 318.399 10.7795L318.194 10.8518L318.104 10.6863C316.181 7.1657 311.162 5.32408 306.698 6.70327C301.932 8.17564 299.711 12.5291 301.741 16.2453L307.376 26.5386C308.319 28.261 310.817 29.0435 312.961 28.2888L325.77 23.7768C330.392 22.1441 332.42 17.7304 330.15 14.053Z" fill="#EBEBFF"/>
<path d="M290.594 10.3473C288.272 9.98263 286.023 11.2258 285.461 13.0738L285.435 13.1606L285.327 13.1392C283.029 12.6878 280.62 13.7191 279.951 15.544C279.236 17.4921 280.694 19.5033 283.12 19.9796L289.842 21.2957C290.967 21.5156 292.1 20.9623 292.377 20.0583L294.026 14.655C294.619 12.7046 293.073 10.7362 290.594 10.3473Z" fill="#EBEBFF"/>
<path d="M48.0777 157.208C45.756 156.844 43.5063 158.086 42.9449 159.934L42.919 160.021L42.8111 160C40.5131 159.548 38.1043 160.58 37.435 162.404C36.7203 164.353 38.1784 166.364 40.6038 166.84L47.3256 168.156C48.4505 168.376 49.584 167.823 49.8604 166.919L51.5099 161.515C52.1029 159.565 50.557 157.597 48.0777 157.208Z" fill="#EBEBFF"/>
<path d="M83.5978 20.1941C80.1922 19.3167 76.5412 20.8632 75.2918 23.5579L75.2336 23.6841L75.0759 23.6372C71.7251 22.6324 67.882 23.8386 66.4757 26.483C64.9744 29.3062 66.7218 32.5328 70.2584 33.5936L80.0612 36.5251C81.7014 37.0153 83.5258 36.3457 84.1382 35.0272L87.8029 27.1497C89.1221 24.3057 87.2343 21.1306 83.5978 20.1941Z" fill="#EBEBFF"/>
<path d="M345.233 160.403C344.562 158.251 341.816 156.955 339.11 157.394L338.984 157.414L338.958 157.312C338.413 155.136 335.865 153.601 333.138 153.937C330.225 154.294 328.306 156.529 328.881 158.825L330.482 165.187C330.75 166.251 332.039 166.94 333.362 166.727L341.275 165.452C344.131 164.989 345.95 162.701 345.233 160.403Z" fill="#EBEBFF"/>
<path d="M119.356 2.91293C115.592 -0.138305 109.425 -0.112261 105.458 2.76824L105.272 2.9031L105.104 2.7532C101.522 -0.436945 95.3915 -0.968829 91.2597 1.7583C86.8488 4.67006 86.3997 9.91712 90.1795 13.2844L100.665 22.6071C102.42 24.1669 105.413 24.2896 107.356 22.882L118.968 14.4674C123.157 11.4283 123.375 6.17137 119.356 2.91293Z" fill="#EBEBFF"/>
</svg>
