<svg width="385" height="160" viewBox="0 0 385 160" fill="none" xmlns="http://www.w3.org/2000/svg">
<g opacity="0.5">
<path d="M317.661 4.06002C317.971 4.21616 349.774 13.58 366.859 32.1652C383.945 50.7504 366.427 35.2604 349.637 25.3547C335.891 17.2447 306.521 6.65929 309.846 4.06002C313.17 1.46075 317.661 4.06002 317.661 4.06002Z" fill="#D1E3F9"/>
<path d="M352.091 143.41C352.091 143.41 391.674 109.725 377.28 63.2646C362.887 16.8038 286.6 5.35052 235.502 23.7061C184.404 42.0618 112.436 47.7287 85.8072 11.1415C59.1788 -25.4458 -41.5773 53.7172 21.0354 143.41H352.091Z" fill="#E0EDFD"/>
<path d="M49.2039 143.41C49.2039 143.41 18.0199 96.3204 75.2494 79.3654C132.479 62.4104 79.805 126.598 137.984 124.141C160.619 123.186 203.562 103.953 190.651 60.2474C182.965 34.2318 273.278 49.7447 288.334 143.415H49.2039V143.41Z" fill="white"/>
<path d="M374.761 44.932C374.761 44.932 377.158 49.7172 379.202 50.6357C381.246 51.5542 381.598 48.7207 379.202 45.9653C376.805 43.2099 373.56 42.8149 374.761 44.932Z" fill="#B2E7FE"/>
<path d="M10.9598 103.962C10.9598 103.962 5.20227 84.7017 10.9598 69.6571C16.7173 54.6126 13.2628 74.2633 13.3563 83.4525C13.4787 94.5706 16.7173 118.41 10.9598 103.962Z" fill="white"/>
<path d="M13.8313 59.5908C13.8313 59.5908 13.8961 54.9984 15.6953 54.0019C17.4946 53.0053 16.4654 58.9203 15.6953 60.0913C14.7957 61.4644 13.7306 60.9731 13.8313 59.5908Z" fill="white"/>
</g>
<path d="M100.934 88.8724C99.5326 90.1003 99.5038 92.1084 100.884 93.3554C102.264 94.6025 104.507 94.6281 105.923 93.4002C106.023 93.3107 106.124 93.2083 106.21 93.1188C107.432 98.2861 107.964 98.9768 108.733 98.9768C108.819 98.9768 108.913 98.964 109.014 98.9512C110.077 98.8169 110.099 98.8169 110.933 86.3208C110.947 86.065 110.969 85.8028 110.983 85.547C110.997 85.7132 111.019 85.8859 111.033 86.0394C112.047 95.3699 112.047 95.3699 112.802 95.6257C113.772 95.9647 114.268 95.1845 115.325 93.4769C115.605 93.0357 116.022 92.3514 116.288 92.0188C117.524 92.1404 120.91 92.377 121.923 91.2067C122.124 90.9828 122.39 90.6119 122.678 90.1834C123.059 89.6526 123.85 88.5335 124.345 88.105C124.575 88.3544 124.863 88.7701 125.093 89.0963C126.056 90.4648 127.142 92.0061 128.644 92.038H128.694L136.529 92.0508H139.066V93.0485C139.066 97.071 135.401 100.32 130.894 100.32H118.092V111.729C118.092 115.738 114.426 119 109.905 119H104.169C99.662 119 95.9961 115.738 95.9961 111.729V100.326H83.1727C78.6659 100.326 75 97.0774 75 93.0549V87.9515C75 83.929 78.6659 80.6802 83.1727 80.6802H95.9961V69.2713C95.9961 65.2615 99.662 62 104.169 62H109.905C114.426 62 118.092 65.2615 118.092 69.2713V80.6802H130.901C135.408 80.6802 139.074 83.929 139.074 87.9515V90.3689H136.536L128.745 90.3561C128.745 90.3561 128.73 90.3561 128.716 90.3561C128.22 90.3561 127.127 88.7957 126.71 88.2009C126.164 87.4335 125.74 86.8324 125.244 86.5126C124.942 86.308 124.547 86.244 124.173 86.308C123.138 86.487 122.254 87.6574 121.089 89.2881C120.838 89.659 120.608 89.9852 120.457 90.1515C119.99 90.4968 117.308 90.4648 116.151 90.2986C115.238 90.177 114.785 90.8805 113.7 92.6264C113.47 90.8613 113.183 88.1882 112.945 85.8859C111.91 76.3443 111.91 76.3443 110.997 76.1845C110.724 76.1397 110.437 76.1972 110.221 76.3507C109.718 76.6897 109.689 76.7089 109.049 86.2184C108.87 88.8277 108.668 91.9933 108.467 94.3659C108.266 93.5921 108.029 92.6328 107.763 91.4433L107.727 91.3218C107.626 90.8741 107.339 90.6119 106.915 90.4648C106.785 89.9021 106.476 89.3649 105.98 88.9236C104.6 87.6701 102.35 87.651 100.934 88.8724Z" fill="#5F95DC"/>
<path d="M176.39 85.6341V102.677H171.79V95.6608H164.634V102.677H160.033V85.6341H164.634V92.3105H171.79V85.6341H176.39Z" fill="#3D618F"/>
<path d="M180.141 95.8793C180.141 94.4874 180.428 93.2654 181.002 92.2134C181.594 91.1613 182.392 90.3521 183.396 89.7856C184.401 89.2191 185.522 88.9359 186.759 88.9359C187.817 88.9359 188.741 89.1301 189.53 89.5185C190.337 89.907 190.956 90.4168 191.386 91.048V89.1301H195.987V102.677H191.386V100.759C190.938 101.39 190.31 101.9 189.503 102.289C188.714 102.677 187.79 102.871 186.732 102.871C185.513 102.871 184.401 102.588 183.396 102.022C182.392 101.439 181.594 100.622 181.002 99.5695C180.428 98.5013 180.141 97.2712 180.141 95.8793ZM191.386 95.9036C191.386 94.8677 191.064 94.0504 190.418 93.4515C189.79 92.8527 189.019 92.5533 188.104 92.5533C187.19 92.5533 186.409 92.8527 185.764 93.4515C185.136 94.0342 184.822 94.8435 184.822 95.8793C184.822 96.9152 185.136 97.7406 185.764 98.3556C186.409 98.9545 187.19 99.2539 188.104 99.2539C189.019 99.2539 189.79 98.9545 190.418 98.3556C191.064 97.7568 191.386 96.9394 191.386 95.9036Z" fill="#3D618F"/>
<path d="M209.834 102.677L205.26 96.9961V102.677H200.66V84.7115H205.26V94.6411L209.807 89.1301H215.483L209.242 95.9279L215.537 102.677H209.834Z" fill="#3D618F"/>
<path d="M220.949 87.722C220.142 87.722 219.478 87.5116 218.958 87.0908C218.456 86.6538 218.205 86.1196 218.205 85.4884C218.205 84.841 218.456 84.3069 218.958 83.8861C219.478 83.4491 220.142 83.2306 220.949 83.2306C221.738 83.2306 222.384 83.4491 222.886 83.8861C223.406 84.3069 223.666 84.841 223.666 85.4884C223.666 86.1196 223.406 86.6538 222.886 87.0908C222.384 87.5116 221.738 87.722 220.949 87.722ZM223.235 89.1301V102.677H218.635V89.1301H223.235Z" fill="#3D618F"/>
<path d="M247.069 88.9844C248.934 88.9844 250.414 89.4943 251.508 90.5139C252.62 91.5336 253.176 92.9498 253.176 94.7625V102.677H248.602V95.3209C248.602 94.4469 248.342 93.7752 247.822 93.3059C247.32 92.8203 246.62 92.5775 245.724 92.5775C244.827 92.5775 244.119 92.8203 243.598 93.3059C243.096 93.7752 242.845 94.4469 242.845 95.3209V102.677H238.272V95.3209C238.272 94.4469 238.012 93.7752 237.492 93.3059C236.989 92.8203 236.29 92.5775 235.393 92.5775C234.496 92.5775 233.788 92.8203 233.268 93.3059C232.766 93.7752 232.515 94.4469 232.515 95.3209V102.677H227.914V89.1301H232.515V90.8295C232.981 90.2631 233.591 89.818 234.344 89.4943C235.097 89.1544 235.949 88.9844 236.9 88.9844C238.03 88.9844 239.034 89.2029 239.913 89.6399C240.81 90.0769 241.509 90.7001 242.011 91.5093C242.531 90.7648 243.24 90.1578 244.136 89.6885C245.033 89.2191 246.011 88.9844 247.069 88.9844Z" fill="#3D618F"/>
<path d="M274.095 85.634V102.677H269.495V95.6607H262.339V102.677H257.739V85.634H262.339V92.3104H269.495V85.634H274.095Z" fill="#5F95DC"/>
<path d="M293.584 89.13V102.677H288.984V100.832C288.518 101.431 287.881 101.916 287.074 102.289C286.285 102.645 285.406 102.823 284.438 102.823C283.29 102.823 282.276 102.596 281.398 102.143C280.519 101.674 279.837 101.002 279.353 100.128C278.869 99.2538 278.627 98.2261 278.627 97.0445V89.13H283.2V96.4861C283.2 97.3925 283.46 98.0966 283.98 98.5983C284.5 99.1001 285.2 99.3509 286.079 99.3509C286.975 99.3509 287.684 99.1001 288.204 98.5983C288.724 98.0966 288.984 97.3925 288.984 96.4861V89.13H293.584Z" fill="#5F95DC"/>
<path d="M302.834 91.0479C303.265 90.4167 303.883 89.9069 304.69 89.5184C305.498 89.13 306.421 88.9358 307.461 88.9358C308.699 88.9358 309.82 89.219 310.824 89.7855C311.829 90.352 312.618 91.1612 313.192 92.2133C313.783 93.2653 314.079 94.4873 314.079 95.8792C314.079 97.2711 313.783 98.5012 313.192 99.5694C312.618 100.621 311.829 101.439 310.824 102.021C309.82 102.588 308.699 102.871 307.461 102.871C306.403 102.871 305.48 102.685 304.69 102.313C303.901 101.924 303.283 101.415 302.834 100.783V102.677H298.234V84.7114H302.834V91.0479ZM309.398 95.8792C309.398 94.8434 309.076 94.0341 308.43 93.4514C307.802 92.8526 307.022 92.5531 306.089 92.5531C305.175 92.5531 304.395 92.8526 303.749 93.4514C303.121 94.0503 302.807 94.8676 302.807 95.9035C302.807 96.9393 303.121 97.7567 303.749 98.3555C304.395 98.9544 305.175 99.2538 306.089 99.2538C307.004 99.2538 307.784 98.9544 308.43 98.3555C309.076 97.7405 309.398 96.9151 309.398 95.8792Z" fill="#5F95DC"/>
</svg>
