<svg width="35" height="30" viewBox="0 0 35 30" fill="none" xmlns="http://www.w3.org/2000/svg">
<path d="M25 0C23.4 0 21.8334 0.416667 20.45 1.15L17.5 10H22.5L17.5 26.6667L19.1667 11.6667H14.1667L16.7334 2.68333C14.95 1.01667 12.5167 0 10 0C4.86671 0 0.833374 4.03333 0.833374 9.16667C0.833374 16.05 7.76671 21.1333 17.5 30C26.6167 21.7667 34.1667 16.2333 34.1667 9.16667C34.1667 4.03333 30.1334 0 25 0ZM14.5667 22.8833C8.25004 17.2333 4.16671 13.3333 4.16671 9.16667C4.16671 5.9 6.73337 3.33333 10 3.33333C10.9834 3.33333 11.9834 3.58333 12.8834 4.03333L9.75004 15H15.45L14.5667 22.8833ZM22.7167 20.8833L26.9834 6.66667H22.1334L23.15 3.63333C23.75 3.43333 24.3834 3.33333 25 3.33333C28.2667 3.33333 30.8334 5.9 30.8334 9.16667C30.8334 12.85 27.4667 16.55 22.7167 20.8833Z" fill="#5F95DC"/>
</svg>
